<svg width="40" height="46" viewBox="0 0 40 46" fill="none" xmlns="http://www.w3.org/2000/svg">
<path d="M16.8168 0.652795C17.2349 0.234811 17.8019 0 18.3931 0C18.9844 0 19.5514 0.234811 19.9695 0.652795L25.5435 6.22678C25.9614 6.64489 26.1962 7.2119 26.1962 7.80311C26.1962 8.39431 25.9614 8.96132 25.5435 9.37943L19.9695 14.9534C19.7638 15.1664 19.5178 15.3362 19.2457 15.4531C18.9737 15.5699 18.6812 15.6314 18.3851 15.634C18.0891 15.6366 17.7955 15.5802 17.5215 15.4681C17.2475 15.3559 16.9985 15.1904 16.7892 14.9811C16.5798 14.7717 16.4143 14.5228 16.3022 14.2488C16.1901 13.9748 16.1337 13.6812 16.1362 13.3851C16.1388 13.0891 16.2003 12.7965 16.3172 12.5245C16.434 12.2525 16.6039 12.0064 16.8168 11.8008L18.5069 10.1085C15.5847 10.4023 12.8047 11.5146 10.4864 13.3176C8.16816 15.1206 6.40565 17.5411 5.40146 20.3009C4.39727 23.0608 4.19217 26.048 4.80972 28.9192C5.42728 31.7904 6.84243 34.4291 8.89254 36.5321C10.9426 38.635 13.5445 40.1168 16.3991 40.8072C19.2536 41.4976 22.2451 41.3685 25.0296 40.4349C27.8141 39.5012 30.2787 37.8008 32.1401 35.5292C34.0015 33.2575 35.1841 30.5067 35.5521 27.593C35.582 27.2973 35.6707 27.0105 35.813 26.7495C35.9553 26.4886 36.1484 26.2587 36.3808 26.0735C36.6133 25.8882 36.8804 25.7513 37.1666 25.6708C37.4527 25.5903 37.752 25.5679 38.047 25.6047C38.3419 25.6416 38.6265 25.7371 38.884 25.8855C39.1415 26.034 39.3667 26.2324 39.5464 26.4692C39.7261 26.706 39.8567 26.9763 39.9304 27.2642C40.0041 27.5522 40.0195 27.8519 39.9756 28.1459C39.501 31.917 37.965 35.4758 35.5466 38.4079C33.1281 41.3401 29.9266 43.5251 26.3148 44.7087C22.7029 45.8922 18.8291 46.0256 15.1444 45.0933C11.4596 44.161 8.11543 42.2014 5.50103 39.4425C2.88663 36.6836 1.10955 33.2389 0.37662 29.5094C-0.356311 25.7799 -0.0149453 21.9189 1.36099 18.3758C2.73692 14.8328 5.09082 11.7533 8.14873 9.49596C11.2066 7.23858 14.8428 5.89611 18.6339 5.62479L16.8168 3.80544C16.3988 3.38733 16.164 2.82033 16.164 2.22912C16.164 1.63791 16.3988 1.07091 16.8168 0.652795ZM29.4452 18.4896C29.8632 18.9077 30.098 19.4747 30.098 20.0659C30.098 20.6571 29.8632 21.2241 29.4452 21.6422L19.4121 31.6754C18.994 32.0934 18.427 32.3282 17.8357 32.3282C17.2445 32.3282 16.6775 32.0934 16.2594 31.6754L11.8002 27.2162C11.5873 27.0105 11.4174 26.7645 11.3006 26.4925C11.1837 26.2204 11.1222 25.9279 11.1196 25.6318C11.1171 25.3358 11.1735 25.0422 11.2856 24.7682C11.3977 24.4942 11.5633 24.2452 11.7726 24.0359C11.9819 23.8266 12.2309 23.661 12.5049 23.5489C12.7789 23.4368 13.0725 23.3804 13.3685 23.383C13.6646 23.3855 13.9571 23.447 14.2292 23.5639C14.5012 23.6807 14.7472 23.8506 14.9529 24.0635L17.8357 26.9464L26.2926 18.4896C26.7107 18.0716 27.2777 17.8368 27.8689 17.8368C28.4601 17.8368 29.0271 18.0716 29.4452 18.4896Z" fill="black"/>
</svg>
