<svg width="35" height="35" viewBox="0 0 35 35" fill="none" xmlns="http://www.w3.org/2000/svg">
<circle cx="17.5" cy="17.5" r="17.5" fill="#0065A8"/>
<path d="M25.5 14.6514V21.7501C25.5 22.324 25.2808 22.8763 24.887 23.2938C24.4933 23.7114 23.9549 23.9627 23.382 23.9964L23.25 24.0001H12.75C12.1761 24.0001 11.6239 23.7809 11.2063 23.3872C10.7887 22.9934 10.5374 22.455 10.5038 21.8821L10.5 21.7501V14.6514L17.5837 19.3741L17.6707 19.4236C17.7733 19.4737 17.8859 19.4998 18 19.4998C18.1141 19.4998 18.2267 19.4737 18.3292 19.4236L18.4162 19.3741L25.5 14.6514Z" fill="white"/>
<path d="M23.2502 12C24.0602 12 24.7705 12.4275 25.1665 13.0702L18.0002 17.8477L10.834 13.0702C11.022 12.7648 11.2804 12.5088 11.5875 12.3235C11.8946 12.1383 12.2416 12.0291 12.5995 12.0052L12.7502 12H23.2502Z" fill="white"/>
</svg>
