<svg width="40" height="32" viewBox="0 0 40 32" fill="none" xmlns="http://www.w3.org/2000/svg">
<path d="M0 6.42857C0 4.72361 0.677294 3.08848 1.88288 1.88288C3.08848 0.677294 4.72361 0 6.42857 0H33.5714C35.2764 0 36.9115 0.677294 38.1171 1.88288C39.3227 3.08848 40 4.72361 40 6.42857V25C40 26.705 39.3227 28.3401 38.1171 29.5457C36.9115 30.7513 35.2764 31.4286 33.5714 31.4286H6.42857C4.72361 31.4286 3.08848 30.7513 1.88288 29.5457C0.677294 28.3401 0 26.705 0 25V6.42857ZM6.42857 2.85714C5.48137 2.85714 4.57296 3.23342 3.90319 3.90319C3.23342 4.57296 2.85714 5.48137 2.85714 6.42857V8.57143H37.1429V6.42857C37.1429 5.48137 36.7666 4.57296 36.0968 3.90319C35.427 3.23342 34.5186 2.85714 33.5714 2.85714H6.42857ZM2.85714 25C2.85714 25.9472 3.23342 26.8556 3.90319 27.5254C4.57296 28.1952 5.48137 28.5714 6.42857 28.5714H33.5714C34.5186 28.5714 35.427 28.1952 36.0968 27.5254C36.7666 26.8556 37.1429 25.9472 37.1429 25V11.4286H2.85714V25ZM27.1429 20H31.4286C31.8075 20 32.1708 20.1505 32.4387 20.4184C32.7066 20.6863 32.8571 21.0497 32.8571 21.4286C32.8571 21.8075 32.7066 22.1708 32.4387 22.4387C32.1708 22.7066 31.8075 22.8571 31.4286 22.8571H27.1429C26.764 22.8571 26.4006 22.7066 26.1327 22.4387C25.8648 22.1708 25.7143 21.8075 25.7143 21.4286C25.7143 21.0497 25.8648 20.6863 26.1327 20.4184C26.4006 20.1505 26.764 20 27.1429 20Z" fill="white"/>
</svg>
