<svg width="40" height="35" viewBox="0 0 40 35" fill="none" xmlns="http://www.w3.org/2000/svg">
<path d="M23.7502 29.9996H18.7503C18.4188 29.9996 18.1008 30.1313 17.8664 30.3657C17.632 30.6001 17.5003 30.9181 17.5003 31.2496V33.7496C17.5003 34.0811 17.632 34.399 17.8664 34.6334C18.1008 34.8679 18.4188 34.9995 18.7503 34.9995H23.7502C24.0817 34.9995 24.3997 34.8679 24.6341 34.6334C24.8685 34.399 25.0002 34.0811 25.0002 33.7496V31.2496C25.0002 30.9181 24.8685 30.6001 24.6341 30.3657C24.3997 30.1313 24.0817 29.9996 23.7502 29.9996ZM1.2505 9.99987H5.00045V33.7496C5.00045 34.0811 5.13214 34.399 5.36656 34.6334C5.60098 34.8679 5.91892 34.9995 6.25043 34.9995H8.7504C9.08192 34.9995 9.39985 34.8679 9.63427 34.6334C9.86869 34.399 10.0004 34.0811 10.0004 33.7496V9.99987H13.7503C14.8605 9.99987 15.4206 8.65301 14.6339 7.86631L8.384 0.366401C8.1496 0.132161 7.83179 0.00057935 7.50042 0.00057935C7.16904 0.00057935 6.85123 0.132161 6.61683 0.366401L0.366915 7.86631C-0.41745 8.65145 0.138793 9.99987 1.2505 9.99987ZM33.7501 9.99987H18.7503C18.4188 9.99987 18.1008 10.1316 17.8664 10.366C17.632 10.6004 17.5003 10.9183 17.5003 11.2499V13.7498C17.5003 14.0813 17.632 14.3993 17.8664 14.6337C18.1008 14.8681 18.4188 14.9998 18.7503 14.9998H33.7501C34.0816 14.9998 34.3995 14.8681 34.6339 14.6337C34.8684 14.3993 35.0001 14.0813 35.0001 13.7498V11.2499C35.0001 10.9183 34.8684 10.6004 34.6339 10.366C34.3995 10.1316 34.0816 9.99987 33.7501 9.99987ZM28.7501 19.9997H18.7503C18.4188 19.9997 18.1008 20.1314 17.8664 20.3659C17.632 20.6003 17.5003 20.9182 17.5003 21.2497V23.7497C17.5003 24.0812 17.632 24.3991 17.8664 24.6336C18.1008 24.868 18.4188 24.9997 18.7503 24.9997H28.7501C29.0817 24.9997 29.3996 24.868 29.634 24.6336C29.8684 24.3991 30.0001 24.0812 30.0001 23.7497V21.2497C30.0001 20.9182 29.8684 20.6003 29.634 20.3659C29.3996 20.1314 29.0817 19.9997 28.7501 19.9997ZM38.75 0H18.7503C18.4188 0 18.1008 0.131694 17.8664 0.366112C17.632 0.600529 17.5003 0.918468 17.5003 1.24998V3.74995C17.5003 4.08147 17.632 4.39941 17.8664 4.63382C18.1008 4.86824 18.4188 4.99994 18.7503 4.99994H38.75C39.0815 4.99994 39.3995 4.86824 39.6339 4.63382C39.8683 4.39941 40 4.08147 40 3.74995V1.24998C40 0.918468 39.8683 0.600529 39.6339 0.366112C39.3995 0.131694 39.0815 0 38.75 0Z" fill="white"/>
</svg>
