<svg width="34" height="34" viewBox="0 0 34 34" fill="none" xmlns="http://www.w3.org/2000/svg">
<circle cx="17" cy="17" r="17" fill="#F5F5F5"/>
<path d="M13.9648 11.9762C13.9775 11.7114 14.0949 11.4624 14.2911 11.2841C14.4874 11.1058 14.7464 11.0127 15.0113 11.0254L21.368 11.3299C21.6328 11.3426 21.8818 11.46 22.0601 11.6563C22.2384 11.8526 22.3315 12.1116 22.3188 12.3765L22.0143 18.7331C21.9972 18.9948 21.878 19.2392 21.6824 19.4139C21.4868 19.5885 21.2305 19.6793 20.9686 19.6668C20.7067 19.6542 20.4602 19.5393 20.2822 19.3468C20.1042 19.1543 20.0089 18.8995 20.0169 18.6374L20.1423 14.7499L13.111 21.1383C12.9147 21.3166 12.6556 21.4097 12.3907 21.397C12.1257 21.3843 11.8767 21.2669 11.6984 21.0706C11.52 20.8743 11.427 20.6152 11.4397 20.3503C11.4524 20.0854 11.5698 19.8363 11.7661 19.658L18.7973 13.2696L14.9156 13.0228C14.6508 13.01 14.4018 12.8926 14.2235 12.6964C14.0452 12.5001 13.9521 12.2411 13.9648 11.9762Z" fill="#242537"/>
</svg>
