<svg width="35" height="35" viewBox="0 0 35 35" fill="none" xmlns="http://www.w3.org/2000/svg">
<circle cx="17.5" cy="17.5" r="17.5" fill="#0065A8"/>
<path d="M18 17.5C17.337 17.5 16.7011 17.2366 16.2322 16.7678C15.7634 16.2989 15.5 15.663 15.5 15C15.5 14.337 15.7634 13.7011 16.2322 13.2322C16.7011 12.7634 17.337 12.5 18 12.5C18.663 12.5 19.2989 12.7634 19.7678 13.2322C20.2366 13.7011 20.5 14.337 20.5 15C20.5 15.3283 20.4353 15.6534 20.3097 15.9567C20.1841 16.26 19.9999 16.5356 19.7678 16.7678C19.5356 16.9999 19.26 17.1841 18.9567 17.3097C18.6534 17.4353 18.3283 17.5 18 17.5ZM18 8C16.1435 8 14.363 8.7375 13.0503 10.0503C11.7375 11.363 11 13.1435 11 15C11 20.25 18 28 18 28C18 28 25 20.25 25 15C25 13.1435 24.2625 11.363 22.9497 10.0503C21.637 8.7375 19.8565 8 18 8Z" fill="white"/>
</svg>
