<svg width="51" height="41" viewBox="0 0 51 41" fill="none" xmlns="http://www.w3.org/2000/svg">
<path d="M2.63793 15.8288H8.7931V31.6564H4.39655C4.16334 31.6564 3.93969 31.7491 3.77479 31.914C3.60988 32.0789 3.51724 32.3025 3.51724 32.5357C3.51724 32.7689 3.60988 32.9926 3.77479 33.1575C3.93969 33.3224 4.16334 33.415 4.39655 33.415H46.6035C46.8367 33.415 47.0603 33.3224 47.2252 33.1575C47.3901 32.9926 47.4828 32.7689 47.4828 32.5357C47.4828 32.3025 47.3901 32.0789 47.2252 31.914C47.0603 31.7491 46.8367 31.6564 46.6035 31.6564H42.2069V15.8288H48.3621C48.5538 15.8293 48.7405 15.767 48.8935 15.6515C49.0466 15.5361 49.1578 15.3738 49.2101 15.1893C49.2623 15.0048 49.2529 14.8083 49.1831 14.6297C49.1134 14.451 48.9872 14.3001 48.8237 14.1999L25.9616 0.130927C25.8229 0.0453304 25.663 0 25.5 0C25.337 0 25.1771 0.0453304 25.0384 0.130927L2.17629 14.1999C2.01283 14.3001 1.88661 14.451 1.81686 14.6297C1.74711 14.8083 1.73765 15.0048 1.78994 15.1893C1.84222 15.3738 1.95337 15.5361 2.10646 15.6515C2.25955 15.767 2.44618 15.8293 2.63793 15.8288ZM10.5517 15.8288H19.3448V31.6564H10.5517V15.8288ZM29.8966 15.8288V31.6564H21.1034V15.8288H29.8966ZM40.4483 31.6564H31.6552V15.8288H40.4483V31.6564ZM25.5 1.91373L45.2559 14.0702H5.7441L25.5 1.91373ZM51 39.5702C51 39.8034 50.9074 40.0271 50.7425 40.192C50.5776 40.3569 50.3539 40.4495 50.1207 40.4495H0.87931C0.646103 40.4495 0.422447 40.3569 0.257544 40.192C0.0926413 40.0271 0 39.8034 0 39.5702C0 39.337 0.0926413 39.1133 0.257544 38.9484C0.422447 38.7835 0.646103 38.6909 0.87931 38.6909H50.1207C50.3539 38.6909 50.5776 38.7835 50.7425 38.9484C50.9074 39.1133 51 39.337 51 39.5702Z" fill="black"/>
</svg>
