<svg width="35" height="35" viewBox="0 0 35 35" fill="none" xmlns="http://www.w3.org/2000/svg">
<circle cx="17.5" cy="17.5" r="17.5" fill="#0065A8"/>
<path d="M26.01 21.38C24.78 21.38 23.59 21.18 22.48 20.82C22.3061 20.7611 22.1191 20.7523 21.9405 20.7948C21.7618 20.8372 21.5988 20.9291 21.47 21.06L19.9 23.03C17.07 21.68 14.42 19.13 13.01 16.2L14.96 14.54C15.23 14.26 15.31 13.87 15.2 13.52C14.83 12.41 14.64 11.22 14.64 9.99C14.64 9.45 14.19 9 13.65 9H10.19C9.65 9 9 9.24 9 9.99C9 19.28 16.73 27 26.01 27C26.72 27 27 26.37 27 25.82V22.37C27 21.83 26.55 21.38 26.01 21.38Z" fill="white"/>
</svg>
