<svg width="80" height="67" viewBox="0 0 80 67" fill="none" xmlns="http://www.w3.org/2000/svg">
<path fill-rule="evenodd" clip-rule="evenodd" d="M28.8969 0.596819C11.7338 11.6191 2.19892 24.4483 0.292284 39.0841C-2.67592 61.8686 17.6998 73.021 28.024 63.0006C38.3481 52.9803 32.1594 40.2617 24.6837 36.7851C17.208 33.3083 12.6363 34.5192 13.4337 29.8732C14.2312 25.2275 24.8669 12.3464 34.2108 6.34755C34.8308 5.82039 35.0666 4.79752 34.4697 4.02148C34.0771 3.51119 33.3069 2.51032 32.1594 1.0188C31.1559 -0.285473 30.1946 -0.236653 28.8969 0.596819Z" fill="#D9D9D9"/>
<path fill-rule="evenodd" clip-rule="evenodd" d="M74.0813 0.596819C56.9184 11.6191 47.3835 24.4483 45.4768 39.0841C42.5087 61.8686 62.8845 73.021 73.2086 63.0006C83.5328 52.9803 77.3441 40.2617 69.8684 36.7851C62.3926 33.3083 57.8207 34.5192 58.6184 29.8732C59.4159 25.2275 70.0516 12.3464 79.3955 6.34755C80.0154 5.82039 80.2513 4.79752 79.6542 4.02148C79.2617 3.51119 78.4916 2.51032 77.3441 1.0188C76.3406 -0.285473 75.3793 -0.236653 74.0813 0.596819Z" fill="#D9D9D9"/>
</svg>
