<svg width="35" height="35" viewBox="0 0 35 35" fill="none" xmlns="http://www.w3.org/2000/svg">
<path d="M20.6213 29.9996H16.3062C16.0201 29.9996 15.7457 30.1313 15.5434 30.3657C15.3411 30.6001 15.2274 30.9181 15.2274 31.2496V33.7496C15.2274 34.0811 15.3411 34.399 15.5434 34.6334C15.7457 34.8679 16.0201 34.9995 16.3062 34.9995H20.6213C20.9074 34.9995 21.1818 34.8679 21.3841 34.6334C21.5864 34.399 21.7001 34.0811 21.7001 33.7496V31.2496C21.7001 30.9181 21.5864 30.6001 21.3841 30.3657C21.1818 30.1313 20.9074 29.9996 20.6213 29.9996ZM1.20325 9.99987H4.43959V33.7496C4.43959 34.0811 4.55325 34.399 4.75556 34.6334C4.95787 34.8679 5.23226 34.9995 5.51837 34.9995H7.67594C7.96205 34.9995 8.23644 34.8679 8.43875 34.6334C8.64106 34.399 8.75472 34.0811 8.75472 33.7496V9.99987H11.9911C12.9492 9.99987 13.4326 8.65301 12.7536 7.86631L7.35972 0.366401C7.15743 0.132161 6.88314 0.00057935 6.59716 0.00057935C6.31117 0.00057935 6.03688 0.132161 5.83459 0.366401L0.440684 7.86631C-0.236251 8.65145 0.243807 9.99987 1.20325 9.99987ZM29.2516 9.99987H16.3062C16.0201 9.99987 15.7457 10.1316 15.5434 10.366C15.3411 10.6004 15.2274 10.9183 15.2274 11.2499V13.7498C15.2274 14.0813 15.3411 14.3993 15.5434 14.6337C15.7457 14.8681 16.0201 14.9998 16.3062 14.9998H29.2516C29.5377 14.9998 29.8121 14.8681 30.0144 14.6337C30.2167 14.3993 30.3303 14.0813 30.3303 13.7498V11.2499C30.3303 10.9183 30.2167 10.6004 30.0144 10.366C29.8121 10.1316 29.5377 9.99987 29.2516 9.99987ZM24.9364 19.9997H16.3062C16.0201 19.9997 15.7457 20.1314 15.5434 20.3659C15.3411 20.6003 15.2274 20.9182 15.2274 21.2497V23.7497C15.2274 24.0812 15.3411 24.3991 15.5434 24.6336C15.7457 24.868 16.0201 24.9997 16.3062 24.9997H24.9364C25.2226 24.9997 25.4969 24.868 25.6993 24.6336C25.9016 24.3991 26.0152 24.0812 26.0152 23.7497V21.2497C26.0152 20.9182 25.9016 20.6003 25.6993 20.3659C25.4969 20.1314 25.2226 19.9997 24.9364 19.9997ZM33.5667 0H16.3062C16.0201 0 15.7457 0.131694 15.5434 0.366112C15.3411 0.600529 15.2274 0.918468 15.2274 1.24998V3.74995C15.2274 4.08147 15.3411 4.39941 15.5434 4.63382C15.7457 4.86824 16.0201 4.99994 16.3062 4.99994H33.5667C33.8528 4.99994 34.1272 4.86824 34.3295 4.63382C34.5318 4.39941 34.6455 4.08147 34.6455 3.74995V1.24998C34.6455 0.918468 34.5318 0.600529 34.3295 0.366112C34.1272 0.131694 33.8528 0 33.5667 0Z" fill="#0065A8"/>
</svg>
