<svg width="1119" height="953" viewBox="0 0 1119 953" fill="none" xmlns="http://www.w3.org/2000/svg">
<path d="M359.005 0L1199 0V870L412.19 870L81.0929 447.757C-18.0796 322.763 4.05811 303.871 65.1505 251.735L67.0148 250.144L359.005 0Z" fill="#D9D9D9"/>
<path opacity="0.48" d="M1274 597C1274 706.352 1185.35 795 1076 795C966.648 795 878 706.352 878 597C878 487.648 966.648 399 1076 399C1185.35 399 1274 487.648 1274 597ZM998.337 597C998.337 639.892 1033.11 674.663 1076 674.663C1118.89 674.663 1153.66 639.892 1153.66 597C1153.66 554.108 1118.89 519.337 1076 519.337C1033.11 519.337 998.337 554.108 998.337 597Z" fill="#F1F1F1"/>
<path d="M685.415 365.646C683.775 365.646 682.366 365.066 681.19 363.906C680.03 362.73 679.45 361.321 679.45 359.68C679.45 358.056 680.03 356.664 681.19 355.504C682.366 354.344 683.775 353.764 685.415 353.764C687.006 353.764 688.398 354.344 689.592 355.504C690.785 356.664 691.381 358.056 691.381 359.68C691.381 360.774 691.1 361.777 690.536 362.688C689.989 363.583 689.268 364.304 688.374 364.851C687.479 365.381 686.493 365.646 685.415 365.646ZM742.474 365.646C740.833 365.646 739.424 365.066 738.248 363.906C737.088 362.73 736.508 361.321 736.508 359.68C736.508 358.056 737.088 356.664 738.248 355.504C739.424 354.344 740.833 353.764 742.474 353.764C744.065 353.764 745.457 354.344 746.65 355.504C747.843 356.664 748.44 358.056 748.44 359.68C748.44 360.774 748.158 361.777 747.594 362.688C747.048 363.583 746.327 364.304 745.432 364.851C744.537 365.381 743.551 365.646 742.474 365.646ZM799.532 365.646C797.891 365.646 796.483 365.066 795.306 363.906C794.146 362.73 793.566 361.321 793.566 359.68C793.566 358.056 794.146 356.664 795.306 355.504C796.483 354.344 797.891 353.764 799.532 353.764C801.123 353.764 802.515 354.344 803.708 355.504C804.901 356.664 805.498 358.056 805.498 359.68C805.498 360.774 805.216 361.777 804.653 362.688C804.106 363.583 803.385 364.304 802.49 364.851C801.595 365.381 800.609 365.646 799.532 365.646ZM856.59 365.646C854.949 365.646 853.541 365.066 852.364 363.906C851.204 362.73 850.624 361.321 850.624 359.68C850.624 358.056 851.204 356.664 852.364 355.504C853.541 354.344 854.949 353.764 856.59 353.764C858.181 353.764 859.573 354.344 860.766 355.504C861.959 356.664 862.556 358.056 862.556 359.68C862.556 360.774 862.274 361.777 861.711 362.688C861.164 363.583 860.443 364.304 859.548 364.851C858.653 365.381 857.667 365.646 856.59 365.646ZM913.648 365.646C912.008 365.646 910.599 365.066 909.422 363.906C908.262 362.73 907.682 361.321 907.682 359.68C907.682 358.056 908.262 356.664 909.422 355.504C910.599 354.344 912.008 353.764 913.648 353.764C915.239 353.764 916.631 354.344 917.824 355.504C919.018 356.664 919.614 358.056 919.614 359.68C919.614 360.774 919.332 361.777 918.769 362.688C918.222 363.583 917.501 364.304 916.606 364.851C915.712 365.381 914.725 365.646 913.648 365.646ZM970.706 365.646C969.066 365.646 967.657 365.066 966.481 363.906C965.321 362.73 964.741 361.321 964.741 359.68C964.741 358.056 965.321 356.664 966.481 355.504C967.657 354.344 969.066 353.764 970.706 353.764C972.297 353.764 973.689 354.344 974.883 355.504C976.076 356.664 976.672 358.056 976.672 359.68C976.672 360.774 976.391 361.777 975.827 362.688C975.28 363.583 974.559 364.304 973.665 364.851C972.77 365.381 971.784 365.646 970.706 365.646ZM1027.76 365.646C1026.12 365.646 1024.72 365.066 1023.54 363.906C1022.38 362.73 1021.8 361.321 1021.8 359.68C1021.8 358.056 1022.38 356.664 1023.54 355.504C1024.72 354.344 1026.12 353.764 1027.76 353.764C1029.36 353.764 1030.75 354.344 1031.94 355.504C1033.13 356.664 1033.73 358.056 1033.73 359.68C1033.73 360.774 1033.45 361.777 1032.89 362.688C1032.34 363.583 1031.62 364.304 1030.72 364.851C1029.83 365.381 1028.84 365.646 1027.76 365.646ZM1084.82 365.646C1083.18 365.646 1081.77 365.066 1080.6 363.906C1079.44 362.73 1078.86 361.321 1078.86 359.68C1078.86 358.056 1079.44 356.664 1080.6 355.504C1081.77 354.344 1083.18 353.764 1084.82 353.764C1086.41 353.764 1087.81 354.344 1089 355.504C1090.19 356.664 1090.79 358.056 1090.79 359.68C1090.79 360.774 1090.51 361.777 1089.94 362.688C1089.4 363.583 1088.68 364.304 1087.78 364.851C1086.89 365.381 1085.9 365.646 1084.82 365.646ZM1141.88 365.646C1140.24 365.646 1138.83 365.066 1137.66 363.906C1136.5 362.73 1135.92 361.321 1135.92 359.68C1135.92 358.056 1136.5 356.664 1137.66 355.504C1138.83 354.344 1140.24 353.764 1141.88 353.764C1143.47 353.764 1144.86 354.344 1146.06 355.504C1147.25 356.664 1147.85 358.056 1147.85 359.68C1147.85 360.774 1147.57 361.777 1147 362.688C1146.45 363.583 1145.73 364.304 1144.84 364.851C1143.94 365.381 1142.96 365.646 1141.88 365.646ZM1198.94 365.646C1197.3 365.646 1195.89 365.066 1194.71 363.906C1193.55 362.73 1192.97 361.321 1192.97 359.68C1192.97 358.056 1193.55 356.664 1194.71 355.504C1195.89 354.344 1197.3 353.764 1198.94 353.764C1200.53 353.764 1201.92 354.344 1203.12 355.504C1204.31 356.664 1204.91 358.056 1204.91 359.68C1204.91 360.774 1204.62 361.777 1204.06 362.688C1203.51 363.583 1202.79 364.304 1201.9 364.851C1201 365.381 1200.02 365.646 1198.94 365.646ZM1256 365.646C1254.36 365.646 1252.95 365.066 1251.77 363.906C1250.61 362.73 1250.03 361.321 1250.03 359.68C1250.03 358.056 1250.61 356.664 1251.77 355.504C1252.95 354.344 1254.36 353.764 1256 353.764C1257.59 353.764 1258.98 354.344 1260.17 355.504C1261.37 356.664 1261.96 358.056 1261.96 359.68C1261.96 360.774 1261.68 361.777 1261.12 362.688C1260.57 363.583 1259.85 364.304 1258.96 364.851C1258.06 365.381 1257.07 365.646 1256 365.646ZM1313.06 365.646C1311.42 365.646 1310.01 365.066 1308.83 363.906C1307.67 362.73 1307.09 361.321 1307.09 359.68C1307.09 358.056 1307.67 356.664 1308.83 355.504C1310.01 354.344 1311.42 353.764 1313.06 353.764C1314.65 353.764 1316.04 354.344 1317.23 355.504C1318.43 356.664 1319.02 358.056 1319.02 359.68C1319.02 360.774 1318.74 361.777 1318.18 362.688C1317.63 363.583 1316.91 364.304 1316.01 364.851C1315.12 365.381 1314.13 365.646 1313.06 365.646ZM1370.11 365.646C1368.47 365.646 1367.06 365.066 1365.89 363.906C1364.73 362.73 1364.15 361.321 1364.15 359.68C1364.15 358.056 1364.73 356.664 1365.89 355.504C1367.06 354.344 1368.47 353.764 1370.11 353.764C1371.7 353.764 1373.1 354.344 1374.29 355.504C1375.48 356.664 1376.08 358.056 1376.08 359.68C1376.08 360.774 1375.8 361.777 1375.23 362.688C1374.69 363.583 1373.97 364.304 1373.07 364.851C1372.18 365.381 1371.19 365.646 1370.11 365.646ZM1427.17 365.646C1425.53 365.646 1424.12 365.066 1422.95 363.906C1421.79 362.73 1421.21 361.321 1421.21 359.68C1421.21 358.056 1421.79 356.664 1422.95 355.504C1424.12 354.344 1425.53 353.764 1427.17 353.764C1428.76 353.764 1430.16 354.344 1431.35 355.504C1432.54 356.664 1433.14 358.056 1433.14 359.68C1433.14 360.774 1432.86 361.777 1432.29 362.688C1431.75 363.583 1431.03 364.304 1430.13 364.851C1429.24 365.381 1428.25 365.646 1427.17 365.646ZM1484.23 365.646C1482.59 365.646 1481.18 365.066 1480 363.906C1478.84 362.73 1478.26 361.321 1478.26 359.68C1478.26 358.056 1478.84 356.664 1480 355.504C1481.18 354.344 1482.59 353.764 1484.23 353.764C1485.82 353.764 1487.21 354.344 1488.41 355.504C1489.6 356.664 1490.2 358.056 1490.2 359.68C1490.2 360.774 1489.91 361.777 1489.35 362.688C1488.8 363.583 1488.08 364.304 1487.19 364.851C1486.29 365.381 1485.31 365.646 1484.23 365.646Z" fill="#F5F5F5"/>
<path d="M685.415 333.646C683.775 333.646 682.366 333.066 681.19 331.906C680.03 330.73 679.45 329.321 679.45 327.68C679.45 326.056 680.03 324.664 681.19 323.504C682.366 322.344 683.775 321.764 685.415 321.764C687.006 321.764 688.398 322.344 689.592 323.504C690.785 324.664 691.381 326.056 691.381 327.68C691.381 328.774 691.1 329.777 690.536 330.688C689.989 331.583 689.268 332.304 688.374 332.851C687.479 333.381 686.493 333.646 685.415 333.646ZM742.474 333.646C740.833 333.646 739.424 333.066 738.248 331.906C737.088 330.73 736.508 329.321 736.508 327.68C736.508 326.056 737.088 324.664 738.248 323.504C739.424 322.344 740.833 321.764 742.474 321.764C744.065 321.764 745.457 322.344 746.65 323.504C747.843 324.664 748.44 326.056 748.44 327.68C748.44 328.774 748.158 329.777 747.594 330.688C747.048 331.583 746.327 332.304 745.432 332.851C744.537 333.381 743.551 333.646 742.474 333.646ZM799.532 333.646C797.891 333.646 796.483 333.066 795.306 331.906C794.146 330.73 793.566 329.321 793.566 327.68C793.566 326.056 794.146 324.664 795.306 323.504C796.483 322.344 797.891 321.764 799.532 321.764C801.123 321.764 802.515 322.344 803.708 323.504C804.901 324.664 805.498 326.056 805.498 327.68C805.498 328.774 805.216 329.777 804.653 330.688C804.106 331.583 803.385 332.304 802.49 332.851C801.595 333.381 800.609 333.646 799.532 333.646ZM856.59 333.646C854.949 333.646 853.541 333.066 852.364 331.906C851.204 330.73 850.624 329.321 850.624 327.68C850.624 326.056 851.204 324.664 852.364 323.504C853.541 322.344 854.949 321.764 856.59 321.764C858.181 321.764 859.573 322.344 860.766 323.504C861.959 324.664 862.556 326.056 862.556 327.68C862.556 328.774 862.274 329.777 861.711 330.688C861.164 331.583 860.443 332.304 859.548 332.851C858.653 333.381 857.667 333.646 856.59 333.646ZM913.648 333.646C912.008 333.646 910.599 333.066 909.422 331.906C908.262 330.73 907.682 329.321 907.682 327.68C907.682 326.056 908.262 324.664 909.422 323.504C910.599 322.344 912.008 321.764 913.648 321.764C915.239 321.764 916.631 322.344 917.824 323.504C919.018 324.664 919.614 326.056 919.614 327.68C919.614 328.774 919.332 329.777 918.769 330.688C918.222 331.583 917.501 332.304 916.606 332.851C915.712 333.381 914.725 333.646 913.648 333.646ZM970.706 333.646C969.066 333.646 967.657 333.066 966.481 331.906C965.321 330.73 964.741 329.321 964.741 327.68C964.741 326.056 965.321 324.664 966.481 323.504C967.657 322.344 969.066 321.764 970.706 321.764C972.297 321.764 973.689 322.344 974.883 323.504C976.076 324.664 976.672 326.056 976.672 327.68C976.672 328.774 976.391 329.777 975.827 330.688C975.28 331.583 974.559 332.304 973.665 332.851C972.77 333.381 971.784 333.646 970.706 333.646ZM1027.76 333.646C1026.12 333.646 1024.72 333.066 1023.54 331.906C1022.38 330.73 1021.8 329.321 1021.8 327.68C1021.8 326.056 1022.38 324.664 1023.54 323.504C1024.72 322.344 1026.12 321.764 1027.76 321.764C1029.36 321.764 1030.75 322.344 1031.94 323.504C1033.13 324.664 1033.73 326.056 1033.73 327.68C1033.73 328.774 1033.45 329.777 1032.89 330.688C1032.34 331.583 1031.62 332.304 1030.72 332.851C1029.83 333.381 1028.84 333.646 1027.76 333.646ZM1084.82 333.646C1083.18 333.646 1081.77 333.066 1080.6 331.906C1079.44 330.73 1078.86 329.321 1078.86 327.68C1078.86 326.056 1079.44 324.664 1080.6 323.504C1081.77 322.344 1083.18 321.764 1084.82 321.764C1086.41 321.764 1087.81 322.344 1089 323.504C1090.19 324.664 1090.79 326.056 1090.79 327.68C1090.79 328.774 1090.51 329.777 1089.94 330.688C1089.4 331.583 1088.68 332.304 1087.78 332.851C1086.89 333.381 1085.9 333.646 1084.82 333.646ZM1141.88 333.646C1140.24 333.646 1138.83 333.066 1137.66 331.906C1136.5 330.73 1135.92 329.321 1135.92 327.68C1135.92 326.056 1136.5 324.664 1137.66 323.504C1138.83 322.344 1140.24 321.764 1141.88 321.764C1143.47 321.764 1144.86 322.344 1146.06 323.504C1147.25 324.664 1147.85 326.056 1147.85 327.68C1147.85 328.774 1147.57 329.777 1147 330.688C1146.45 331.583 1145.73 332.304 1144.84 332.851C1143.94 333.381 1142.96 333.646 1141.88 333.646ZM1198.94 333.646C1197.3 333.646 1195.89 333.066 1194.71 331.906C1193.55 330.73 1192.97 329.321 1192.97 327.68C1192.97 326.056 1193.55 324.664 1194.71 323.504C1195.89 322.344 1197.3 321.764 1198.94 321.764C1200.53 321.764 1201.92 322.344 1203.12 323.504C1204.31 324.664 1204.91 326.056 1204.91 327.68C1204.91 328.774 1204.62 329.777 1204.06 330.688C1203.51 331.583 1202.79 332.304 1201.9 332.851C1201 333.381 1200.02 333.646 1198.94 333.646ZM1256 333.646C1254.36 333.646 1252.95 333.066 1251.77 331.906C1250.61 330.73 1250.03 329.321 1250.03 327.68C1250.03 326.056 1250.61 324.664 1251.77 323.504C1252.95 322.344 1254.36 321.764 1256 321.764C1257.59 321.764 1258.98 322.344 1260.17 323.504C1261.37 324.664 1261.96 326.056 1261.96 327.68C1261.96 328.774 1261.68 329.777 1261.12 330.688C1260.57 331.583 1259.85 332.304 1258.96 332.851C1258.06 333.381 1257.07 333.646 1256 333.646ZM1313.06 333.646C1311.42 333.646 1310.01 333.066 1308.83 331.906C1307.67 330.73 1307.09 329.321 1307.09 327.68C1307.09 326.056 1307.67 324.664 1308.83 323.504C1310.01 322.344 1311.42 321.764 1313.06 321.764C1314.65 321.764 1316.04 322.344 1317.23 323.504C1318.43 324.664 1319.02 326.056 1319.02 327.68C1319.02 328.774 1318.74 329.777 1318.18 330.688C1317.63 331.583 1316.91 332.304 1316.01 332.851C1315.12 333.381 1314.13 333.646 1313.06 333.646ZM1370.11 333.646C1368.47 333.646 1367.06 333.066 1365.89 331.906C1364.73 330.73 1364.15 329.321 1364.15 327.68C1364.15 326.056 1364.73 324.664 1365.89 323.504C1367.06 322.344 1368.47 321.764 1370.11 321.764C1371.7 321.764 1373.1 322.344 1374.29 323.504C1375.48 324.664 1376.08 326.056 1376.08 327.68C1376.08 328.774 1375.8 329.777 1375.23 330.688C1374.69 331.583 1373.97 332.304 1373.07 332.851C1372.18 333.381 1371.19 333.646 1370.11 333.646ZM1427.17 333.646C1425.53 333.646 1424.12 333.066 1422.95 331.906C1421.79 330.73 1421.21 329.321 1421.21 327.68C1421.21 326.056 1421.79 324.664 1422.95 323.504C1424.12 322.344 1425.53 321.764 1427.17 321.764C1428.76 321.764 1430.16 322.344 1431.35 323.504C1432.54 324.664 1433.14 326.056 1433.14 327.68C1433.14 328.774 1432.86 329.777 1432.29 330.688C1431.75 331.583 1431.03 332.304 1430.13 332.851C1429.24 333.381 1428.25 333.646 1427.17 333.646ZM1484.23 333.646C1482.59 333.646 1481.18 333.066 1480 331.906C1478.84 330.73 1478.26 329.321 1478.26 327.68C1478.26 326.056 1478.84 324.664 1480 323.504C1481.18 322.344 1482.59 321.764 1484.23 321.764C1485.82 321.764 1487.21 322.344 1488.41 323.504C1489.6 324.664 1490.2 326.056 1490.2 327.68C1490.2 328.774 1489.91 329.777 1489.35 330.688C1488.8 331.583 1488.08 332.304 1487.19 332.851C1486.29 333.381 1485.31 333.646 1484.23 333.646Z" fill="#F5F5F5"/>
<path d="M685.415 301.646C683.775 301.646 682.366 301.066 681.19 299.906C680.03 298.73 679.45 297.321 679.45 295.68C679.45 294.056 680.03 292.664 681.19 291.504C682.366 290.344 683.775 289.764 685.415 289.764C687.006 289.764 688.398 290.344 689.592 291.504C690.785 292.664 691.381 294.056 691.381 295.68C691.381 296.774 691.1 297.777 690.536 298.688C689.989 299.583 689.268 300.304 688.374 300.851C687.479 301.381 686.493 301.646 685.415 301.646ZM742.474 301.646C740.833 301.646 739.424 301.066 738.248 299.906C737.088 298.73 736.508 297.321 736.508 295.68C736.508 294.056 737.088 292.664 738.248 291.504C739.424 290.344 740.833 289.764 742.474 289.764C744.065 289.764 745.457 290.344 746.65 291.504C747.843 292.664 748.44 294.056 748.44 295.68C748.44 296.774 748.158 297.777 747.594 298.688C747.048 299.583 746.327 300.304 745.432 300.851C744.537 301.381 743.551 301.646 742.474 301.646ZM799.532 301.646C797.891 301.646 796.483 301.066 795.306 299.906C794.146 298.73 793.566 297.321 793.566 295.68C793.566 294.056 794.146 292.664 795.306 291.504C796.483 290.344 797.891 289.764 799.532 289.764C801.123 289.764 802.515 290.344 803.708 291.504C804.901 292.664 805.498 294.056 805.498 295.68C805.498 296.774 805.216 297.777 804.653 298.688C804.106 299.583 803.385 300.304 802.49 300.851C801.595 301.381 800.609 301.646 799.532 301.646ZM856.59 301.646C854.949 301.646 853.541 301.066 852.364 299.906C851.204 298.73 850.624 297.321 850.624 295.68C850.624 294.056 851.204 292.664 852.364 291.504C853.541 290.344 854.949 289.764 856.59 289.764C858.181 289.764 859.573 290.344 860.766 291.504C861.959 292.664 862.556 294.056 862.556 295.68C862.556 296.774 862.274 297.777 861.711 298.688C861.164 299.583 860.443 300.304 859.548 300.851C858.653 301.381 857.667 301.646 856.59 301.646ZM913.648 301.646C912.008 301.646 910.599 301.066 909.422 299.906C908.262 298.73 907.682 297.321 907.682 295.68C907.682 294.056 908.262 292.664 909.422 291.504C910.599 290.344 912.008 289.764 913.648 289.764C915.239 289.764 916.631 290.344 917.824 291.504C919.018 292.664 919.614 294.056 919.614 295.68C919.614 296.774 919.332 297.777 918.769 298.688C918.222 299.583 917.501 300.304 916.606 300.851C915.712 301.381 914.725 301.646 913.648 301.646ZM970.706 301.646C969.066 301.646 967.657 301.066 966.481 299.906C965.321 298.73 964.741 297.321 964.741 295.68C964.741 294.056 965.321 292.664 966.481 291.504C967.657 290.344 969.066 289.764 970.706 289.764C972.297 289.764 973.689 290.344 974.883 291.504C976.076 292.664 976.672 294.056 976.672 295.68C976.672 296.774 976.391 297.777 975.827 298.688C975.28 299.583 974.559 300.304 973.665 300.851C972.77 301.381 971.784 301.646 970.706 301.646ZM1027.76 301.646C1026.12 301.646 1024.72 301.066 1023.54 299.906C1022.38 298.73 1021.8 297.321 1021.8 295.68C1021.8 294.056 1022.38 292.664 1023.54 291.504C1024.72 290.344 1026.12 289.764 1027.76 289.764C1029.36 289.764 1030.75 290.344 1031.94 291.504C1033.13 292.664 1033.73 294.056 1033.73 295.68C1033.73 296.774 1033.45 297.777 1032.89 298.688C1032.34 299.583 1031.62 300.304 1030.72 300.851C1029.83 301.381 1028.84 301.646 1027.76 301.646ZM1084.82 301.646C1083.18 301.646 1081.77 301.066 1080.6 299.906C1079.44 298.73 1078.86 297.321 1078.86 295.68C1078.86 294.056 1079.44 292.664 1080.6 291.504C1081.77 290.344 1083.18 289.764 1084.82 289.764C1086.41 289.764 1087.81 290.344 1089 291.504C1090.19 292.664 1090.79 294.056 1090.79 295.68C1090.79 296.774 1090.51 297.777 1089.94 298.688C1089.4 299.583 1088.68 300.304 1087.78 300.851C1086.89 301.381 1085.9 301.646 1084.82 301.646ZM1141.88 301.646C1140.24 301.646 1138.83 301.066 1137.66 299.906C1136.5 298.73 1135.92 297.321 1135.92 295.68C1135.92 294.056 1136.5 292.664 1137.66 291.504C1138.83 290.344 1140.24 289.764 1141.88 289.764C1143.47 289.764 1144.86 290.344 1146.06 291.504C1147.25 292.664 1147.85 294.056 1147.85 295.68C1147.85 296.774 1147.57 297.777 1147 298.688C1146.45 299.583 1145.73 300.304 1144.84 300.851C1143.94 301.381 1142.96 301.646 1141.88 301.646ZM1198.94 301.646C1197.3 301.646 1195.89 301.066 1194.71 299.906C1193.55 298.73 1192.97 297.321 1192.97 295.68C1192.97 294.056 1193.55 292.664 1194.71 291.504C1195.89 290.344 1197.3 289.764 1198.94 289.764C1200.53 289.764 1201.92 290.344 1203.12 291.504C1204.31 292.664 1204.91 294.056 1204.91 295.68C1204.91 296.774 1204.62 297.777 1204.06 298.688C1203.51 299.583 1202.79 300.304 1201.9 300.851C1201 301.381 1200.02 301.646 1198.94 301.646ZM1256 301.646C1254.36 301.646 1252.95 301.066 1251.77 299.906C1250.61 298.73 1250.03 297.321 1250.03 295.68C1250.03 294.056 1250.61 292.664 1251.77 291.504C1252.95 290.344 1254.36 289.764 1256 289.764C1257.59 289.764 1258.98 290.344 1260.17 291.504C1261.37 292.664 1261.96 294.056 1261.96 295.68C1261.96 296.774 1261.68 297.777 1261.12 298.688C1260.57 299.583 1259.85 300.304 1258.96 300.851C1258.06 301.381 1257.07 301.646 1256 301.646ZM1313.06 301.646C1311.42 301.646 1310.01 301.066 1308.83 299.906C1307.67 298.73 1307.09 297.321 1307.09 295.68C1307.09 294.056 1307.67 292.664 1308.83 291.504C1310.01 290.344 1311.42 289.764 1313.06 289.764C1314.65 289.764 1316.04 290.344 1317.23 291.504C1318.43 292.664 1319.02 294.056 1319.02 295.68C1319.02 296.774 1318.74 297.777 1318.18 298.688C1317.63 299.583 1316.91 300.304 1316.01 300.851C1315.12 301.381 1314.13 301.646 1313.06 301.646ZM1370.11 301.646C1368.47 301.646 1367.06 301.066 1365.89 299.906C1364.73 298.73 1364.15 297.321 1364.15 295.68C1364.15 294.056 1364.73 292.664 1365.89 291.504C1367.06 290.344 1368.47 289.764 1370.11 289.764C1371.7 289.764 1373.1 290.344 1374.29 291.504C1375.48 292.664 1376.08 294.056 1376.08 295.68C1376.08 296.774 1375.8 297.777 1375.23 298.688C1374.69 299.583 1373.97 300.304 1373.07 300.851C1372.18 301.381 1371.19 301.646 1370.11 301.646ZM1427.17 301.646C1425.53 301.646 1424.12 301.066 1422.95 299.906C1421.79 298.73 1421.21 297.321 1421.21 295.68C1421.21 294.056 1421.79 292.664 1422.95 291.504C1424.12 290.344 1425.53 289.764 1427.17 289.764C1428.76 289.764 1430.16 290.344 1431.35 291.504C1432.54 292.664 1433.14 294.056 1433.14 295.68C1433.14 296.774 1432.86 297.777 1432.29 298.688C1431.75 299.583 1431.03 300.304 1430.13 300.851C1429.24 301.381 1428.25 301.646 1427.17 301.646ZM1484.23 301.646C1482.59 301.646 1481.18 301.066 1480 299.906C1478.84 298.73 1478.26 297.321 1478.26 295.68C1478.26 294.056 1478.84 292.664 1480 291.504C1481.18 290.344 1482.59 289.764 1484.23 289.764C1485.82 289.764 1487.21 290.344 1488.41 291.504C1489.6 292.664 1490.2 294.056 1490.2 295.68C1490.2 296.774 1489.91 297.777 1489.35 298.688C1488.8 299.583 1488.08 300.304 1487.19 300.851C1486.29 301.381 1485.31 301.646 1484.23 301.646Z" fill="#F5F5F5"/>
<path d="M685.415 270.646C683.775 270.646 682.366 270.066 681.19 268.906C680.03 267.73 679.45 266.321 679.45 264.68C679.45 263.056 680.03 261.664 681.19 260.504C682.366 259.344 683.775 258.764 685.415 258.764C687.006 258.764 688.398 259.344 689.592 260.504C690.785 261.664 691.381 263.056 691.381 264.68C691.381 265.774 691.1 266.777 690.536 267.688C689.989 268.583 689.268 269.304 688.374 269.851C687.479 270.381 686.493 270.646 685.415 270.646ZM742.474 270.646C740.833 270.646 739.424 270.066 738.248 268.906C737.088 267.73 736.508 266.321 736.508 264.68C736.508 263.056 737.088 261.664 738.248 260.504C739.424 259.344 740.833 258.764 742.474 258.764C744.065 258.764 745.457 259.344 746.65 260.504C747.843 261.664 748.44 263.056 748.44 264.68C748.44 265.774 748.158 266.777 747.594 267.688C747.048 268.583 746.327 269.304 745.432 269.851C744.537 270.381 743.551 270.646 742.474 270.646ZM799.532 270.646C797.891 270.646 796.483 270.066 795.306 268.906C794.146 267.73 793.566 266.321 793.566 264.68C793.566 263.056 794.146 261.664 795.306 260.504C796.483 259.344 797.891 258.764 799.532 258.764C801.123 258.764 802.515 259.344 803.708 260.504C804.901 261.664 805.498 263.056 805.498 264.68C805.498 265.774 805.216 266.777 804.653 267.688C804.106 268.583 803.385 269.304 802.49 269.851C801.595 270.381 800.609 270.646 799.532 270.646ZM856.59 270.646C854.949 270.646 853.541 270.066 852.364 268.906C851.204 267.73 850.624 266.321 850.624 264.68C850.624 263.056 851.204 261.664 852.364 260.504C853.541 259.344 854.949 258.764 856.59 258.764C858.181 258.764 859.573 259.344 860.766 260.504C861.959 261.664 862.556 263.056 862.556 264.68C862.556 265.774 862.274 266.777 861.711 267.688C861.164 268.583 860.443 269.304 859.548 269.851C858.653 270.381 857.667 270.646 856.59 270.646ZM913.648 270.646C912.008 270.646 910.599 270.066 909.422 268.906C908.262 267.73 907.682 266.321 907.682 264.68C907.682 263.056 908.262 261.664 909.422 260.504C910.599 259.344 912.008 258.764 913.648 258.764C915.239 258.764 916.631 259.344 917.824 260.504C919.018 261.664 919.614 263.056 919.614 264.68C919.614 265.774 919.332 266.777 918.769 267.688C918.222 268.583 917.501 269.304 916.606 269.851C915.712 270.381 914.725 270.646 913.648 270.646ZM970.706 270.646C969.066 270.646 967.657 270.066 966.481 268.906C965.321 267.73 964.741 266.321 964.741 264.68C964.741 263.056 965.321 261.664 966.481 260.504C967.657 259.344 969.066 258.764 970.706 258.764C972.297 258.764 973.689 259.344 974.883 260.504C976.076 261.664 976.672 263.056 976.672 264.68C976.672 265.774 976.391 266.777 975.827 267.688C975.28 268.583 974.559 269.304 973.665 269.851C972.77 270.381 971.784 270.646 970.706 270.646ZM1027.76 270.646C1026.12 270.646 1024.72 270.066 1023.54 268.906C1022.38 267.73 1021.8 266.321 1021.8 264.68C1021.8 263.056 1022.38 261.664 1023.54 260.504C1024.72 259.344 1026.12 258.764 1027.76 258.764C1029.36 258.764 1030.75 259.344 1031.94 260.504C1033.13 261.664 1033.73 263.056 1033.73 264.68C1033.73 265.774 1033.45 266.777 1032.89 267.688C1032.34 268.583 1031.62 269.304 1030.72 269.851C1029.83 270.381 1028.84 270.646 1027.76 270.646ZM1084.82 270.646C1083.18 270.646 1081.77 270.066 1080.6 268.906C1079.44 267.73 1078.86 266.321 1078.86 264.68C1078.86 263.056 1079.44 261.664 1080.6 260.504C1081.77 259.344 1083.18 258.764 1084.82 258.764C1086.41 258.764 1087.81 259.344 1089 260.504C1090.19 261.664 1090.79 263.056 1090.79 264.68C1090.79 265.774 1090.51 266.777 1089.94 267.688C1089.4 268.583 1088.68 269.304 1087.78 269.851C1086.89 270.381 1085.9 270.646 1084.82 270.646ZM1141.88 270.646C1140.24 270.646 1138.83 270.066 1137.66 268.906C1136.5 267.73 1135.92 266.321 1135.92 264.68C1135.92 263.056 1136.5 261.664 1137.66 260.504C1138.83 259.344 1140.24 258.764 1141.88 258.764C1143.47 258.764 1144.86 259.344 1146.06 260.504C1147.25 261.664 1147.85 263.056 1147.85 264.68C1147.85 265.774 1147.57 266.777 1147 267.688C1146.45 268.583 1145.73 269.304 1144.84 269.851C1143.94 270.381 1142.96 270.646 1141.88 270.646ZM1198.94 270.646C1197.3 270.646 1195.89 270.066 1194.71 268.906C1193.55 267.73 1192.97 266.321 1192.97 264.68C1192.97 263.056 1193.55 261.664 1194.71 260.504C1195.89 259.344 1197.3 258.764 1198.94 258.764C1200.53 258.764 1201.92 259.344 1203.12 260.504C1204.31 261.664 1204.91 263.056 1204.91 264.68C1204.91 265.774 1204.62 266.777 1204.06 267.688C1203.51 268.583 1202.79 269.304 1201.9 269.851C1201 270.381 1200.02 270.646 1198.94 270.646ZM1256 270.646C1254.36 270.646 1252.95 270.066 1251.77 268.906C1250.61 267.73 1250.03 266.321 1250.03 264.68C1250.03 263.056 1250.61 261.664 1251.77 260.504C1252.95 259.344 1254.36 258.764 1256 258.764C1257.59 258.764 1258.98 259.344 1260.17 260.504C1261.37 261.664 1261.96 263.056 1261.96 264.68C1261.96 265.774 1261.68 266.777 1261.12 267.688C1260.57 268.583 1259.85 269.304 1258.96 269.851C1258.06 270.381 1257.07 270.646 1256 270.646ZM1313.06 270.646C1311.42 270.646 1310.01 270.066 1308.83 268.906C1307.67 267.73 1307.09 266.321 1307.09 264.68C1307.09 263.056 1307.67 261.664 1308.83 260.504C1310.01 259.344 1311.42 258.764 1313.06 258.764C1314.65 258.764 1316.04 259.344 1317.23 260.504C1318.43 261.664 1319.02 263.056 1319.02 264.68C1319.02 265.774 1318.74 266.777 1318.18 267.688C1317.63 268.583 1316.91 269.304 1316.01 269.851C1315.12 270.381 1314.13 270.646 1313.06 270.646ZM1370.11 270.646C1368.47 270.646 1367.06 270.066 1365.89 268.906C1364.73 267.73 1364.15 266.321 1364.15 264.68C1364.15 263.056 1364.73 261.664 1365.89 260.504C1367.06 259.344 1368.47 258.764 1370.11 258.764C1371.7 258.764 1373.1 259.344 1374.29 260.504C1375.48 261.664 1376.08 263.056 1376.08 264.68C1376.08 265.774 1375.8 266.777 1375.23 267.688C1374.69 268.583 1373.97 269.304 1373.07 269.851C1372.18 270.381 1371.19 270.646 1370.11 270.646ZM1427.17 270.646C1425.53 270.646 1424.12 270.066 1422.95 268.906C1421.79 267.73 1421.21 266.321 1421.21 264.68C1421.21 263.056 1421.79 261.664 1422.95 260.504C1424.12 259.344 1425.53 258.764 1427.17 258.764C1428.76 258.764 1430.16 259.344 1431.35 260.504C1432.54 261.664 1433.14 263.056 1433.14 264.68C1433.14 265.774 1432.86 266.777 1432.29 267.688C1431.75 268.583 1431.03 269.304 1430.13 269.851C1429.24 270.381 1428.25 270.646 1427.17 270.646ZM1484.23 270.646C1482.59 270.646 1481.18 270.066 1480 268.906C1478.84 267.73 1478.26 266.321 1478.26 264.68C1478.26 263.056 1478.84 261.664 1480 260.504C1481.18 259.344 1482.59 258.764 1484.23 258.764C1485.82 258.764 1487.21 259.344 1488.41 260.504C1489.6 261.664 1490.2 263.056 1490.2 264.68C1490.2 265.774 1489.91 266.777 1489.35 267.688C1488.8 268.583 1488.08 269.304 1487.19 269.851C1486.29 270.381 1485.31 270.646 1484.23 270.646Z" fill="#F5F5F5"/>
<path d="M685.415 238.646C683.775 238.646 682.366 238.066 681.19 236.906C680.03 235.73 679.45 234.321 679.45 232.68C679.45 231.056 680.03 229.664 681.19 228.504C682.366 227.344 683.775 226.764 685.415 226.764C687.006 226.764 688.398 227.344 689.592 228.504C690.785 229.664 691.381 231.056 691.381 232.68C691.381 233.774 691.1 234.777 690.536 235.688C689.989 236.583 689.268 237.304 688.374 237.851C687.479 238.381 686.493 238.646 685.415 238.646ZM742.474 238.646C740.833 238.646 739.424 238.066 738.248 236.906C737.088 235.73 736.508 234.321 736.508 232.68C736.508 231.056 737.088 229.664 738.248 228.504C739.424 227.344 740.833 226.764 742.474 226.764C744.065 226.764 745.457 227.344 746.65 228.504C747.843 229.664 748.44 231.056 748.44 232.68C748.44 233.774 748.158 234.777 747.594 235.688C747.048 236.583 746.327 237.304 745.432 237.851C744.537 238.381 743.551 238.646 742.474 238.646ZM799.532 238.646C797.891 238.646 796.483 238.066 795.306 236.906C794.146 235.73 793.566 234.321 793.566 232.68C793.566 231.056 794.146 229.664 795.306 228.504C796.483 227.344 797.891 226.764 799.532 226.764C801.123 226.764 802.515 227.344 803.708 228.504C804.901 229.664 805.498 231.056 805.498 232.68C805.498 233.774 805.216 234.777 804.653 235.688C804.106 236.583 803.385 237.304 802.49 237.851C801.595 238.381 800.609 238.646 799.532 238.646ZM856.59 238.646C854.949 238.646 853.541 238.066 852.364 236.906C851.204 235.73 850.624 234.321 850.624 232.68C850.624 231.056 851.204 229.664 852.364 228.504C853.541 227.344 854.949 226.764 856.59 226.764C858.181 226.764 859.573 227.344 860.766 228.504C861.959 229.664 862.556 231.056 862.556 232.68C862.556 233.774 862.274 234.777 861.711 235.688C861.164 236.583 860.443 237.304 859.548 237.851C858.653 238.381 857.667 238.646 856.59 238.646ZM913.648 238.646C912.008 238.646 910.599 238.066 909.422 236.906C908.262 235.73 907.682 234.321 907.682 232.68C907.682 231.056 908.262 229.664 909.422 228.504C910.599 227.344 912.008 226.764 913.648 226.764C915.239 226.764 916.631 227.344 917.824 228.504C919.018 229.664 919.614 231.056 919.614 232.68C919.614 233.774 919.332 234.777 918.769 235.688C918.222 236.583 917.501 237.304 916.606 237.851C915.712 238.381 914.725 238.646 913.648 238.646ZM970.706 238.646C969.066 238.646 967.657 238.066 966.481 236.906C965.321 235.73 964.741 234.321 964.741 232.68C964.741 231.056 965.321 229.664 966.481 228.504C967.657 227.344 969.066 226.764 970.706 226.764C972.297 226.764 973.689 227.344 974.883 228.504C976.076 229.664 976.672 231.056 976.672 232.68C976.672 233.774 976.391 234.777 975.827 235.688C975.28 236.583 974.559 237.304 973.665 237.851C972.77 238.381 971.784 238.646 970.706 238.646ZM1027.76 238.646C1026.12 238.646 1024.72 238.066 1023.54 236.906C1022.38 235.73 1021.8 234.321 1021.8 232.68C1021.8 231.056 1022.38 229.664 1023.54 228.504C1024.72 227.344 1026.12 226.764 1027.76 226.764C1029.36 226.764 1030.75 227.344 1031.94 228.504C1033.13 229.664 1033.73 231.056 1033.73 232.68C1033.73 233.774 1033.45 234.777 1032.89 235.688C1032.34 236.583 1031.62 237.304 1030.72 237.851C1029.83 238.381 1028.84 238.646 1027.76 238.646ZM1084.82 238.646C1083.18 238.646 1081.77 238.066 1080.6 236.906C1079.44 235.73 1078.86 234.321 1078.86 232.68C1078.86 231.056 1079.44 229.664 1080.6 228.504C1081.77 227.344 1083.18 226.764 1084.82 226.764C1086.41 226.764 1087.81 227.344 1089 228.504C1090.19 229.664 1090.79 231.056 1090.79 232.68C1090.79 233.774 1090.51 234.777 1089.94 235.688C1089.4 236.583 1088.68 237.304 1087.78 237.851C1086.89 238.381 1085.9 238.646 1084.82 238.646ZM1141.88 238.646C1140.24 238.646 1138.83 238.066 1137.66 236.906C1136.5 235.73 1135.92 234.321 1135.92 232.68C1135.92 231.056 1136.5 229.664 1137.66 228.504C1138.83 227.344 1140.24 226.764 1141.88 226.764C1143.47 226.764 1144.86 227.344 1146.06 228.504C1147.25 229.664 1147.85 231.056 1147.85 232.68C1147.85 233.774 1147.57 234.777 1147 235.688C1146.45 236.583 1145.73 237.304 1144.84 237.851C1143.94 238.381 1142.96 238.646 1141.88 238.646ZM1198.94 238.646C1197.3 238.646 1195.89 238.066 1194.71 236.906C1193.55 235.73 1192.97 234.321 1192.97 232.68C1192.97 231.056 1193.55 229.664 1194.71 228.504C1195.89 227.344 1197.3 226.764 1198.94 226.764C1200.53 226.764 1201.92 227.344 1203.12 228.504C1204.31 229.664 1204.91 231.056 1204.91 232.68C1204.91 233.774 1204.62 234.777 1204.06 235.688C1203.51 236.583 1202.79 237.304 1201.9 237.851C1201 238.381 1200.02 238.646 1198.94 238.646ZM1256 238.646C1254.36 238.646 1252.95 238.066 1251.77 236.906C1250.61 235.73 1250.03 234.321 1250.03 232.68C1250.03 231.056 1250.61 229.664 1251.77 228.504C1252.95 227.344 1254.36 226.764 1256 226.764C1257.59 226.764 1258.98 227.344 1260.17 228.504C1261.37 229.664 1261.96 231.056 1261.96 232.68C1261.96 233.774 1261.68 234.777 1261.12 235.688C1260.57 236.583 1259.85 237.304 1258.96 237.851C1258.06 238.381 1257.07 238.646 1256 238.646ZM1313.06 238.646C1311.42 238.646 1310.01 238.066 1308.83 236.906C1307.67 235.73 1307.09 234.321 1307.09 232.68C1307.09 231.056 1307.67 229.664 1308.83 228.504C1310.01 227.344 1311.42 226.764 1313.06 226.764C1314.65 226.764 1316.04 227.344 1317.23 228.504C1318.43 229.664 1319.02 231.056 1319.02 232.68C1319.02 233.774 1318.74 234.777 1318.18 235.688C1317.63 236.583 1316.91 237.304 1316.01 237.851C1315.12 238.381 1314.13 238.646 1313.06 238.646ZM1370.11 238.646C1368.47 238.646 1367.06 238.066 1365.89 236.906C1364.73 235.73 1364.15 234.321 1364.15 232.68C1364.15 231.056 1364.73 229.664 1365.89 228.504C1367.06 227.344 1368.47 226.764 1370.11 226.764C1371.7 226.764 1373.1 227.344 1374.29 228.504C1375.48 229.664 1376.08 231.056 1376.08 232.68C1376.08 233.774 1375.8 234.777 1375.23 235.688C1374.69 236.583 1373.97 237.304 1373.07 237.851C1372.18 238.381 1371.19 238.646 1370.11 238.646ZM1427.17 238.646C1425.53 238.646 1424.12 238.066 1422.95 236.906C1421.79 235.73 1421.21 234.321 1421.21 232.68C1421.21 231.056 1421.79 229.664 1422.95 228.504C1424.12 227.344 1425.53 226.764 1427.17 226.764C1428.76 226.764 1430.16 227.344 1431.35 228.504C1432.54 229.664 1433.14 231.056 1433.14 232.68C1433.14 233.774 1432.86 234.777 1432.29 235.688C1431.75 236.583 1431.03 237.304 1430.13 237.851C1429.24 238.381 1428.25 238.646 1427.17 238.646ZM1484.23 238.646C1482.59 238.646 1481.18 238.066 1480 236.906C1478.84 235.73 1478.26 234.321 1478.26 232.68C1478.26 231.056 1478.84 229.664 1480 228.504C1481.18 227.344 1482.59 226.764 1484.23 226.764C1485.82 226.764 1487.21 227.344 1488.41 228.504C1489.6 229.664 1490.2 231.056 1490.2 232.68C1490.2 233.774 1489.91 234.777 1489.35 235.688C1488.8 236.583 1488.08 237.304 1487.19 237.851C1486.29 238.381 1485.31 238.646 1484.23 238.646Z" fill="#F5F5F5"/>
<path d="M685.415 203.646C683.775 203.646 682.366 203.066 681.19 201.906C680.03 200.73 679.45 199.321 679.45 197.68C679.45 196.056 680.03 194.664 681.19 193.504C682.366 192.344 683.775 191.764 685.415 191.764C687.006 191.764 688.398 192.344 689.592 193.504C690.785 194.664 691.381 196.056 691.381 197.68C691.381 198.774 691.1 199.777 690.536 200.688C689.989 201.583 689.268 202.304 688.374 202.851C687.479 203.381 686.493 203.646 685.415 203.646ZM742.474 203.646C740.833 203.646 739.424 203.066 738.248 201.906C737.088 200.73 736.508 199.321 736.508 197.68C736.508 196.056 737.088 194.664 738.248 193.504C739.424 192.344 740.833 191.764 742.474 191.764C744.065 191.764 745.457 192.344 746.65 193.504C747.843 194.664 748.44 196.056 748.44 197.68C748.44 198.774 748.158 199.777 747.594 200.688C747.048 201.583 746.327 202.304 745.432 202.851C744.537 203.381 743.551 203.646 742.474 203.646ZM799.532 203.646C797.891 203.646 796.483 203.066 795.306 201.906C794.146 200.73 793.566 199.321 793.566 197.68C793.566 196.056 794.146 194.664 795.306 193.504C796.483 192.344 797.891 191.764 799.532 191.764C801.123 191.764 802.515 192.344 803.708 193.504C804.901 194.664 805.498 196.056 805.498 197.68C805.498 198.774 805.216 199.777 804.653 200.688C804.106 201.583 803.385 202.304 802.49 202.851C801.595 203.381 800.609 203.646 799.532 203.646ZM856.59 203.646C854.949 203.646 853.541 203.066 852.364 201.906C851.204 200.73 850.624 199.321 850.624 197.68C850.624 196.056 851.204 194.664 852.364 193.504C853.541 192.344 854.949 191.764 856.59 191.764C858.181 191.764 859.573 192.344 860.766 193.504C861.959 194.664 862.556 196.056 862.556 197.68C862.556 198.774 862.274 199.777 861.711 200.688C861.164 201.583 860.443 202.304 859.548 202.851C858.653 203.381 857.667 203.646 856.59 203.646ZM913.648 203.646C912.008 203.646 910.599 203.066 909.422 201.906C908.262 200.73 907.682 199.321 907.682 197.68C907.682 196.056 908.262 194.664 909.422 193.504C910.599 192.344 912.008 191.764 913.648 191.764C915.239 191.764 916.631 192.344 917.824 193.504C919.018 194.664 919.614 196.056 919.614 197.68C919.614 198.774 919.332 199.777 918.769 200.688C918.222 201.583 917.501 202.304 916.606 202.851C915.712 203.381 914.725 203.646 913.648 203.646ZM970.706 203.646C969.066 203.646 967.657 203.066 966.481 201.906C965.321 200.73 964.741 199.321 964.741 197.68C964.741 196.056 965.321 194.664 966.481 193.504C967.657 192.344 969.066 191.764 970.706 191.764C972.297 191.764 973.689 192.344 974.883 193.504C976.076 194.664 976.672 196.056 976.672 197.68C976.672 198.774 976.391 199.777 975.827 200.688C975.28 201.583 974.559 202.304 973.665 202.851C972.77 203.381 971.784 203.646 970.706 203.646ZM1027.76 203.646C1026.12 203.646 1024.72 203.066 1023.54 201.906C1022.38 200.73 1021.8 199.321 1021.8 197.68C1021.8 196.056 1022.38 194.664 1023.54 193.504C1024.72 192.344 1026.12 191.764 1027.76 191.764C1029.36 191.764 1030.75 192.344 1031.94 193.504C1033.13 194.664 1033.73 196.056 1033.73 197.68C1033.73 198.774 1033.45 199.777 1032.89 200.688C1032.34 201.583 1031.62 202.304 1030.72 202.851C1029.83 203.381 1028.84 203.646 1027.76 203.646ZM1084.82 203.646C1083.18 203.646 1081.77 203.066 1080.6 201.906C1079.44 200.73 1078.86 199.321 1078.86 197.68C1078.86 196.056 1079.44 194.664 1080.6 193.504C1081.77 192.344 1083.18 191.764 1084.82 191.764C1086.41 191.764 1087.81 192.344 1089 193.504C1090.19 194.664 1090.79 196.056 1090.79 197.68C1090.79 198.774 1090.51 199.777 1089.94 200.688C1089.4 201.583 1088.68 202.304 1087.78 202.851C1086.89 203.381 1085.9 203.646 1084.82 203.646ZM1141.88 203.646C1140.24 203.646 1138.83 203.066 1137.66 201.906C1136.5 200.73 1135.92 199.321 1135.92 197.68C1135.92 196.056 1136.5 194.664 1137.66 193.504C1138.83 192.344 1140.24 191.764 1141.88 191.764C1143.47 191.764 1144.86 192.344 1146.06 193.504C1147.25 194.664 1147.85 196.056 1147.85 197.68C1147.85 198.774 1147.57 199.777 1147 200.688C1146.45 201.583 1145.73 202.304 1144.84 202.851C1143.94 203.381 1142.96 203.646 1141.88 203.646ZM1198.94 203.646C1197.3 203.646 1195.89 203.066 1194.71 201.906C1193.55 200.73 1192.97 199.321 1192.97 197.68C1192.97 196.056 1193.55 194.664 1194.71 193.504C1195.89 192.344 1197.3 191.764 1198.94 191.764C1200.53 191.764 1201.92 192.344 1203.12 193.504C1204.31 194.664 1204.91 196.056 1204.91 197.68C1204.91 198.774 1204.62 199.777 1204.06 200.688C1203.51 201.583 1202.79 202.304 1201.9 202.851C1201 203.381 1200.02 203.646 1198.94 203.646ZM1256 203.646C1254.36 203.646 1252.95 203.066 1251.77 201.906C1250.61 200.73 1250.03 199.321 1250.03 197.68C1250.03 196.056 1250.61 194.664 1251.77 193.504C1252.95 192.344 1254.36 191.764 1256 191.764C1257.59 191.764 1258.98 192.344 1260.17 193.504C1261.37 194.664 1261.96 196.056 1261.96 197.68C1261.96 198.774 1261.68 199.777 1261.12 200.688C1260.57 201.583 1259.85 202.304 1258.96 202.851C1258.06 203.381 1257.07 203.646 1256 203.646ZM1313.06 203.646C1311.42 203.646 1310.01 203.066 1308.83 201.906C1307.67 200.73 1307.09 199.321 1307.09 197.68C1307.09 196.056 1307.67 194.664 1308.83 193.504C1310.01 192.344 1311.42 191.764 1313.06 191.764C1314.65 191.764 1316.04 192.344 1317.23 193.504C1318.43 194.664 1319.02 196.056 1319.02 197.68C1319.02 198.774 1318.74 199.777 1318.18 200.688C1317.63 201.583 1316.91 202.304 1316.01 202.851C1315.12 203.381 1314.13 203.646 1313.06 203.646ZM1370.11 203.646C1368.47 203.646 1367.06 203.066 1365.89 201.906C1364.73 200.73 1364.15 199.321 1364.15 197.68C1364.15 196.056 1364.73 194.664 1365.89 193.504C1367.06 192.344 1368.47 191.764 1370.11 191.764C1371.7 191.764 1373.1 192.344 1374.29 193.504C1375.48 194.664 1376.08 196.056 1376.08 197.68C1376.08 198.774 1375.8 199.777 1375.23 200.688C1374.69 201.583 1373.97 202.304 1373.07 202.851C1372.18 203.381 1371.19 203.646 1370.11 203.646ZM1427.17 203.646C1425.53 203.646 1424.12 203.066 1422.95 201.906C1421.79 200.73 1421.21 199.321 1421.21 197.68C1421.21 196.056 1421.79 194.664 1422.95 193.504C1424.12 192.344 1425.53 191.764 1427.17 191.764C1428.76 191.764 1430.16 192.344 1431.35 193.504C1432.54 194.664 1433.14 196.056 1433.14 197.68C1433.14 198.774 1432.86 199.777 1432.29 200.688C1431.75 201.583 1431.03 202.304 1430.13 202.851C1429.24 203.381 1428.25 203.646 1427.17 203.646ZM1484.23 203.646C1482.59 203.646 1481.18 203.066 1480 201.906C1478.84 200.73 1478.26 199.321 1478.26 197.68C1478.26 196.056 1478.84 194.664 1480 193.504C1481.18 192.344 1482.59 191.764 1484.23 191.764C1485.82 191.764 1487.21 192.344 1488.41 193.504C1489.6 194.664 1490.2 196.056 1490.2 197.68C1490.2 198.774 1489.91 199.777 1489.35 200.688C1488.8 201.583 1488.08 202.304 1487.19 202.851C1486.29 203.381 1485.31 203.646 1484.23 203.646Z" fill="#F5F5F5"/>
<path d="M8.90234 163L0.980546 478.611L181.922 475.111L8.90234 163Z" fill="#242537" fill-opacity="0.5"/>
<path d="M97.9023 77L89.9805 392.611L270.922 389.111L97.9023 77Z" fill="#242537" fill-opacity="0.5"/>
<path d="M159.902 353L151.981 668.611L332.922 665.111L159.902 353Z" fill="#242537" fill-opacity="0.5"/>
<path d="M191.902 26L183.981 341.611L364.922 338.111L191.902 26Z" fill="#242537" fill-opacity="0.5"/>
<path d="M241.902 235L233.981 550.611L414.922 547.111L241.902 235Z" fill="#242537" fill-opacity="0.5"/>
<path d="M280.902 476L272.981 791.611L453.922 788.111L280.902 476Z" fill="#242537" fill-opacity="0.5"/>
<path d="M384.902 587L376.981 902.611L557.922 899.111L384.902 587Z" fill="#242537" fill-opacity="0.5"/>
<path d="M255.902 -90L247.981 225.611L428.922 222.111L255.902 -90Z" fill="#242537" fill-opacity="0.5"/>
<path d="M337.902 173L329.981 488.611L510.922 485.111L337.902 173Z" fill="#242537" fill-opacity="0.5"/>
<path d="M405.902 405L397.981 720.611L578.922 717.111L405.902 405Z" fill="#242537" fill-opacity="0.5"/>
<path d="M520.902 637L512.981 952.611L693.922 949.111L520.902 637Z" fill="#242537" fill-opacity="0.5"/>
<path d="M12.6019 451.544L186.3 451.544L13.8321 298.714L12.6019 451.544Z" fill="#242537"/>
<path d="M101.602 365.544L275.3 365.544L102.832 212.714L101.602 365.544Z" fill="#242537"/>
<path d="M163.602 641.544L337.3 641.544L164.832 488.714L163.602 641.544Z" fill="#242537"/>
<path d="M195.602 314.544L369.3 314.544L196.832 161.714L195.602 314.544Z" fill="#242537"/>
<path d="M245.602 523.544L419.3 523.544L246.832 370.714L245.602 523.544Z" fill="#242537"/>
<path d="M284.602 764.544L458.3 764.544L285.832 611.714L284.602 764.544Z" fill="#242537"/>
<path d="M388.602 875.544L562.3 875.544L389.832 722.714L388.602 875.544Z" fill="#242537"/>
<path d="M259.602 198.544L433.3 198.544L260.832 45.7138L259.602 198.544Z" fill="#242537"/>
<path d="M341.602 461.544L515.3 461.544L342.832 308.714L341.602 461.544Z" fill="#242537"/>
<path d="M409.602 693.544L583.3 693.544L410.832 540.714L409.602 693.544Z" fill="#242537"/>
<path d="M524.602 928.544L698.3 928.544L525.832 775.714L524.602 928.544Z" fill="#242537"/>
</svg>
