<svg width="2401" height="1084" viewBox="0 0 2401 1084" fill="none" xmlns="http://www.w3.org/2000/svg">
<path d="M1172.66 -4L2393 -4V1161L1172.66 1161L923.641 672.5C830.786 507.5 830.786 499.5 923.641 350.5L1172.66 -4Z" fill="#D9D9D9"/>
<path opacity="0.48" d="M2578 743C2578 852.352 2489.35 941 2380 941C2270.65 941 2182 852.352 2182 743C2182 633.648 2270.65 545 2380 545C2489.35 545 2578 633.648 2578 743ZM2302.34 743C2302.34 785.892 2337.11 820.663 2380 820.663C2422.89 820.663 2457.66 785.892 2457.66 743C2457.66 700.108 2422.89 665.337 2380 665.337C2337.11 665.337 2302.34 700.108 2302.34 743Z" fill="#F1F1F1"/>
<path d="M1980.42 498.646C1978.77 498.646 1977.37 498.066 1976.19 496.906C1975.03 495.73 1974.45 494.321 1974.45 492.68C1974.45 491.056 1975.03 489.664 1976.19 488.504C1977.37 487.344 1978.77 486.764 1980.42 486.764C1982.01 486.764 1983.4 487.344 1984.59 488.504C1985.78 489.664 1986.38 491.056 1986.38 492.68C1986.38 493.774 1986.1 494.777 1985.54 495.688C1984.99 496.583 1984.27 497.304 1983.37 497.851C1982.48 498.381 1981.49 498.646 1980.42 498.646ZM2037.47 498.646C2035.83 498.646 2034.42 498.066 2033.25 496.906C2032.09 495.73 2031.51 494.321 2031.51 492.68C2031.51 491.056 2032.09 489.664 2033.25 488.504C2034.42 487.344 2035.83 486.764 2037.47 486.764C2039.06 486.764 2040.46 487.344 2041.65 488.504C2042.84 489.664 2043.44 491.056 2043.44 492.68C2043.44 493.774 2043.16 494.777 2042.59 495.688C2042.05 496.583 2041.33 497.304 2040.43 497.851C2039.54 498.381 2038.55 498.646 2037.47 498.646ZM2094.53 498.646C2092.89 498.646 2091.48 498.066 2090.31 496.906C2089.15 495.73 2088.57 494.321 2088.57 492.68C2088.57 491.056 2089.15 489.664 2090.31 488.504C2091.48 487.344 2092.89 486.764 2094.53 486.764C2096.12 486.764 2097.51 487.344 2098.71 488.504C2099.9 489.664 2100.5 491.056 2100.5 492.68C2100.5 493.774 2100.22 494.777 2099.65 495.688C2099.11 496.583 2098.38 497.304 2097.49 497.851C2096.6 498.381 2095.61 498.646 2094.53 498.646ZM2151.59 498.646C2149.95 498.646 2148.54 498.066 2147.36 496.906C2146.2 495.73 2145.62 494.321 2145.62 492.68C2145.62 491.056 2146.2 489.664 2147.36 488.504C2148.54 487.344 2149.95 486.764 2151.59 486.764C2153.18 486.764 2154.57 487.344 2155.77 488.504C2156.96 489.664 2157.56 491.056 2157.56 492.68C2157.56 493.774 2157.27 494.777 2156.71 495.688C2156.16 496.583 2155.44 497.304 2154.55 497.851C2153.65 498.381 2152.67 498.646 2151.59 498.646ZM2208.65 498.646C2207.01 498.646 2205.6 498.066 2204.42 496.906C2203.26 495.73 2202.68 494.321 2202.68 492.68C2202.68 491.056 2203.26 489.664 2204.42 488.504C2205.6 487.344 2207.01 486.764 2208.65 486.764C2210.24 486.764 2211.63 487.344 2212.82 488.504C2214.02 489.664 2214.61 491.056 2214.61 492.68C2214.61 493.774 2214.33 494.777 2213.77 495.688C2213.22 496.583 2212.5 497.304 2211.61 497.851C2210.71 498.381 2209.73 498.646 2208.65 498.646ZM2265.71 498.646C2264.07 498.646 2262.66 498.066 2261.48 496.906C2260.32 495.73 2259.74 494.321 2259.74 492.68C2259.74 491.056 2260.32 489.664 2261.48 488.504C2262.66 487.344 2264.07 486.764 2265.71 486.764C2267.3 486.764 2268.69 487.344 2269.88 488.504C2271.08 489.664 2271.67 491.056 2271.67 492.68C2271.67 493.774 2271.39 494.777 2270.83 495.688C2270.28 496.583 2269.56 497.304 2268.66 497.851C2267.77 498.381 2266.78 498.646 2265.71 498.646ZM2322.76 498.646C2321.12 498.646 2319.72 498.066 2318.54 496.906C2317.38 495.73 2316.8 494.321 2316.8 492.68C2316.8 491.056 2317.38 489.664 2318.54 488.504C2319.72 487.344 2321.12 486.764 2322.76 486.764C2324.36 486.764 2325.75 487.344 2326.94 488.504C2328.13 489.664 2328.73 491.056 2328.73 492.68C2328.73 493.774 2328.45 494.777 2327.89 495.688C2327.34 496.583 2326.62 497.304 2325.72 497.851C2324.83 498.381 2323.84 498.646 2322.76 498.646ZM2379.82 498.646C2378.18 498.646 2376.77 498.066 2375.6 496.906C2374.44 495.73 2373.86 494.321 2373.86 492.68C2373.86 491.056 2374.44 489.664 2375.6 488.504C2376.77 487.344 2378.18 486.764 2379.82 486.764C2381.41 486.764 2382.81 487.344 2384 488.504C2385.19 489.664 2385.79 491.056 2385.79 492.68C2385.79 493.774 2385.51 494.777 2384.94 495.688C2384.4 496.583 2383.68 497.304 2382.78 497.851C2381.89 498.381 2380.9 498.646 2379.82 498.646ZM2436.88 498.646C2435.24 498.646 2433.83 498.066 2432.66 496.906C2431.5 495.73 2430.92 494.321 2430.92 492.68C2430.92 491.056 2431.5 489.664 2432.66 488.504C2433.83 487.344 2435.24 486.764 2436.88 486.764C2438.47 486.764 2439.86 487.344 2441.06 488.504C2442.25 489.664 2442.85 491.056 2442.85 492.68C2442.85 493.774 2442.57 494.777 2442 495.688C2441.45 496.583 2440.73 497.304 2439.84 497.851C2438.94 498.381 2437.96 498.646 2436.88 498.646ZM2493.94 498.646C2492.3 498.646 2490.89 498.066 2489.71 496.906C2488.55 495.73 2487.97 494.321 2487.97 492.68C2487.97 491.056 2488.55 489.664 2489.71 488.504C2490.89 487.344 2492.3 486.764 2493.94 486.764C2495.53 486.764 2496.92 487.344 2498.12 488.504C2499.31 489.664 2499.91 491.056 2499.91 492.68C2499.91 493.774 2499.62 494.777 2499.06 495.688C2498.51 496.583 2497.79 497.304 2496.9 497.851C2496 498.381 2495.02 498.646 2493.94 498.646ZM2551 498.646C2549.36 498.646 2547.95 498.066 2546.77 496.906C2545.61 495.73 2545.03 494.321 2545.03 492.68C2545.03 491.056 2545.61 489.664 2546.77 488.504C2547.95 487.344 2549.36 486.764 2551 486.764C2552.59 486.764 2553.98 487.344 2555.17 488.504C2556.37 489.664 2556.96 491.056 2556.96 492.68C2556.96 493.774 2556.68 494.777 2556.12 495.688C2555.57 496.583 2554.85 497.304 2553.96 497.851C2553.06 498.381 2552.07 498.646 2551 498.646ZM2608.06 498.646C2606.42 498.646 2605.01 498.066 2603.83 496.906C2602.67 495.73 2602.09 494.321 2602.09 492.68C2602.09 491.056 2602.67 489.664 2603.83 488.504C2605.01 487.344 2606.42 486.764 2608.06 486.764C2609.65 486.764 2611.04 487.344 2612.23 488.504C2613.43 489.664 2614.02 491.056 2614.02 492.68C2614.02 493.774 2613.74 494.777 2613.18 495.688C2612.63 496.583 2611.91 497.304 2611.01 497.851C2610.12 498.381 2609.13 498.646 2608.06 498.646ZM2665.11 498.646C2663.47 498.646 2662.06 498.066 2660.89 496.906C2659.73 495.73 2659.15 494.321 2659.15 492.68C2659.15 491.056 2659.73 489.664 2660.89 488.504C2662.06 487.344 2663.47 486.764 2665.11 486.764C2666.7 486.764 2668.1 487.344 2669.29 488.504C2670.48 489.664 2671.08 491.056 2671.08 492.68C2671.08 493.774 2670.8 494.777 2670.23 495.688C2669.69 496.583 2668.97 497.304 2668.07 497.851C2667.18 498.381 2666.19 498.646 2665.11 498.646ZM2722.17 498.646C2720.53 498.646 2719.12 498.066 2717.95 496.906C2716.79 495.73 2716.21 494.321 2716.21 492.68C2716.21 491.056 2716.79 489.664 2717.95 488.504C2719.12 487.344 2720.53 486.764 2722.17 486.764C2723.76 486.764 2725.16 487.344 2726.35 488.504C2727.54 489.664 2728.14 491.056 2728.14 492.68C2728.14 493.774 2727.86 494.777 2727.29 495.688C2726.75 496.583 2726.03 497.304 2725.13 497.851C2724.24 498.381 2723.25 498.646 2722.17 498.646ZM2779.23 498.646C2777.59 498.646 2776.18 498.066 2775 496.906C2773.84 495.73 2773.26 494.321 2773.26 492.68C2773.26 491.056 2773.84 489.664 2775 488.504C2776.18 487.344 2777.59 486.764 2779.23 486.764C2780.82 486.764 2782.21 487.344 2783.41 488.504C2784.6 489.664 2785.2 491.056 2785.2 492.68C2785.2 493.774 2784.91 494.777 2784.35 495.688C2783.8 496.583 2783.08 497.304 2782.19 497.851C2781.29 498.381 2780.31 498.646 2779.23 498.646Z" fill="#F5F5F5"/>
<path d="M1980.42 466.646C1978.77 466.646 1977.37 466.066 1976.19 464.906C1975.03 463.73 1974.45 462.321 1974.45 460.68C1974.45 459.056 1975.03 457.664 1976.19 456.504C1977.37 455.344 1978.77 454.764 1980.42 454.764C1982.01 454.764 1983.4 455.344 1984.59 456.504C1985.78 457.664 1986.38 459.056 1986.38 460.68C1986.38 461.774 1986.1 462.777 1985.54 463.688C1984.99 464.583 1984.27 465.304 1983.37 465.851C1982.48 466.381 1981.49 466.646 1980.42 466.646ZM2037.47 466.646C2035.83 466.646 2034.42 466.066 2033.25 464.906C2032.09 463.73 2031.51 462.321 2031.51 460.68C2031.51 459.056 2032.09 457.664 2033.25 456.504C2034.42 455.344 2035.83 454.764 2037.47 454.764C2039.06 454.764 2040.46 455.344 2041.65 456.504C2042.84 457.664 2043.44 459.056 2043.44 460.68C2043.44 461.774 2043.16 462.777 2042.59 463.688C2042.05 464.583 2041.33 465.304 2040.43 465.851C2039.54 466.381 2038.55 466.646 2037.47 466.646ZM2094.53 466.646C2092.89 466.646 2091.48 466.066 2090.31 464.906C2089.15 463.73 2088.57 462.321 2088.57 460.68C2088.57 459.056 2089.15 457.664 2090.31 456.504C2091.48 455.344 2092.89 454.764 2094.53 454.764C2096.12 454.764 2097.51 455.344 2098.71 456.504C2099.9 457.664 2100.5 459.056 2100.5 460.68C2100.5 461.774 2100.22 462.777 2099.65 463.688C2099.11 464.583 2098.38 465.304 2097.49 465.851C2096.6 466.381 2095.61 466.646 2094.53 466.646ZM2151.59 466.646C2149.95 466.646 2148.54 466.066 2147.36 464.906C2146.2 463.73 2145.62 462.321 2145.62 460.68C2145.62 459.056 2146.2 457.664 2147.36 456.504C2148.54 455.344 2149.95 454.764 2151.59 454.764C2153.18 454.764 2154.57 455.344 2155.77 456.504C2156.96 457.664 2157.56 459.056 2157.56 460.68C2157.56 461.774 2157.27 462.777 2156.71 463.688C2156.16 464.583 2155.44 465.304 2154.55 465.851C2153.65 466.381 2152.67 466.646 2151.59 466.646ZM2208.65 466.646C2207.01 466.646 2205.6 466.066 2204.42 464.906C2203.26 463.73 2202.68 462.321 2202.68 460.68C2202.68 459.056 2203.26 457.664 2204.42 456.504C2205.6 455.344 2207.01 454.764 2208.65 454.764C2210.24 454.764 2211.63 455.344 2212.82 456.504C2214.02 457.664 2214.61 459.056 2214.61 460.68C2214.61 461.774 2214.33 462.777 2213.77 463.688C2213.22 464.583 2212.5 465.304 2211.61 465.851C2210.71 466.381 2209.73 466.646 2208.65 466.646ZM2265.71 466.646C2264.07 466.646 2262.66 466.066 2261.48 464.906C2260.32 463.73 2259.74 462.321 2259.74 460.68C2259.74 459.056 2260.32 457.664 2261.48 456.504C2262.66 455.344 2264.07 454.764 2265.71 454.764C2267.3 454.764 2268.69 455.344 2269.88 456.504C2271.08 457.664 2271.67 459.056 2271.67 460.68C2271.67 461.774 2271.39 462.777 2270.83 463.688C2270.28 464.583 2269.56 465.304 2268.66 465.851C2267.77 466.381 2266.78 466.646 2265.71 466.646ZM2322.76 466.646C2321.12 466.646 2319.72 466.066 2318.54 464.906C2317.38 463.73 2316.8 462.321 2316.8 460.68C2316.8 459.056 2317.38 457.664 2318.54 456.504C2319.72 455.344 2321.12 454.764 2322.76 454.764C2324.36 454.764 2325.75 455.344 2326.94 456.504C2328.13 457.664 2328.73 459.056 2328.73 460.68C2328.73 461.774 2328.45 462.777 2327.89 463.688C2327.34 464.583 2326.62 465.304 2325.72 465.851C2324.83 466.381 2323.84 466.646 2322.76 466.646ZM2379.82 466.646C2378.18 466.646 2376.77 466.066 2375.6 464.906C2374.44 463.73 2373.86 462.321 2373.86 460.68C2373.86 459.056 2374.44 457.664 2375.6 456.504C2376.77 455.344 2378.18 454.764 2379.82 454.764C2381.41 454.764 2382.81 455.344 2384 456.504C2385.19 457.664 2385.79 459.056 2385.79 460.68C2385.79 461.774 2385.51 462.777 2384.94 463.688C2384.4 464.583 2383.68 465.304 2382.78 465.851C2381.89 466.381 2380.9 466.646 2379.82 466.646ZM2436.88 466.646C2435.24 466.646 2433.83 466.066 2432.66 464.906C2431.5 463.73 2430.92 462.321 2430.92 460.68C2430.92 459.056 2431.5 457.664 2432.66 456.504C2433.83 455.344 2435.24 454.764 2436.88 454.764C2438.47 454.764 2439.86 455.344 2441.06 456.504C2442.25 457.664 2442.85 459.056 2442.85 460.68C2442.85 461.774 2442.57 462.777 2442 463.688C2441.45 464.583 2440.73 465.304 2439.84 465.851C2438.94 466.381 2437.96 466.646 2436.88 466.646ZM2493.94 466.646C2492.3 466.646 2490.89 466.066 2489.71 464.906C2488.55 463.73 2487.97 462.321 2487.97 460.68C2487.97 459.056 2488.55 457.664 2489.71 456.504C2490.89 455.344 2492.3 454.764 2493.94 454.764C2495.53 454.764 2496.92 455.344 2498.12 456.504C2499.31 457.664 2499.91 459.056 2499.91 460.68C2499.91 461.774 2499.62 462.777 2499.06 463.688C2498.51 464.583 2497.79 465.304 2496.9 465.851C2496 466.381 2495.02 466.646 2493.94 466.646ZM2551 466.646C2549.36 466.646 2547.95 466.066 2546.77 464.906C2545.61 463.73 2545.03 462.321 2545.03 460.68C2545.03 459.056 2545.61 457.664 2546.77 456.504C2547.95 455.344 2549.36 454.764 2551 454.764C2552.59 454.764 2553.98 455.344 2555.17 456.504C2556.37 457.664 2556.96 459.056 2556.96 460.68C2556.96 461.774 2556.68 462.777 2556.12 463.688C2555.57 464.583 2554.85 465.304 2553.96 465.851C2553.06 466.381 2552.07 466.646 2551 466.646ZM2608.06 466.646C2606.42 466.646 2605.01 466.066 2603.83 464.906C2602.67 463.73 2602.09 462.321 2602.09 460.68C2602.09 459.056 2602.67 457.664 2603.83 456.504C2605.01 455.344 2606.42 454.764 2608.06 454.764C2609.65 454.764 2611.04 455.344 2612.23 456.504C2613.43 457.664 2614.02 459.056 2614.02 460.68C2614.02 461.774 2613.74 462.777 2613.18 463.688C2612.63 464.583 2611.91 465.304 2611.01 465.851C2610.12 466.381 2609.13 466.646 2608.06 466.646ZM2665.11 466.646C2663.47 466.646 2662.06 466.066 2660.89 464.906C2659.73 463.73 2659.15 462.321 2659.15 460.68C2659.15 459.056 2659.73 457.664 2660.89 456.504C2662.06 455.344 2663.47 454.764 2665.11 454.764C2666.7 454.764 2668.1 455.344 2669.29 456.504C2670.48 457.664 2671.08 459.056 2671.08 460.68C2671.08 461.774 2670.8 462.777 2670.23 463.688C2669.69 464.583 2668.97 465.304 2668.07 465.851C2667.18 466.381 2666.19 466.646 2665.11 466.646ZM2722.17 466.646C2720.53 466.646 2719.12 466.066 2717.95 464.906C2716.79 463.73 2716.21 462.321 2716.21 460.68C2716.21 459.056 2716.79 457.664 2717.95 456.504C2719.12 455.344 2720.53 454.764 2722.17 454.764C2723.76 454.764 2725.16 455.344 2726.35 456.504C2727.54 457.664 2728.14 459.056 2728.14 460.68C2728.14 461.774 2727.86 462.777 2727.29 463.688C2726.75 464.583 2726.03 465.304 2725.13 465.851C2724.24 466.381 2723.25 466.646 2722.17 466.646ZM2779.23 466.646C2777.59 466.646 2776.18 466.066 2775 464.906C2773.84 463.73 2773.26 462.321 2773.26 460.68C2773.26 459.056 2773.84 457.664 2775 456.504C2776.18 455.344 2777.59 454.764 2779.23 454.764C2780.82 454.764 2782.21 455.344 2783.41 456.504C2784.6 457.664 2785.2 459.056 2785.2 460.68C2785.2 461.774 2784.91 462.777 2784.35 463.688C2783.8 464.583 2783.08 465.304 2782.19 465.851C2781.29 466.381 2780.31 466.646 2779.23 466.646Z" fill="#F5F5F5"/>
<path d="M1980.42 434.646C1978.77 434.646 1977.37 434.066 1976.19 432.906C1975.03 431.73 1974.45 430.321 1974.45 428.68C1974.45 427.056 1975.03 425.664 1976.19 424.504C1977.37 423.344 1978.77 422.764 1980.42 422.764C1982.01 422.764 1983.4 423.344 1984.59 424.504C1985.78 425.664 1986.38 427.056 1986.38 428.68C1986.38 429.774 1986.1 430.777 1985.54 431.688C1984.99 432.583 1984.27 433.304 1983.37 433.851C1982.48 434.381 1981.49 434.646 1980.42 434.646ZM2037.47 434.646C2035.83 434.646 2034.42 434.066 2033.25 432.906C2032.09 431.73 2031.51 430.321 2031.51 428.68C2031.51 427.056 2032.09 425.664 2033.25 424.504C2034.42 423.344 2035.83 422.764 2037.47 422.764C2039.06 422.764 2040.46 423.344 2041.65 424.504C2042.84 425.664 2043.44 427.056 2043.44 428.68C2043.44 429.774 2043.16 430.777 2042.59 431.688C2042.05 432.583 2041.33 433.304 2040.43 433.851C2039.54 434.381 2038.55 434.646 2037.47 434.646ZM2094.53 434.646C2092.89 434.646 2091.48 434.066 2090.31 432.906C2089.15 431.73 2088.57 430.321 2088.57 428.68C2088.57 427.056 2089.15 425.664 2090.31 424.504C2091.48 423.344 2092.89 422.764 2094.53 422.764C2096.12 422.764 2097.51 423.344 2098.71 424.504C2099.9 425.664 2100.5 427.056 2100.5 428.68C2100.5 429.774 2100.22 430.777 2099.65 431.688C2099.11 432.583 2098.38 433.304 2097.49 433.851C2096.6 434.381 2095.61 434.646 2094.53 434.646ZM2151.59 434.646C2149.95 434.646 2148.54 434.066 2147.36 432.906C2146.2 431.73 2145.62 430.321 2145.62 428.68C2145.62 427.056 2146.2 425.664 2147.36 424.504C2148.54 423.344 2149.95 422.764 2151.59 422.764C2153.18 422.764 2154.57 423.344 2155.77 424.504C2156.96 425.664 2157.56 427.056 2157.56 428.68C2157.56 429.774 2157.27 430.777 2156.71 431.688C2156.16 432.583 2155.44 433.304 2154.55 433.851C2153.65 434.381 2152.67 434.646 2151.59 434.646ZM2208.65 434.646C2207.01 434.646 2205.6 434.066 2204.42 432.906C2203.26 431.73 2202.68 430.321 2202.68 428.68C2202.68 427.056 2203.26 425.664 2204.42 424.504C2205.6 423.344 2207.01 422.764 2208.65 422.764C2210.24 422.764 2211.63 423.344 2212.82 424.504C2214.02 425.664 2214.61 427.056 2214.61 428.68C2214.61 429.774 2214.33 430.777 2213.77 431.688C2213.22 432.583 2212.5 433.304 2211.61 433.851C2210.71 434.381 2209.73 434.646 2208.65 434.646ZM2265.71 434.646C2264.07 434.646 2262.66 434.066 2261.48 432.906C2260.32 431.73 2259.74 430.321 2259.74 428.68C2259.74 427.056 2260.32 425.664 2261.48 424.504C2262.66 423.344 2264.07 422.764 2265.71 422.764C2267.3 422.764 2268.69 423.344 2269.88 424.504C2271.08 425.664 2271.67 427.056 2271.67 428.68C2271.67 429.774 2271.39 430.777 2270.83 431.688C2270.28 432.583 2269.56 433.304 2268.66 433.851C2267.77 434.381 2266.78 434.646 2265.71 434.646ZM2322.76 434.646C2321.12 434.646 2319.72 434.066 2318.54 432.906C2317.38 431.73 2316.8 430.321 2316.8 428.68C2316.8 427.056 2317.38 425.664 2318.54 424.504C2319.72 423.344 2321.12 422.764 2322.76 422.764C2324.36 422.764 2325.75 423.344 2326.94 424.504C2328.13 425.664 2328.73 427.056 2328.73 428.68C2328.73 429.774 2328.45 430.777 2327.89 431.688C2327.34 432.583 2326.62 433.304 2325.72 433.851C2324.83 434.381 2323.84 434.646 2322.76 434.646ZM2379.82 434.646C2378.18 434.646 2376.77 434.066 2375.6 432.906C2374.44 431.73 2373.86 430.321 2373.86 428.68C2373.86 427.056 2374.44 425.664 2375.6 424.504C2376.77 423.344 2378.18 422.764 2379.82 422.764C2381.41 422.764 2382.81 423.344 2384 424.504C2385.19 425.664 2385.79 427.056 2385.79 428.68C2385.79 429.774 2385.51 430.777 2384.94 431.688C2384.4 432.583 2383.68 433.304 2382.78 433.851C2381.89 434.381 2380.9 434.646 2379.82 434.646ZM2436.88 434.646C2435.24 434.646 2433.83 434.066 2432.66 432.906C2431.5 431.73 2430.92 430.321 2430.92 428.68C2430.92 427.056 2431.5 425.664 2432.66 424.504C2433.83 423.344 2435.24 422.764 2436.88 422.764C2438.47 422.764 2439.86 423.344 2441.06 424.504C2442.25 425.664 2442.85 427.056 2442.85 428.68C2442.85 429.774 2442.57 430.777 2442 431.688C2441.45 432.583 2440.73 433.304 2439.84 433.851C2438.94 434.381 2437.96 434.646 2436.88 434.646ZM2493.94 434.646C2492.3 434.646 2490.89 434.066 2489.71 432.906C2488.55 431.73 2487.97 430.321 2487.97 428.68C2487.97 427.056 2488.55 425.664 2489.71 424.504C2490.89 423.344 2492.3 422.764 2493.94 422.764C2495.53 422.764 2496.92 423.344 2498.12 424.504C2499.31 425.664 2499.91 427.056 2499.91 428.68C2499.91 429.774 2499.62 430.777 2499.06 431.688C2498.51 432.583 2497.79 433.304 2496.9 433.851C2496 434.381 2495.02 434.646 2493.94 434.646ZM2551 434.646C2549.36 434.646 2547.95 434.066 2546.77 432.906C2545.61 431.73 2545.03 430.321 2545.03 428.68C2545.03 427.056 2545.61 425.664 2546.77 424.504C2547.95 423.344 2549.36 422.764 2551 422.764C2552.59 422.764 2553.98 423.344 2555.17 424.504C2556.37 425.664 2556.96 427.056 2556.96 428.68C2556.96 429.774 2556.68 430.777 2556.12 431.688C2555.57 432.583 2554.85 433.304 2553.96 433.851C2553.06 434.381 2552.07 434.646 2551 434.646ZM2608.06 434.646C2606.42 434.646 2605.01 434.066 2603.83 432.906C2602.67 431.73 2602.09 430.321 2602.09 428.68C2602.09 427.056 2602.67 425.664 2603.83 424.504C2605.01 423.344 2606.42 422.764 2608.06 422.764C2609.65 422.764 2611.04 423.344 2612.23 424.504C2613.43 425.664 2614.02 427.056 2614.02 428.68C2614.02 429.774 2613.74 430.777 2613.18 431.688C2612.63 432.583 2611.91 433.304 2611.01 433.851C2610.12 434.381 2609.13 434.646 2608.06 434.646ZM2665.11 434.646C2663.47 434.646 2662.06 434.066 2660.89 432.906C2659.73 431.73 2659.15 430.321 2659.15 428.68C2659.15 427.056 2659.73 425.664 2660.89 424.504C2662.06 423.344 2663.47 422.764 2665.11 422.764C2666.7 422.764 2668.1 423.344 2669.29 424.504C2670.48 425.664 2671.08 427.056 2671.08 428.68C2671.08 429.774 2670.8 430.777 2670.23 431.688C2669.69 432.583 2668.97 433.304 2668.07 433.851C2667.18 434.381 2666.19 434.646 2665.11 434.646ZM2722.17 434.646C2720.53 434.646 2719.12 434.066 2717.95 432.906C2716.79 431.73 2716.21 430.321 2716.21 428.68C2716.21 427.056 2716.79 425.664 2717.95 424.504C2719.12 423.344 2720.53 422.764 2722.17 422.764C2723.76 422.764 2725.16 423.344 2726.35 424.504C2727.54 425.664 2728.14 427.056 2728.14 428.68C2728.14 429.774 2727.86 430.777 2727.29 431.688C2726.75 432.583 2726.03 433.304 2725.13 433.851C2724.24 434.381 2723.25 434.646 2722.17 434.646ZM2779.23 434.646C2777.59 434.646 2776.18 434.066 2775 432.906C2773.84 431.73 2773.26 430.321 2773.26 428.68C2773.26 427.056 2773.84 425.664 2775 424.504C2776.18 423.344 2777.59 422.764 2779.23 422.764C2780.82 422.764 2782.21 423.344 2783.41 424.504C2784.6 425.664 2785.2 427.056 2785.2 428.68C2785.2 429.774 2784.91 430.777 2784.35 431.688C2783.8 432.583 2783.08 433.304 2782.19 433.851C2781.29 434.381 2780.31 434.646 2779.23 434.646Z" fill="#F5F5F5"/>
<path d="M1980.42 403.646C1978.77 403.646 1977.37 403.066 1976.19 401.906C1975.03 400.73 1974.45 399.321 1974.45 397.68C1974.45 396.056 1975.03 394.664 1976.19 393.504C1977.37 392.344 1978.77 391.764 1980.42 391.764C1982.01 391.764 1983.4 392.344 1984.59 393.504C1985.78 394.664 1986.38 396.056 1986.38 397.68C1986.38 398.774 1986.1 399.777 1985.54 400.688C1984.99 401.583 1984.27 402.304 1983.37 402.851C1982.48 403.381 1981.49 403.646 1980.42 403.646ZM2037.47 403.646C2035.83 403.646 2034.42 403.066 2033.25 401.906C2032.09 400.73 2031.51 399.321 2031.51 397.68C2031.51 396.056 2032.09 394.664 2033.25 393.504C2034.42 392.344 2035.83 391.764 2037.47 391.764C2039.06 391.764 2040.46 392.344 2041.65 393.504C2042.84 394.664 2043.44 396.056 2043.44 397.68C2043.44 398.774 2043.16 399.777 2042.59 400.688C2042.05 401.583 2041.33 402.304 2040.43 402.851C2039.54 403.381 2038.55 403.646 2037.47 403.646ZM2094.53 403.646C2092.89 403.646 2091.48 403.066 2090.31 401.906C2089.15 400.73 2088.57 399.321 2088.57 397.68C2088.57 396.056 2089.15 394.664 2090.31 393.504C2091.48 392.344 2092.89 391.764 2094.53 391.764C2096.12 391.764 2097.51 392.344 2098.71 393.504C2099.9 394.664 2100.5 396.056 2100.5 397.68C2100.5 398.774 2100.22 399.777 2099.65 400.688C2099.11 401.583 2098.38 402.304 2097.49 402.851C2096.6 403.381 2095.61 403.646 2094.53 403.646ZM2151.59 403.646C2149.95 403.646 2148.54 403.066 2147.36 401.906C2146.2 400.73 2145.62 399.321 2145.62 397.68C2145.62 396.056 2146.2 394.664 2147.36 393.504C2148.54 392.344 2149.95 391.764 2151.59 391.764C2153.18 391.764 2154.57 392.344 2155.77 393.504C2156.96 394.664 2157.56 396.056 2157.56 397.68C2157.56 398.774 2157.27 399.777 2156.71 400.688C2156.16 401.583 2155.44 402.304 2154.55 402.851C2153.65 403.381 2152.67 403.646 2151.59 403.646ZM2208.65 403.646C2207.01 403.646 2205.6 403.066 2204.42 401.906C2203.26 400.73 2202.68 399.321 2202.68 397.68C2202.68 396.056 2203.26 394.664 2204.42 393.504C2205.6 392.344 2207.01 391.764 2208.65 391.764C2210.24 391.764 2211.63 392.344 2212.82 393.504C2214.02 394.664 2214.61 396.056 2214.61 397.68C2214.61 398.774 2214.33 399.777 2213.77 400.688C2213.22 401.583 2212.5 402.304 2211.61 402.851C2210.71 403.381 2209.73 403.646 2208.65 403.646ZM2265.71 403.646C2264.07 403.646 2262.66 403.066 2261.48 401.906C2260.32 400.73 2259.74 399.321 2259.74 397.68C2259.74 396.056 2260.32 394.664 2261.48 393.504C2262.66 392.344 2264.07 391.764 2265.71 391.764C2267.3 391.764 2268.69 392.344 2269.88 393.504C2271.08 394.664 2271.67 396.056 2271.67 397.68C2271.67 398.774 2271.39 399.777 2270.83 400.688C2270.28 401.583 2269.56 402.304 2268.66 402.851C2267.77 403.381 2266.78 403.646 2265.71 403.646ZM2322.76 403.646C2321.12 403.646 2319.72 403.066 2318.54 401.906C2317.38 400.73 2316.8 399.321 2316.8 397.68C2316.8 396.056 2317.38 394.664 2318.54 393.504C2319.72 392.344 2321.12 391.764 2322.76 391.764C2324.36 391.764 2325.75 392.344 2326.94 393.504C2328.13 394.664 2328.73 396.056 2328.73 397.68C2328.73 398.774 2328.45 399.777 2327.89 400.688C2327.34 401.583 2326.62 402.304 2325.72 402.851C2324.83 403.381 2323.84 403.646 2322.76 403.646ZM2379.82 403.646C2378.18 403.646 2376.77 403.066 2375.6 401.906C2374.44 400.73 2373.86 399.321 2373.86 397.68C2373.86 396.056 2374.44 394.664 2375.6 393.504C2376.77 392.344 2378.18 391.764 2379.82 391.764C2381.41 391.764 2382.81 392.344 2384 393.504C2385.19 394.664 2385.79 396.056 2385.79 397.68C2385.79 398.774 2385.51 399.777 2384.94 400.688C2384.4 401.583 2383.68 402.304 2382.78 402.851C2381.89 403.381 2380.9 403.646 2379.82 403.646ZM2436.88 403.646C2435.24 403.646 2433.83 403.066 2432.66 401.906C2431.5 400.73 2430.92 399.321 2430.92 397.68C2430.92 396.056 2431.5 394.664 2432.66 393.504C2433.83 392.344 2435.24 391.764 2436.88 391.764C2438.47 391.764 2439.86 392.344 2441.06 393.504C2442.25 394.664 2442.85 396.056 2442.85 397.68C2442.85 398.774 2442.57 399.777 2442 400.688C2441.45 401.583 2440.73 402.304 2439.84 402.851C2438.94 403.381 2437.96 403.646 2436.88 403.646ZM2493.94 403.646C2492.3 403.646 2490.89 403.066 2489.71 401.906C2488.55 400.73 2487.97 399.321 2487.97 397.68C2487.97 396.056 2488.55 394.664 2489.71 393.504C2490.89 392.344 2492.3 391.764 2493.94 391.764C2495.53 391.764 2496.92 392.344 2498.12 393.504C2499.31 394.664 2499.91 396.056 2499.91 397.68C2499.91 398.774 2499.62 399.777 2499.06 400.688C2498.51 401.583 2497.79 402.304 2496.9 402.851C2496 403.381 2495.02 403.646 2493.94 403.646ZM2551 403.646C2549.36 403.646 2547.95 403.066 2546.77 401.906C2545.61 400.73 2545.03 399.321 2545.03 397.68C2545.03 396.056 2545.61 394.664 2546.77 393.504C2547.95 392.344 2549.36 391.764 2551 391.764C2552.59 391.764 2553.98 392.344 2555.17 393.504C2556.37 394.664 2556.96 396.056 2556.96 397.68C2556.96 398.774 2556.68 399.777 2556.12 400.688C2555.57 401.583 2554.85 402.304 2553.96 402.851C2553.06 403.381 2552.07 403.646 2551 403.646ZM2608.06 403.646C2606.42 403.646 2605.01 403.066 2603.83 401.906C2602.67 400.73 2602.09 399.321 2602.09 397.68C2602.09 396.056 2602.67 394.664 2603.83 393.504C2605.01 392.344 2606.42 391.764 2608.06 391.764C2609.65 391.764 2611.04 392.344 2612.23 393.504C2613.43 394.664 2614.02 396.056 2614.02 397.68C2614.02 398.774 2613.74 399.777 2613.18 400.688C2612.63 401.583 2611.91 402.304 2611.01 402.851C2610.12 403.381 2609.13 403.646 2608.06 403.646ZM2665.11 403.646C2663.47 403.646 2662.06 403.066 2660.89 401.906C2659.73 400.73 2659.15 399.321 2659.15 397.68C2659.15 396.056 2659.73 394.664 2660.89 393.504C2662.06 392.344 2663.47 391.764 2665.11 391.764C2666.7 391.764 2668.1 392.344 2669.29 393.504C2670.48 394.664 2671.08 396.056 2671.08 397.68C2671.08 398.774 2670.8 399.777 2670.23 400.688C2669.69 401.583 2668.97 402.304 2668.07 402.851C2667.18 403.381 2666.19 403.646 2665.11 403.646ZM2722.17 403.646C2720.53 403.646 2719.12 403.066 2717.95 401.906C2716.79 400.73 2716.21 399.321 2716.21 397.68C2716.21 396.056 2716.79 394.664 2717.95 393.504C2719.12 392.344 2720.53 391.764 2722.17 391.764C2723.76 391.764 2725.16 392.344 2726.35 393.504C2727.54 394.664 2728.14 396.056 2728.14 397.68C2728.14 398.774 2727.86 399.777 2727.29 400.688C2726.75 401.583 2726.03 402.304 2725.13 402.851C2724.24 403.381 2723.25 403.646 2722.17 403.646ZM2779.23 403.646C2777.59 403.646 2776.18 403.066 2775 401.906C2773.84 400.73 2773.26 399.321 2773.26 397.68C2773.26 396.056 2773.84 394.664 2775 393.504C2776.18 392.344 2777.59 391.764 2779.23 391.764C2780.82 391.764 2782.21 392.344 2783.41 393.504C2784.6 394.664 2785.2 396.056 2785.2 397.68C2785.2 398.774 2784.91 399.777 2784.35 400.688C2783.8 401.583 2783.08 402.304 2782.19 402.851C2781.29 403.381 2780.31 403.646 2779.23 403.646Z" fill="#F5F5F5"/>
<path d="M1980.42 371.646C1978.77 371.646 1977.37 371.066 1976.19 369.906C1975.03 368.73 1974.45 367.321 1974.45 365.68C1974.45 364.056 1975.03 362.664 1976.19 361.504C1977.37 360.344 1978.77 359.764 1980.42 359.764C1982.01 359.764 1983.4 360.344 1984.59 361.504C1985.78 362.664 1986.38 364.056 1986.38 365.68C1986.38 366.774 1986.1 367.777 1985.54 368.688C1984.99 369.583 1984.27 370.304 1983.37 370.851C1982.48 371.381 1981.49 371.646 1980.42 371.646ZM2037.47 371.646C2035.83 371.646 2034.42 371.066 2033.25 369.906C2032.09 368.73 2031.51 367.321 2031.51 365.68C2031.51 364.056 2032.09 362.664 2033.25 361.504C2034.42 360.344 2035.83 359.764 2037.47 359.764C2039.06 359.764 2040.46 360.344 2041.65 361.504C2042.84 362.664 2043.44 364.056 2043.44 365.68C2043.44 366.774 2043.16 367.777 2042.59 368.688C2042.05 369.583 2041.33 370.304 2040.43 370.851C2039.54 371.381 2038.55 371.646 2037.47 371.646ZM2094.53 371.646C2092.89 371.646 2091.48 371.066 2090.31 369.906C2089.15 368.73 2088.57 367.321 2088.57 365.68C2088.57 364.056 2089.15 362.664 2090.31 361.504C2091.48 360.344 2092.89 359.764 2094.53 359.764C2096.12 359.764 2097.51 360.344 2098.71 361.504C2099.9 362.664 2100.5 364.056 2100.5 365.68C2100.5 366.774 2100.22 367.777 2099.65 368.688C2099.11 369.583 2098.38 370.304 2097.49 370.851C2096.6 371.381 2095.61 371.646 2094.53 371.646ZM2151.59 371.646C2149.95 371.646 2148.54 371.066 2147.36 369.906C2146.2 368.73 2145.62 367.321 2145.62 365.68C2145.62 364.056 2146.2 362.664 2147.36 361.504C2148.54 360.344 2149.95 359.764 2151.59 359.764C2153.18 359.764 2154.57 360.344 2155.77 361.504C2156.96 362.664 2157.56 364.056 2157.56 365.68C2157.56 366.774 2157.27 367.777 2156.71 368.688C2156.16 369.583 2155.44 370.304 2154.55 370.851C2153.65 371.381 2152.67 371.646 2151.59 371.646ZM2208.65 371.646C2207.01 371.646 2205.6 371.066 2204.42 369.906C2203.26 368.73 2202.68 367.321 2202.68 365.68C2202.68 364.056 2203.26 362.664 2204.42 361.504C2205.6 360.344 2207.01 359.764 2208.65 359.764C2210.24 359.764 2211.63 360.344 2212.82 361.504C2214.02 362.664 2214.61 364.056 2214.61 365.68C2214.61 366.774 2214.33 367.777 2213.77 368.688C2213.22 369.583 2212.5 370.304 2211.61 370.851C2210.71 371.381 2209.73 371.646 2208.65 371.646ZM2265.71 371.646C2264.07 371.646 2262.66 371.066 2261.48 369.906C2260.32 368.73 2259.74 367.321 2259.74 365.68C2259.74 364.056 2260.32 362.664 2261.48 361.504C2262.66 360.344 2264.07 359.764 2265.71 359.764C2267.3 359.764 2268.69 360.344 2269.88 361.504C2271.08 362.664 2271.67 364.056 2271.67 365.68C2271.67 366.774 2271.39 367.777 2270.83 368.688C2270.28 369.583 2269.56 370.304 2268.66 370.851C2267.77 371.381 2266.78 371.646 2265.71 371.646ZM2322.76 371.646C2321.12 371.646 2319.72 371.066 2318.54 369.906C2317.38 368.73 2316.8 367.321 2316.8 365.68C2316.8 364.056 2317.38 362.664 2318.54 361.504C2319.72 360.344 2321.12 359.764 2322.76 359.764C2324.36 359.764 2325.75 360.344 2326.94 361.504C2328.13 362.664 2328.73 364.056 2328.73 365.68C2328.73 366.774 2328.45 367.777 2327.89 368.688C2327.34 369.583 2326.62 370.304 2325.72 370.851C2324.83 371.381 2323.84 371.646 2322.76 371.646ZM2379.82 371.646C2378.18 371.646 2376.77 371.066 2375.6 369.906C2374.44 368.73 2373.86 367.321 2373.86 365.68C2373.86 364.056 2374.44 362.664 2375.6 361.504C2376.77 360.344 2378.18 359.764 2379.82 359.764C2381.41 359.764 2382.81 360.344 2384 361.504C2385.19 362.664 2385.79 364.056 2385.79 365.68C2385.79 366.774 2385.51 367.777 2384.94 368.688C2384.4 369.583 2383.68 370.304 2382.78 370.851C2381.89 371.381 2380.9 371.646 2379.82 371.646ZM2436.88 371.646C2435.24 371.646 2433.83 371.066 2432.66 369.906C2431.5 368.73 2430.92 367.321 2430.92 365.68C2430.92 364.056 2431.5 362.664 2432.66 361.504C2433.83 360.344 2435.24 359.764 2436.88 359.764C2438.47 359.764 2439.86 360.344 2441.06 361.504C2442.25 362.664 2442.85 364.056 2442.85 365.68C2442.85 366.774 2442.57 367.777 2442 368.688C2441.45 369.583 2440.73 370.304 2439.84 370.851C2438.94 371.381 2437.96 371.646 2436.88 371.646ZM2493.94 371.646C2492.3 371.646 2490.89 371.066 2489.71 369.906C2488.55 368.73 2487.97 367.321 2487.97 365.68C2487.97 364.056 2488.55 362.664 2489.71 361.504C2490.89 360.344 2492.3 359.764 2493.94 359.764C2495.53 359.764 2496.92 360.344 2498.12 361.504C2499.31 362.664 2499.91 364.056 2499.91 365.68C2499.91 366.774 2499.62 367.777 2499.06 368.688C2498.51 369.583 2497.79 370.304 2496.9 370.851C2496 371.381 2495.02 371.646 2493.94 371.646ZM2551 371.646C2549.36 371.646 2547.95 371.066 2546.77 369.906C2545.61 368.73 2545.03 367.321 2545.03 365.68C2545.03 364.056 2545.61 362.664 2546.77 361.504C2547.95 360.344 2549.36 359.764 2551 359.764C2552.59 359.764 2553.98 360.344 2555.17 361.504C2556.37 362.664 2556.96 364.056 2556.96 365.68C2556.96 366.774 2556.68 367.777 2556.12 368.688C2555.57 369.583 2554.85 370.304 2553.96 370.851C2553.06 371.381 2552.07 371.646 2551 371.646ZM2608.06 371.646C2606.42 371.646 2605.01 371.066 2603.83 369.906C2602.67 368.73 2602.09 367.321 2602.09 365.68C2602.09 364.056 2602.67 362.664 2603.83 361.504C2605.01 360.344 2606.42 359.764 2608.06 359.764C2609.65 359.764 2611.04 360.344 2612.23 361.504C2613.43 362.664 2614.02 364.056 2614.02 365.68C2614.02 366.774 2613.74 367.777 2613.18 368.688C2612.63 369.583 2611.91 370.304 2611.01 370.851C2610.12 371.381 2609.13 371.646 2608.06 371.646ZM2665.11 371.646C2663.47 371.646 2662.06 371.066 2660.89 369.906C2659.73 368.73 2659.15 367.321 2659.15 365.68C2659.15 364.056 2659.73 362.664 2660.89 361.504C2662.06 360.344 2663.47 359.764 2665.11 359.764C2666.7 359.764 2668.1 360.344 2669.29 361.504C2670.48 362.664 2671.08 364.056 2671.08 365.68C2671.08 366.774 2670.8 367.777 2670.23 368.688C2669.69 369.583 2668.97 370.304 2668.07 370.851C2667.18 371.381 2666.19 371.646 2665.11 371.646ZM2722.17 371.646C2720.53 371.646 2719.12 371.066 2717.95 369.906C2716.79 368.73 2716.21 367.321 2716.21 365.68C2716.21 364.056 2716.79 362.664 2717.95 361.504C2719.12 360.344 2720.53 359.764 2722.17 359.764C2723.76 359.764 2725.16 360.344 2726.35 361.504C2727.54 362.664 2728.14 364.056 2728.14 365.68C2728.14 366.774 2727.86 367.777 2727.29 368.688C2726.75 369.583 2726.03 370.304 2725.13 370.851C2724.24 371.381 2723.25 371.646 2722.17 371.646ZM2779.23 371.646C2777.59 371.646 2776.18 371.066 2775 369.906C2773.84 368.73 2773.26 367.321 2773.26 365.68C2773.26 364.056 2773.84 362.664 2775 361.504C2776.18 360.344 2777.59 359.764 2779.23 359.764C2780.82 359.764 2782.21 360.344 2783.41 361.504C2784.6 362.664 2785.2 364.056 2785.2 365.68C2785.2 366.774 2784.91 367.777 2784.35 368.688C2783.8 369.583 2783.08 370.304 2782.19 370.851C2781.29 371.381 2780.31 371.646 2779.23 371.646Z" fill="#F5F5F5"/>
<path d="M1980.42 336.646C1978.77 336.646 1977.37 336.066 1976.19 334.906C1975.03 333.73 1974.45 332.321 1974.45 330.68C1974.45 329.056 1975.03 327.664 1976.19 326.504C1977.37 325.344 1978.77 324.764 1980.42 324.764C1982.01 324.764 1983.4 325.344 1984.59 326.504C1985.78 327.664 1986.38 329.056 1986.38 330.68C1986.38 331.774 1986.1 332.777 1985.54 333.688C1984.99 334.583 1984.27 335.304 1983.37 335.851C1982.48 336.381 1981.49 336.646 1980.42 336.646ZM2037.47 336.646C2035.83 336.646 2034.42 336.066 2033.25 334.906C2032.09 333.73 2031.51 332.321 2031.51 330.68C2031.51 329.056 2032.09 327.664 2033.25 326.504C2034.42 325.344 2035.83 324.764 2037.47 324.764C2039.06 324.764 2040.46 325.344 2041.65 326.504C2042.84 327.664 2043.44 329.056 2043.44 330.68C2043.44 331.774 2043.16 332.777 2042.59 333.688C2042.05 334.583 2041.33 335.304 2040.43 335.851C2039.54 336.381 2038.55 336.646 2037.47 336.646ZM2094.53 336.646C2092.89 336.646 2091.48 336.066 2090.31 334.906C2089.15 333.73 2088.57 332.321 2088.57 330.68C2088.57 329.056 2089.15 327.664 2090.31 326.504C2091.48 325.344 2092.89 324.764 2094.53 324.764C2096.12 324.764 2097.51 325.344 2098.71 326.504C2099.9 327.664 2100.5 329.056 2100.5 330.68C2100.5 331.774 2100.22 332.777 2099.65 333.688C2099.11 334.583 2098.38 335.304 2097.49 335.851C2096.6 336.381 2095.61 336.646 2094.53 336.646ZM2151.59 336.646C2149.95 336.646 2148.54 336.066 2147.36 334.906C2146.2 333.73 2145.62 332.321 2145.62 330.68C2145.62 329.056 2146.2 327.664 2147.36 326.504C2148.54 325.344 2149.95 324.764 2151.59 324.764C2153.18 324.764 2154.57 325.344 2155.77 326.504C2156.96 327.664 2157.56 329.056 2157.56 330.68C2157.56 331.774 2157.27 332.777 2156.71 333.688C2156.16 334.583 2155.44 335.304 2154.55 335.851C2153.65 336.381 2152.67 336.646 2151.59 336.646ZM2208.65 336.646C2207.01 336.646 2205.6 336.066 2204.42 334.906C2203.26 333.73 2202.68 332.321 2202.68 330.68C2202.68 329.056 2203.26 327.664 2204.42 326.504C2205.6 325.344 2207.01 324.764 2208.65 324.764C2210.24 324.764 2211.63 325.344 2212.82 326.504C2214.02 327.664 2214.61 329.056 2214.61 330.68C2214.61 331.774 2214.33 332.777 2213.77 333.688C2213.22 334.583 2212.5 335.304 2211.61 335.851C2210.71 336.381 2209.73 336.646 2208.65 336.646ZM2265.71 336.646C2264.07 336.646 2262.66 336.066 2261.48 334.906C2260.32 333.73 2259.74 332.321 2259.74 330.68C2259.74 329.056 2260.32 327.664 2261.48 326.504C2262.66 325.344 2264.07 324.764 2265.71 324.764C2267.3 324.764 2268.69 325.344 2269.88 326.504C2271.08 327.664 2271.67 329.056 2271.67 330.68C2271.67 331.774 2271.39 332.777 2270.83 333.688C2270.28 334.583 2269.56 335.304 2268.66 335.851C2267.77 336.381 2266.78 336.646 2265.71 336.646ZM2322.76 336.646C2321.12 336.646 2319.72 336.066 2318.54 334.906C2317.38 333.73 2316.8 332.321 2316.8 330.68C2316.8 329.056 2317.38 327.664 2318.54 326.504C2319.72 325.344 2321.12 324.764 2322.76 324.764C2324.36 324.764 2325.75 325.344 2326.94 326.504C2328.13 327.664 2328.73 329.056 2328.73 330.68C2328.73 331.774 2328.45 332.777 2327.89 333.688C2327.34 334.583 2326.62 335.304 2325.72 335.851C2324.83 336.381 2323.84 336.646 2322.76 336.646ZM2379.82 336.646C2378.18 336.646 2376.77 336.066 2375.6 334.906C2374.44 333.73 2373.86 332.321 2373.86 330.68C2373.86 329.056 2374.44 327.664 2375.6 326.504C2376.77 325.344 2378.18 324.764 2379.82 324.764C2381.41 324.764 2382.81 325.344 2384 326.504C2385.19 327.664 2385.79 329.056 2385.79 330.68C2385.79 331.774 2385.51 332.777 2384.94 333.688C2384.4 334.583 2383.68 335.304 2382.78 335.851C2381.89 336.381 2380.9 336.646 2379.82 336.646ZM2436.88 336.646C2435.24 336.646 2433.83 336.066 2432.66 334.906C2431.5 333.73 2430.92 332.321 2430.92 330.68C2430.92 329.056 2431.5 327.664 2432.66 326.504C2433.83 325.344 2435.24 324.764 2436.88 324.764C2438.47 324.764 2439.86 325.344 2441.06 326.504C2442.25 327.664 2442.85 329.056 2442.85 330.68C2442.85 331.774 2442.57 332.777 2442 333.688C2441.45 334.583 2440.73 335.304 2439.84 335.851C2438.94 336.381 2437.96 336.646 2436.88 336.646ZM2493.94 336.646C2492.3 336.646 2490.89 336.066 2489.71 334.906C2488.55 333.73 2487.97 332.321 2487.97 330.68C2487.97 329.056 2488.55 327.664 2489.71 326.504C2490.89 325.344 2492.3 324.764 2493.94 324.764C2495.53 324.764 2496.92 325.344 2498.12 326.504C2499.31 327.664 2499.91 329.056 2499.91 330.68C2499.91 331.774 2499.62 332.777 2499.06 333.688C2498.51 334.583 2497.79 335.304 2496.9 335.851C2496 336.381 2495.02 336.646 2493.94 336.646ZM2551 336.646C2549.36 336.646 2547.95 336.066 2546.77 334.906C2545.61 333.73 2545.03 332.321 2545.03 330.68C2545.03 329.056 2545.61 327.664 2546.77 326.504C2547.95 325.344 2549.36 324.764 2551 324.764C2552.59 324.764 2553.98 325.344 2555.17 326.504C2556.37 327.664 2556.96 329.056 2556.96 330.68C2556.96 331.774 2556.68 332.777 2556.12 333.688C2555.57 334.583 2554.85 335.304 2553.96 335.851C2553.06 336.381 2552.07 336.646 2551 336.646ZM2608.06 336.646C2606.42 336.646 2605.01 336.066 2603.83 334.906C2602.67 333.73 2602.09 332.321 2602.09 330.68C2602.09 329.056 2602.67 327.664 2603.83 326.504C2605.01 325.344 2606.42 324.764 2608.06 324.764C2609.65 324.764 2611.04 325.344 2612.23 326.504C2613.43 327.664 2614.02 329.056 2614.02 330.68C2614.02 331.774 2613.74 332.777 2613.18 333.688C2612.63 334.583 2611.91 335.304 2611.01 335.851C2610.12 336.381 2609.13 336.646 2608.06 336.646ZM2665.11 336.646C2663.47 336.646 2662.06 336.066 2660.89 334.906C2659.73 333.73 2659.15 332.321 2659.15 330.68C2659.15 329.056 2659.73 327.664 2660.89 326.504C2662.06 325.344 2663.47 324.764 2665.11 324.764C2666.7 324.764 2668.1 325.344 2669.29 326.504C2670.48 327.664 2671.08 329.056 2671.08 330.68C2671.08 331.774 2670.8 332.777 2670.23 333.688C2669.69 334.583 2668.97 335.304 2668.07 335.851C2667.18 336.381 2666.19 336.646 2665.11 336.646ZM2722.17 336.646C2720.53 336.646 2719.12 336.066 2717.95 334.906C2716.79 333.73 2716.21 332.321 2716.21 330.68C2716.21 329.056 2716.79 327.664 2717.95 326.504C2719.12 325.344 2720.53 324.764 2722.17 324.764C2723.76 324.764 2725.16 325.344 2726.35 326.504C2727.54 327.664 2728.14 329.056 2728.14 330.68C2728.14 331.774 2727.86 332.777 2727.29 333.688C2726.75 334.583 2726.03 335.304 2725.13 335.851C2724.24 336.381 2723.25 336.646 2722.17 336.646ZM2779.23 336.646C2777.59 336.646 2776.18 336.066 2775 334.906C2773.84 333.73 2773.26 332.321 2773.26 330.68C2773.26 329.056 2773.84 327.664 2775 326.504C2776.18 325.344 2777.59 324.764 2779.23 324.764C2780.82 324.764 2782.21 325.344 2783.41 326.504C2784.6 327.664 2785.2 329.056 2785.2 330.68C2785.2 331.774 2784.91 332.777 2784.35 333.688C2783.8 334.583 2783.08 335.304 2782.19 335.851C2781.29 336.381 2780.31 336.646 2779.23 336.646Z" fill="#F5F5F5"/>
<path d="M989.835 88.7891L980.172 470.148L1200.9 465.919L989.835 88.7891Z" fill="#242537" fill-opacity="0.5"/>
<path d="M1065.47 422.284L1055.8 803.643L1276.53 799.414L1065.47 422.284Z" fill="#242537" fill-opacity="0.5"/>
<path d="M1165.5 279.703L1155.83 661.061L1376.56 656.832L1165.5 279.703Z" fill="#242537" fill-opacity="0.5"/>
<path d="M1213.07 570.907L1203.41 952.266L1424.13 948.037L1213.07 570.907Z" fill="#242537" fill-opacity="0.5"/>
<path d="M1339.93 705.03L1330.27 1086.39L1550.99 1082.16L1339.93 705.03Z" fill="#242537" fill-opacity="0.5"/>
<path d="M1182.57 -113L1172.91 268.359L1393.63 264.129L1182.57 -113Z" fill="#242537" fill-opacity="0.5"/>
<path d="M1282.6 204.787L1272.94 586.146L1493.66 581.917L1282.6 204.787Z" fill="#242537" fill-opacity="0.5"/>
<path d="M1365.55 485.117L1355.89 866.475L1576.61 862.246L1365.55 485.117Z" fill="#242537" fill-opacity="0.5"/>
<path d="M1505.84 765.446L1496.17 1146.8L1716.9 1142.58L1505.84 765.446Z" fill="#242537" fill-opacity="0.5"/>
<path d="M885.781 541.357L1097.67 541.357L887.282 356.689L885.781 541.357Z" fill="#242537"/>
<path d="M994.348 437.442L1206.24 437.442L995.849 252.774L994.348 437.442Z" fill="#242537"/>
<path d="M1069.98 770.937L1281.87 770.937L1071.48 586.27L1069.98 770.937Z" fill="#242537"/>
<path d="M1109.02 375.818L1320.9 375.818L1110.52 191.15L1109.02 375.818Z" fill="#242537"/>
<path d="M1170.01 628.356L1381.9 628.356L1171.51 443.688L1170.01 628.356Z" fill="#242537"/>
<path d="M1217.58 919.56L1429.47 919.56L1219.08 734.892L1217.58 919.56Z" fill="#242537"/>
<path d="M1344.45 1053.68L1556.33 1053.68L1345.95 869.015L1344.45 1053.68Z" fill="#242537"/>
<path d="M1187.09 235.653L1398.97 235.653L1188.59 50.9851L1187.09 235.653Z" fill="#242537"/>
<path d="M1287.11 553.44L1499 553.44L1288.62 368.772L1287.11 553.44Z" fill="#242537"/>
<path d="M1370.07 833.77L1581.95 833.77L1371.57 649.102L1370.07 833.77Z" fill="#242537"/>
<path d="M1510.35 1117.72L1722.24 1117.72L1511.85 933.056L1510.35 1117.72Z" fill="#242537"/>
<path d="M1258.55 -11H-8V1161H1476L1088.15 693.5C947.847 512 860.952 543.5 1008.04 342.5L1258.55 -11Z" fill="#242537"/>
</svg>
