<svg width="1920" height="978" viewBox="0 0 1920 978" fill="none" xmlns="http://www.w3.org/2000/svg">
<rect x="-80" y="-62" width="1041" height="1029" fill="#DBDCE1"/>
<rect x="961" y="-62" width="1034" height="1029" fill="#242537"/>
<path d="M456 50.5C456 229.716 310.716 375 131.5 375C-47.7164 375 -193 229.716 -193 50.5C-193 -128.716 -47.7164 -274 131.5 -274C310.716 -274 456 -128.716 456 50.5ZM-106.398 50.5C-106.398 181.887 0.112732 288.398 131.5 288.398C262.887 288.398 369.398 181.887 369.398 50.5C369.398 -80.8873 262.887 -187.398 131.5 -187.398C0.112732 -187.398 -106.398 -80.8873 -106.398 50.5Z" fill="#F5F5F5"/>
<path d="M476.646 240.585C476.646 242.225 476.066 243.634 474.906 244.81C473.73 245.97 472.321 246.55 470.68 246.55C469.056 246.55 467.664 245.97 466.504 244.81C465.344 243.634 464.764 242.225 464.764 240.585C464.764 238.994 465.344 237.602 466.504 236.408C467.664 235.215 469.056 234.619 470.68 234.619C471.774 234.619 472.777 234.9 473.688 235.464C474.583 236.011 475.304 236.732 475.851 237.626C476.381 238.521 476.646 239.507 476.646 240.585ZM476.646 183.526C476.646 185.167 476.066 186.576 474.906 187.752C473.73 188.912 472.321 189.492 470.68 189.492C469.056 189.492 467.664 188.912 466.504 187.752C465.344 186.576 464.764 185.167 464.764 183.526C464.764 181.935 465.344 180.543 466.504 179.35C467.664 178.157 469.056 177.56 470.68 177.56C471.774 177.56 472.777 177.842 473.688 178.406C474.583 178.952 475.304 179.673 475.851 180.568C476.381 181.463 476.646 182.449 476.646 183.526ZM476.646 126.468C476.646 128.109 476.066 129.517 474.906 130.694C473.73 131.854 472.321 132.434 470.68 132.434C469.056 132.434 467.664 131.854 466.504 130.694C465.344 129.517 464.764 128.109 464.764 126.468C464.764 124.877 465.344 123.485 466.504 122.292C467.664 121.099 469.056 120.502 470.68 120.502C471.774 120.502 472.777 120.784 473.688 121.347C474.583 121.894 475.304 122.615 475.851 123.51C476.381 124.405 476.646 125.391 476.646 126.468ZM476.646 69.4099C476.646 71.0505 476.066 72.4592 474.906 73.6358C473.73 74.7958 472.321 75.3758 470.68 75.3758C469.056 75.3758 467.664 74.7958 466.504 73.6358C465.344 72.4592 464.764 71.0505 464.764 69.4099C464.764 67.819 465.344 66.427 466.504 65.2338C467.664 64.0406 469.056 63.444 470.68 63.444C471.774 63.444 472.777 63.7257 473.688 64.2892C474.583 64.836 475.304 65.5569 475.851 66.4518C476.381 67.3467 476.646 68.3327 476.646 69.4099ZM476.646 12.3517C476.646 13.9923 476.066 15.4009 474.906 16.5776C473.73 17.7376 472.321 18.3176 470.68 18.3176C469.056 18.3176 467.664 17.7376 466.504 16.5776C465.344 15.4009 464.764 13.9923 464.764 12.3517C464.764 10.7608 465.344 9.36874 466.504 8.17556C467.664 6.98238 469.056 6.38579 470.68 6.38579C471.774 6.38579 472.777 6.66751 473.688 7.23096C474.583 7.77783 475.304 8.49872 475.851 9.3936C476.381 10.2885 476.646 11.2745 476.646 12.3517ZM476.646 -44.7065C476.646 -43.0659 476.066 -41.6573 474.906 -40.4806C473.73 -39.3206 472.321 -38.7406 470.68 -38.7406C469.056 -38.7406 467.664 -39.3206 466.504 -40.4806C465.344 -41.6573 464.764 -43.0659 464.764 -44.7065C464.764 -46.2974 465.344 -47.6895 466.504 -48.8826C467.664 -50.0758 469.056 -50.6724 470.68 -50.6724C471.774 -50.6724 472.777 -50.3907 473.688 -49.8272C474.583 -49.2804 475.304 -48.5595 475.851 -47.6646C476.381 -46.7697 476.646 -45.7837 476.646 -44.7065ZM476.646 -101.765C476.646 -100.124 476.066 -98.7155 474.906 -97.5388C473.73 -96.3788 472.321 -95.7988 470.68 -95.7988C469.056 -95.7988 467.664 -96.3788 466.504 -97.5388C465.344 -98.7155 464.764 -100.124 464.764 -101.765C464.764 -103.356 465.344 -104.748 466.504 -105.941C467.664 -107.134 469.056 -107.731 470.68 -107.731C471.774 -107.731 472.777 -107.449 473.688 -106.885C474.583 -106.339 475.304 -105.618 475.851 -104.723C476.381 -103.828 476.646 -102.842 476.646 -101.765ZM476.646 -158.823C476.646 -157.182 476.066 -155.774 474.906 -154.597C473.73 -153.437 472.321 -152.857 470.68 -152.857C469.056 -152.857 467.664 -153.437 466.504 -154.597C465.344 -155.774 464.764 -157.182 464.764 -158.823C464.764 -160.414 465.344 -161.806 466.504 -162.999C467.664 -164.192 469.056 -164.789 470.68 -164.789C471.774 -164.789 472.777 -164.507 473.688 -163.944C474.583 -163.397 475.304 -162.676 475.851 -161.781C476.381 -160.886 476.646 -159.9 476.646 -158.823ZM476.646 -215.881C476.646 -214.24 476.066 -212.832 474.906 -211.655C473.73 -210.495 472.321 -209.915 470.68 -209.915C469.056 -209.915 467.664 -210.495 466.504 -211.655C465.344 -212.832 464.764 -214.24 464.764 -215.881C464.764 -217.472 465.344 -218.864 466.504 -220.057C467.664 -221.25 469.056 -221.847 470.68 -221.847C471.774 -221.847 472.777 -221.565 473.688 -221.002C474.583 -220.455 475.304 -219.734 475.851 -218.839C476.381 -217.944 476.646 -216.958 476.646 -215.881ZM476.646 -272.939C476.646 -271.299 476.066 -269.89 474.906 -268.713C473.73 -267.553 472.321 -266.973 470.68 -266.973C469.056 -266.973 467.664 -267.553 466.504 -268.713C465.344 -269.89 464.764 -271.299 464.764 -272.939C464.764 -274.53 465.344 -275.922 466.504 -277.115C467.664 -278.309 469.056 -278.905 470.68 -278.905C471.774 -278.905 472.777 -278.623 473.688 -278.06C474.583 -277.513 475.304 -276.792 475.851 -275.897C476.381 -275.002 476.646 -274.016 476.646 -272.939ZM476.646 -329.998C476.646 -328.357 476.066 -326.948 474.906 -325.772C473.73 -324.612 472.321 -324.032 470.68 -324.032C469.056 -324.032 467.664 -324.612 466.504 -325.772C465.344 -326.948 464.764 -328.357 464.764 -329.998C464.764 -331.588 465.344 -332.98 466.504 -334.174C467.664 -335.367 469.056 -335.963 470.68 -335.963C471.774 -335.963 472.777 -335.682 473.688 -335.118C474.583 -334.571 475.304 -333.85 475.851 -332.956C476.381 -332.061 476.646 -331.075 476.646 -329.998ZM476.646 -387.056C476.646 -385.415 476.066 -384.006 474.906 -382.83C473.73 -381.67 472.321 -381.09 470.68 -381.09C469.056 -381.09 467.664 -381.67 466.504 -382.83C465.344 -384.006 464.764 -385.415 464.764 -387.056C464.764 -388.647 465.344 -390.039 466.504 -391.232C467.664 -392.425 469.056 -393.022 470.68 -393.022C471.774 -393.022 472.777 -392.74 473.688 -392.176C474.583 -391.63 475.304 -390.909 475.851 -390.014C476.381 -389.119 476.646 -388.133 476.646 -387.056ZM476.646 -444.114C476.646 -442.473 476.066 -441.065 474.906 -439.888C473.73 -438.728 472.321 -438.148 470.68 -438.148C469.056 -438.148 467.664 -438.728 466.504 -439.888C465.344 -441.065 464.764 -442.473 464.764 -444.114C464.764 -445.705 465.344 -447.097 466.504 -448.29C467.664 -449.483 469.056 -450.08 470.68 -450.08C471.774 -450.08 472.777 -449.798 473.688 -449.235C474.583 -448.688 475.304 -447.967 475.851 -447.072C476.381 -446.177 476.646 -445.191 476.646 -444.114ZM476.646 -501.172C476.646 -499.532 476.066 -498.123 474.906 -496.946C473.73 -495.786 472.321 -495.206 470.68 -495.206C469.056 -495.206 467.664 -495.786 466.504 -496.946C465.344 -498.123 464.764 -499.532 464.764 -501.172C464.764 -502.763 465.344 -504.155 466.504 -505.348C467.664 -506.541 469.056 -507.138 470.68 -507.138C471.774 -507.138 472.777 -506.856 473.688 -506.293C474.583 -505.746 475.304 -505.025 475.851 -504.13C476.381 -503.235 476.646 -502.249 476.646 -501.172ZM476.646 -558.23C476.646 -556.59 476.066 -555.181 474.906 -554.004C473.73 -552.844 472.321 -552.264 470.68 -552.264C469.056 -552.264 467.664 -552.844 466.504 -554.004C465.344 -555.181 464.764 -556.59 464.764 -558.23C464.764 -559.821 465.344 -561.213 466.504 -562.406C467.664 -563.6 469.056 -564.196 470.68 -564.196C471.774 -564.196 472.777 -563.914 473.688 -563.351C474.583 -562.804 475.304 -562.083 475.851 -561.188C476.381 -560.294 476.646 -559.307 476.646 -558.23Z" fill="#F5F5F5"/>
<path d="M444.646 240.585C444.646 242.225 444.066 243.634 442.906 244.81C441.73 245.97 440.321 246.55 438.68 246.55C437.056 246.55 435.664 245.97 434.504 244.81C433.344 243.634 432.764 242.225 432.764 240.585C432.764 238.994 433.344 237.602 434.504 236.408C435.664 235.215 437.056 234.619 438.68 234.619C439.774 234.619 440.777 234.9 441.688 235.464C442.583 236.011 443.304 236.732 443.851 237.626C444.381 238.521 444.646 239.507 444.646 240.585ZM444.646 183.526C444.646 185.167 444.066 186.576 442.906 187.752C441.73 188.912 440.321 189.492 438.68 189.492C437.056 189.492 435.664 188.912 434.504 187.752C433.344 186.576 432.764 185.167 432.764 183.526C432.764 181.935 433.344 180.543 434.504 179.35C435.664 178.157 437.056 177.56 438.68 177.56C439.774 177.56 440.777 177.842 441.688 178.406C442.583 178.952 443.304 179.673 443.851 180.568C444.381 181.463 444.646 182.449 444.646 183.526ZM444.646 126.468C444.646 128.109 444.066 129.517 442.906 130.694C441.73 131.854 440.321 132.434 438.68 132.434C437.056 132.434 435.664 131.854 434.504 130.694C433.344 129.517 432.764 128.109 432.764 126.468C432.764 124.877 433.344 123.485 434.504 122.292C435.664 121.099 437.056 120.502 438.68 120.502C439.774 120.502 440.777 120.784 441.688 121.347C442.583 121.894 443.304 122.615 443.851 123.51C444.381 124.405 444.646 125.391 444.646 126.468ZM444.646 69.4099C444.646 71.0505 444.066 72.4592 442.906 73.6358C441.73 74.7958 440.321 75.3758 438.68 75.3758C437.056 75.3758 435.664 74.7958 434.504 73.6358C433.344 72.4592 432.764 71.0505 432.764 69.4099C432.764 67.819 433.344 66.427 434.504 65.2338C435.664 64.0406 437.056 63.444 438.68 63.444C439.774 63.444 440.777 63.7257 441.688 64.2892C442.583 64.836 443.304 65.5569 443.851 66.4518C444.381 67.3467 444.646 68.3327 444.646 69.4099ZM444.646 12.3517C444.646 13.9923 444.066 15.4009 442.906 16.5776C441.73 17.7376 440.321 18.3176 438.68 18.3176C437.056 18.3176 435.664 17.7376 434.504 16.5776C433.344 15.4009 432.764 13.9923 432.764 12.3517C432.764 10.7608 433.344 9.36874 434.504 8.17556C435.664 6.98238 437.056 6.38579 438.68 6.38579C439.774 6.38579 440.777 6.66751 441.688 7.23096C442.583 7.77783 443.304 8.49872 443.851 9.3936C444.381 10.2885 444.646 11.2745 444.646 12.3517ZM444.646 -44.7065C444.646 -43.0659 444.066 -41.6573 442.906 -40.4806C441.73 -39.3206 440.321 -38.7406 438.68 -38.7406C437.056 -38.7406 435.664 -39.3206 434.504 -40.4806C433.344 -41.6573 432.764 -43.0659 432.764 -44.7065C432.764 -46.2974 433.344 -47.6895 434.504 -48.8826C435.664 -50.0758 437.056 -50.6724 438.68 -50.6724C439.774 -50.6724 440.777 -50.3907 441.688 -49.8272C442.583 -49.2804 443.304 -48.5595 443.851 -47.6646C444.381 -46.7697 444.646 -45.7837 444.646 -44.7065ZM444.646 -101.765C444.646 -100.124 444.066 -98.7155 442.906 -97.5388C441.73 -96.3788 440.321 -95.7988 438.68 -95.7988C437.056 -95.7988 435.664 -96.3788 434.504 -97.5388C433.344 -98.7155 432.764 -100.124 432.764 -101.765C432.764 -103.356 433.344 -104.748 434.504 -105.941C435.664 -107.134 437.056 -107.731 438.68 -107.731C439.774 -107.731 440.777 -107.449 441.688 -106.885C442.583 -106.339 443.304 -105.618 443.851 -104.723C444.381 -103.828 444.646 -102.842 444.646 -101.765ZM444.646 -158.823C444.646 -157.182 444.066 -155.774 442.906 -154.597C441.73 -153.437 440.321 -152.857 438.68 -152.857C437.056 -152.857 435.664 -153.437 434.504 -154.597C433.344 -155.774 432.764 -157.182 432.764 -158.823C432.764 -160.414 433.344 -161.806 434.504 -162.999C435.664 -164.192 437.056 -164.789 438.68 -164.789C439.774 -164.789 440.777 -164.507 441.688 -163.944C442.583 -163.397 443.304 -162.676 443.851 -161.781C444.381 -160.886 444.646 -159.9 444.646 -158.823ZM444.646 -215.881C444.646 -214.24 444.066 -212.832 442.906 -211.655C441.73 -210.495 440.321 -209.915 438.68 -209.915C437.056 -209.915 435.664 -210.495 434.504 -211.655C433.344 -212.832 432.764 -214.24 432.764 -215.881C432.764 -217.472 433.344 -218.864 434.504 -220.057C435.664 -221.25 437.056 -221.847 438.68 -221.847C439.774 -221.847 440.777 -221.565 441.688 -221.002C442.583 -220.455 443.304 -219.734 443.851 -218.839C444.381 -217.944 444.646 -216.958 444.646 -215.881ZM444.646 -272.939C444.646 -271.299 444.066 -269.89 442.906 -268.713C441.73 -267.553 440.321 -266.973 438.68 -266.973C437.056 -266.973 435.664 -267.553 434.504 -268.713C433.344 -269.89 432.764 -271.299 432.764 -272.939C432.764 -274.53 433.344 -275.922 434.504 -277.115C435.664 -278.309 437.056 -278.905 438.68 -278.905C439.774 -278.905 440.777 -278.623 441.688 -278.06C442.583 -277.513 443.304 -276.792 443.851 -275.897C444.381 -275.002 444.646 -274.016 444.646 -272.939ZM444.646 -329.998C444.646 -328.357 444.066 -326.948 442.906 -325.772C441.73 -324.612 440.321 -324.032 438.68 -324.032C437.056 -324.032 435.664 -324.612 434.504 -325.772C433.344 -326.948 432.764 -328.357 432.764 -329.998C432.764 -331.588 433.344 -332.98 434.504 -334.174C435.664 -335.367 437.056 -335.963 438.68 -335.963C439.774 -335.963 440.777 -335.682 441.688 -335.118C442.583 -334.571 443.304 -333.85 443.851 -332.956C444.381 -332.061 444.646 -331.075 444.646 -329.998ZM444.646 -387.056C444.646 -385.415 444.066 -384.006 442.906 -382.83C441.73 -381.67 440.321 -381.09 438.68 -381.09C437.056 -381.09 435.664 -381.67 434.504 -382.83C433.344 -384.006 432.764 -385.415 432.764 -387.056C432.764 -388.647 433.344 -390.039 434.504 -391.232C435.664 -392.425 437.056 -393.022 438.68 -393.022C439.774 -393.022 440.777 -392.74 441.688 -392.176C442.583 -391.63 443.304 -390.909 443.851 -390.014C444.381 -389.119 444.646 -388.133 444.646 -387.056ZM444.646 -444.114C444.646 -442.473 444.066 -441.065 442.906 -439.888C441.73 -438.728 440.321 -438.148 438.68 -438.148C437.056 -438.148 435.664 -438.728 434.504 -439.888C433.344 -441.065 432.764 -442.473 432.764 -444.114C432.764 -445.705 433.344 -447.097 434.504 -448.29C435.664 -449.483 437.056 -450.08 438.68 -450.08C439.774 -450.08 440.777 -449.798 441.688 -449.235C442.583 -448.688 443.304 -447.967 443.851 -447.072C444.381 -446.177 444.646 -445.191 444.646 -444.114ZM444.646 -501.172C444.646 -499.532 444.066 -498.123 442.906 -496.946C441.73 -495.786 440.321 -495.206 438.68 -495.206C437.056 -495.206 435.664 -495.786 434.504 -496.946C433.344 -498.123 432.764 -499.532 432.764 -501.172C432.764 -502.763 433.344 -504.155 434.504 -505.348C435.664 -506.541 437.056 -507.138 438.68 -507.138C439.774 -507.138 440.777 -506.856 441.688 -506.293C442.583 -505.746 443.304 -505.025 443.851 -504.13C444.381 -503.235 444.646 -502.249 444.646 -501.172ZM444.646 -558.23C444.646 -556.59 444.066 -555.181 442.906 -554.004C441.73 -552.844 440.321 -552.264 438.68 -552.264C437.056 -552.264 435.664 -552.844 434.504 -554.004C433.344 -555.181 432.764 -556.59 432.764 -558.23C432.764 -559.821 433.344 -561.213 434.504 -562.406C435.664 -563.6 437.056 -564.196 438.68 -564.196C439.774 -564.196 440.777 -563.914 441.688 -563.351C442.583 -562.804 443.304 -562.083 443.851 -561.188C444.381 -560.294 444.646 -559.307 444.646 -558.23Z" fill="#F5F5F5"/>
<path d="M412.646 240.585C412.646 242.225 412.066 243.634 410.906 244.81C409.73 245.97 408.321 246.55 406.68 246.55C405.056 246.55 403.664 245.97 402.504 244.81C401.344 243.634 400.764 242.225 400.764 240.585C400.764 238.994 401.344 237.602 402.504 236.408C403.664 235.215 405.056 234.619 406.68 234.619C407.774 234.619 408.777 234.9 409.688 235.464C410.583 236.011 411.304 236.732 411.851 237.626C412.381 238.521 412.646 239.507 412.646 240.585ZM412.646 183.526C412.646 185.167 412.066 186.576 410.906 187.752C409.73 188.912 408.321 189.492 406.68 189.492C405.056 189.492 403.664 188.912 402.504 187.752C401.344 186.576 400.764 185.167 400.764 183.526C400.764 181.935 401.344 180.543 402.504 179.35C403.664 178.157 405.056 177.56 406.68 177.56C407.774 177.56 408.777 177.842 409.688 178.406C410.583 178.952 411.304 179.673 411.851 180.568C412.381 181.463 412.646 182.449 412.646 183.526ZM412.646 126.468C412.646 128.109 412.066 129.517 410.906 130.694C409.73 131.854 408.321 132.434 406.68 132.434C405.056 132.434 403.664 131.854 402.504 130.694C401.344 129.517 400.764 128.109 400.764 126.468C400.764 124.877 401.344 123.485 402.504 122.292C403.664 121.099 405.056 120.502 406.68 120.502C407.774 120.502 408.777 120.784 409.688 121.347C410.583 121.894 411.304 122.615 411.851 123.51C412.381 124.405 412.646 125.391 412.646 126.468ZM412.646 69.4099C412.646 71.0505 412.066 72.4592 410.906 73.6358C409.73 74.7958 408.321 75.3758 406.68 75.3758C405.056 75.3758 403.664 74.7958 402.504 73.6358C401.344 72.4592 400.764 71.0505 400.764 69.4099C400.764 67.819 401.344 66.427 402.504 65.2338C403.664 64.0406 405.056 63.444 406.68 63.444C407.774 63.444 408.777 63.7257 409.688 64.2892C410.583 64.836 411.304 65.5569 411.851 66.4518C412.381 67.3467 412.646 68.3327 412.646 69.4099ZM412.646 12.3517C412.646 13.9923 412.066 15.4009 410.906 16.5776C409.73 17.7376 408.321 18.3176 406.68 18.3176C405.056 18.3176 403.664 17.7376 402.504 16.5776C401.344 15.4009 400.764 13.9923 400.764 12.3517C400.764 10.7608 401.344 9.36874 402.504 8.17556C403.664 6.98238 405.056 6.38579 406.68 6.38579C407.774 6.38579 408.777 6.66751 409.688 7.23096C410.583 7.77783 411.304 8.49872 411.851 9.3936C412.381 10.2885 412.646 11.2745 412.646 12.3517Z" fill="#F5F5F5"/>
<path d="M572.146 241.085C572.146 242.725 571.566 244.134 570.406 245.31C569.23 246.47 567.821 247.05 566.18 247.05C564.556 247.05 563.164 246.47 562.004 245.31C560.844 244.134 560.264 242.725 560.264 241.085C560.264 239.494 560.844 238.102 562.004 236.908C563.164 235.715 564.556 235.119 566.18 235.119C567.274 235.119 568.277 235.4 569.188 235.964C570.083 236.511 570.804 237.232 571.351 238.126C571.881 239.021 572.146 240.007 572.146 241.085ZM572.146 184.026C572.146 185.667 571.566 187.076 570.406 188.252C569.23 189.412 567.821 189.992 566.18 189.992C564.556 189.992 563.164 189.412 562.004 188.252C560.844 187.076 560.264 185.667 560.264 184.026C560.264 182.435 560.844 181.043 562.004 179.85C563.164 178.657 564.556 178.06 566.18 178.06C567.274 178.06 568.277 178.342 569.188 178.906C570.083 179.452 570.804 180.173 571.351 181.068C571.881 181.963 572.146 182.949 572.146 184.026ZM572.146 126.968C572.146 128.609 571.566 130.017 570.406 131.194C569.23 132.354 567.821 132.934 566.18 132.934C564.556 132.934 563.164 132.354 562.004 131.194C560.844 130.017 560.264 128.609 560.264 126.968C560.264 125.377 560.844 123.985 562.004 122.792C563.164 121.599 564.556 121.002 566.18 121.002C567.274 121.002 568.277 121.284 569.188 121.847C570.083 122.394 570.804 123.115 571.351 124.01C571.881 124.905 572.146 125.891 572.146 126.968ZM572.146 69.9099C572.146 71.5505 571.566 72.9592 570.406 74.1358C569.23 75.2958 567.821 75.8758 566.18 75.8758C564.556 75.8758 563.164 75.2958 562.004 74.1358C560.844 72.9592 560.264 71.5505 560.264 69.9099C560.264 68.319 560.844 66.927 562.004 65.7338C563.164 64.5406 564.556 63.944 566.18 63.944C567.274 63.944 568.277 64.2257 569.188 64.7892C570.083 65.336 570.804 66.0569 571.351 66.9518C571.881 67.8467 572.146 68.8327 572.146 69.9099ZM572.146 12.8517C572.146 14.4923 571.566 15.9009 570.406 17.0776C569.23 18.2376 567.821 18.8176 566.18 18.8176C564.556 18.8176 563.164 18.2376 562.004 17.0776C560.844 15.9009 560.264 14.4923 560.264 12.8517C560.264 11.2608 560.844 9.86874 562.004 8.67556C563.164 7.48238 564.556 6.88579 566.18 6.88579C567.274 6.88579 568.277 7.16751 569.188 7.73096C570.083 8.27783 570.804 8.99872 571.351 9.8936C571.881 10.7885 572.146 11.7745 572.146 12.8517Z" fill="#F5F5F5"/>
<path d="M540.146 241.085C540.146 242.725 539.566 244.134 538.406 245.31C537.23 246.47 535.821 247.05 534.18 247.05C532.556 247.05 531.164 246.47 530.004 245.31C528.844 244.134 528.264 242.725 528.264 241.085C528.264 239.494 528.844 238.102 530.004 236.908C531.164 235.715 532.556 235.119 534.18 235.119C535.274 235.119 536.277 235.4 537.188 235.964C538.083 236.511 538.804 237.232 539.351 238.126C539.881 239.021 540.146 240.007 540.146 241.085ZM540.146 184.026C540.146 185.667 539.566 187.076 538.406 188.252C537.23 189.412 535.821 189.992 534.18 189.992C532.556 189.992 531.164 189.412 530.004 188.252C528.844 187.076 528.264 185.667 528.264 184.026C528.264 182.435 528.844 181.043 530.004 179.85C531.164 178.657 532.556 178.06 534.18 178.06C535.274 178.06 536.277 178.342 537.188 178.906C538.083 179.452 538.804 180.173 539.351 181.068C539.881 181.963 540.146 182.949 540.146 184.026ZM540.146 126.968C540.146 128.609 539.566 130.017 538.406 131.194C537.23 132.354 535.821 132.934 534.18 132.934C532.556 132.934 531.164 132.354 530.004 131.194C528.844 130.017 528.264 128.609 528.264 126.968C528.264 125.377 528.844 123.985 530.004 122.792C531.164 121.599 532.556 121.002 534.18 121.002C535.274 121.002 536.277 121.284 537.188 121.847C538.083 122.394 538.804 123.115 539.351 124.01C539.881 124.905 540.146 125.891 540.146 126.968ZM540.146 69.9099C540.146 71.5505 539.566 72.9592 538.406 74.1358C537.23 75.2958 535.821 75.8758 534.18 75.8758C532.556 75.8758 531.164 75.2958 530.004 74.1358C528.844 72.9592 528.264 71.5505 528.264 69.9099C528.264 68.319 528.844 66.927 530.004 65.7338C531.164 64.5406 532.556 63.944 534.18 63.944C535.274 63.944 536.277 64.2257 537.188 64.7892C538.083 65.336 538.804 66.0569 539.351 66.9518C539.881 67.8467 540.146 68.8327 540.146 69.9099ZM540.146 12.8517C540.146 14.4923 539.566 15.9009 538.406 17.0776C537.23 18.2376 535.821 18.8176 534.18 18.8176C532.556 18.8176 531.164 18.2376 530.004 17.0776C528.844 15.9009 528.264 14.4923 528.264 12.8517C528.264 11.2608 528.844 9.86874 530.004 8.67556C531.164 7.48238 532.556 6.88579 534.18 6.88579C535.274 6.88579 536.277 7.16751 537.188 7.73096C538.083 8.27783 538.804 8.99872 539.351 9.8936C539.881 10.7885 540.146 11.7745 540.146 12.8517Z" fill="#F5F5F5"/>
<path d="M505.146 241.085C505.146 242.725 504.566 244.134 503.406 245.31C502.23 246.47 500.821 247.05 499.18 247.05C497.556 247.05 496.164 246.47 495.004 245.31C493.844 244.134 493.264 242.725 493.264 241.085C493.264 239.494 493.844 238.102 495.004 236.908C496.164 235.715 497.556 235.119 499.18 235.119C500.274 235.119 501.277 235.4 502.188 235.964C503.083 236.511 503.804 237.232 504.351 238.126C504.881 239.021 505.146 240.007 505.146 241.085ZM505.146 184.026C505.146 185.667 504.566 187.076 503.406 188.252C502.23 189.412 500.821 189.992 499.18 189.992C497.556 189.992 496.164 189.412 495.004 188.252C493.844 187.076 493.264 185.667 493.264 184.026C493.264 182.435 493.844 181.043 495.004 179.85C496.164 178.657 497.556 178.06 499.18 178.06C500.274 178.06 501.277 178.342 502.188 178.906C503.083 179.452 503.804 180.173 504.351 181.068C504.881 181.963 505.146 182.949 505.146 184.026ZM505.146 126.968C505.146 128.609 504.566 130.017 503.406 131.194C502.23 132.354 500.821 132.934 499.18 132.934C497.556 132.934 496.164 132.354 495.004 131.194C493.844 130.017 493.264 128.609 493.264 126.968C493.264 125.377 493.844 123.985 495.004 122.792C496.164 121.599 497.556 121.002 499.18 121.002C500.274 121.002 501.277 121.284 502.188 121.847C503.083 122.394 503.804 123.115 504.351 124.01C504.881 124.905 505.146 125.891 505.146 126.968ZM505.146 69.9099C505.146 71.5505 504.566 72.9592 503.406 74.1358C502.23 75.2958 500.821 75.8758 499.18 75.8758C497.556 75.8758 496.164 75.2958 495.004 74.1358C493.844 72.9592 493.264 71.5505 493.264 69.9099C493.264 68.319 493.844 66.927 495.004 65.7338C496.164 64.5406 497.556 63.944 499.18 63.944C500.274 63.944 501.277 64.2257 502.188 64.7892C503.083 65.336 503.804 66.0569 504.351 66.9518C504.881 67.8467 505.146 68.8327 505.146 69.9099ZM505.146 12.8517C505.146 14.4923 504.566 15.9009 503.406 17.0776C502.23 18.2376 500.821 18.8176 499.18 18.8176C497.556 18.8176 496.164 18.2376 495.004 17.0776C493.844 15.9009 493.264 14.4923 493.264 12.8517C493.264 11.2608 493.844 9.86874 495.004 8.67556C496.164 7.48238 497.556 6.88579 499.18 6.88579C500.274 6.88579 501.277 7.16751 502.188 7.73096C503.083 8.27783 503.804 8.99872 504.351 9.8936C504.881 10.7885 505.146 11.7745 505.146 12.8517Z" fill="#F5F5F5"/>
<path opacity="0.48" d="M2171 780C2171 889.352 2082.35 978 1973 978C1863.65 978 1775 889.352 1775 780C1775 670.648 1863.65 582 1973 582C2082.35 582 2171 670.648 2171 780ZM1895.34 780C1895.34 822.892 1930.11 857.663 1973 857.663C2015.89 857.663 2050.66 822.892 2050.66 780C2050.66 737.108 2015.89 702.337 1973 702.337C1930.11 702.337 1895.34 737.108 1895.34 780Z" fill="#F1F1F1"/>
<path d="M1499.42 548.646C1497.77 548.646 1496.37 548.066 1495.19 546.906C1494.03 545.73 1493.45 544.321 1493.45 542.68C1493.45 541.056 1494.03 539.664 1495.19 538.504C1496.37 537.344 1497.77 536.764 1499.42 536.764C1501.01 536.764 1502.4 537.344 1503.59 538.504C1504.78 539.664 1505.38 541.056 1505.38 542.68C1505.38 543.774 1505.1 544.777 1504.54 545.688C1503.99 546.583 1503.27 547.304 1502.37 547.851C1501.48 548.381 1500.49 548.646 1499.42 548.646ZM1556.47 548.646C1554.83 548.646 1553.42 548.066 1552.25 546.906C1551.09 545.73 1550.51 544.321 1550.51 542.68C1550.51 541.056 1551.09 539.664 1552.25 538.504C1553.42 537.344 1554.83 536.764 1556.47 536.764C1558.06 536.764 1559.46 537.344 1560.65 538.504C1561.84 539.664 1562.44 541.056 1562.44 542.68C1562.44 543.774 1562.16 544.777 1561.59 545.688C1561.05 546.583 1560.33 547.304 1559.43 547.851C1558.54 548.381 1557.55 548.646 1556.47 548.646ZM1613.53 548.646C1611.89 548.646 1610.48 548.066 1609.31 546.906C1608.15 545.73 1607.57 544.321 1607.57 542.68C1607.57 541.056 1608.15 539.664 1609.31 538.504C1610.48 537.344 1611.89 536.764 1613.53 536.764C1615.12 536.764 1616.51 537.344 1617.71 538.504C1618.9 539.664 1619.5 541.056 1619.5 542.68C1619.5 543.774 1619.22 544.777 1618.65 545.688C1618.11 546.583 1617.38 547.304 1616.49 547.851C1615.6 548.381 1614.61 548.646 1613.53 548.646ZM1670.59 548.646C1668.95 548.646 1667.54 548.066 1666.36 546.906C1665.2 545.73 1664.62 544.321 1664.62 542.68C1664.62 541.056 1665.2 539.664 1666.36 538.504C1667.54 537.344 1668.95 536.764 1670.59 536.764C1672.18 536.764 1673.57 537.344 1674.77 538.504C1675.96 539.664 1676.56 541.056 1676.56 542.68C1676.56 543.774 1676.27 544.777 1675.71 545.688C1675.16 546.583 1674.44 547.304 1673.55 547.851C1672.65 548.381 1671.67 548.646 1670.59 548.646ZM1727.65 548.646C1726.01 548.646 1724.6 548.066 1723.42 546.906C1722.26 545.73 1721.68 544.321 1721.68 542.68C1721.68 541.056 1722.26 539.664 1723.42 538.504C1724.6 537.344 1726.01 536.764 1727.65 536.764C1729.24 536.764 1730.63 537.344 1731.82 538.504C1733.02 539.664 1733.61 541.056 1733.61 542.68C1733.61 543.774 1733.33 544.777 1732.77 545.688C1732.22 546.583 1731.5 547.304 1730.61 547.851C1729.71 548.381 1728.73 548.646 1727.65 548.646ZM1784.71 548.646C1783.07 548.646 1781.66 548.066 1780.48 546.906C1779.32 545.73 1778.74 544.321 1778.74 542.68C1778.74 541.056 1779.32 539.664 1780.48 538.504C1781.66 537.344 1783.07 536.764 1784.71 536.764C1786.3 536.764 1787.69 537.344 1788.88 538.504C1790.08 539.664 1790.67 541.056 1790.67 542.68C1790.67 543.774 1790.39 544.777 1789.83 545.688C1789.28 546.583 1788.56 547.304 1787.66 547.851C1786.77 548.381 1785.78 548.646 1784.71 548.646ZM1841.76 548.646C1840.12 548.646 1838.72 548.066 1837.54 546.906C1836.38 545.73 1835.8 544.321 1835.8 542.68C1835.8 541.056 1836.38 539.664 1837.54 538.504C1838.72 537.344 1840.12 536.764 1841.76 536.764C1843.36 536.764 1844.75 537.344 1845.94 538.504C1847.13 539.664 1847.73 541.056 1847.73 542.68C1847.73 543.774 1847.45 544.777 1846.89 545.688C1846.34 546.583 1845.62 547.304 1844.72 547.851C1843.83 548.381 1842.84 548.646 1841.76 548.646ZM1898.82 548.646C1897.18 548.646 1895.77 548.066 1894.6 546.906C1893.44 545.73 1892.86 544.321 1892.86 542.68C1892.86 541.056 1893.44 539.664 1894.6 538.504C1895.77 537.344 1897.18 536.764 1898.82 536.764C1900.41 536.764 1901.81 537.344 1903 538.504C1904.19 539.664 1904.79 541.056 1904.79 542.68C1904.79 543.774 1904.51 544.777 1903.94 545.688C1903.4 546.583 1902.68 547.304 1901.78 547.851C1900.89 548.381 1899.9 548.646 1898.82 548.646ZM1955.88 548.646C1954.24 548.646 1952.83 548.066 1951.66 546.906C1950.5 545.73 1949.92 544.321 1949.92 542.68C1949.92 541.056 1950.5 539.664 1951.66 538.504C1952.83 537.344 1954.24 536.764 1955.88 536.764C1957.47 536.764 1958.86 537.344 1960.06 538.504C1961.25 539.664 1961.85 541.056 1961.85 542.68C1961.85 543.774 1961.57 544.777 1961 545.688C1960.45 546.583 1959.73 547.304 1958.84 547.851C1957.94 548.381 1956.96 548.646 1955.88 548.646ZM2012.94 548.646C2011.3 548.646 2009.89 548.066 2008.71 546.906C2007.55 545.73 2006.97 544.321 2006.97 542.68C2006.97 541.056 2007.55 539.664 2008.71 538.504C2009.89 537.344 2011.3 536.764 2012.94 536.764C2014.53 536.764 2015.92 537.344 2017.12 538.504C2018.31 539.664 2018.91 541.056 2018.91 542.68C2018.91 543.774 2018.62 544.777 2018.06 545.688C2017.51 546.583 2016.79 547.304 2015.9 547.851C2015 548.381 2014.02 548.646 2012.94 548.646ZM2070 548.646C2068.36 548.646 2066.95 548.066 2065.77 546.906C2064.61 545.73 2064.03 544.321 2064.03 542.68C2064.03 541.056 2064.61 539.664 2065.77 538.504C2066.95 537.344 2068.36 536.764 2070 536.764C2071.59 536.764 2072.98 537.344 2074.17 538.504C2075.37 539.664 2075.96 541.056 2075.96 542.68C2075.96 543.774 2075.68 544.777 2075.12 545.688C2074.57 546.583 2073.85 547.304 2072.96 547.851C2072.06 548.381 2071.07 548.646 2070 548.646ZM2127.06 548.646C2125.42 548.646 2124.01 548.066 2122.83 546.906C2121.67 545.73 2121.09 544.321 2121.09 542.68C2121.09 541.056 2121.67 539.664 2122.83 538.504C2124.01 537.344 2125.42 536.764 2127.06 536.764C2128.65 536.764 2130.04 537.344 2131.23 538.504C2132.43 539.664 2133.02 541.056 2133.02 542.68C2133.02 543.774 2132.74 544.777 2132.18 545.688C2131.63 546.583 2130.91 547.304 2130.01 547.851C2129.12 548.381 2128.13 548.646 2127.06 548.646ZM2184.11 548.646C2182.47 548.646 2181.06 548.066 2179.89 546.906C2178.73 545.73 2178.15 544.321 2178.15 542.68C2178.15 541.056 2178.73 539.664 2179.89 538.504C2181.06 537.344 2182.47 536.764 2184.11 536.764C2185.7 536.764 2187.1 537.344 2188.29 538.504C2189.48 539.664 2190.08 541.056 2190.08 542.68C2190.08 543.774 2189.8 544.777 2189.23 545.688C2188.69 546.583 2187.97 547.304 2187.07 547.851C2186.18 548.381 2185.19 548.646 2184.11 548.646ZM2241.17 548.646C2239.53 548.646 2238.12 548.066 2236.95 546.906C2235.79 545.73 2235.21 544.321 2235.21 542.68C2235.21 541.056 2235.79 539.664 2236.95 538.504C2238.12 537.344 2239.53 536.764 2241.17 536.764C2242.76 536.764 2244.16 537.344 2245.35 538.504C2246.54 539.664 2247.14 541.056 2247.14 542.68C2247.14 543.774 2246.86 544.777 2246.29 545.688C2245.75 546.583 2245.03 547.304 2244.13 547.851C2243.24 548.381 2242.25 548.646 2241.17 548.646ZM2298.23 548.646C2296.59 548.646 2295.18 548.066 2294 546.906C2292.84 545.73 2292.26 544.321 2292.26 542.68C2292.26 541.056 2292.84 539.664 2294 538.504C2295.18 537.344 2296.59 536.764 2298.23 536.764C2299.82 536.764 2301.21 537.344 2302.41 538.504C2303.6 539.664 2304.2 541.056 2304.2 542.68C2304.2 543.774 2303.91 544.777 2303.35 545.688C2302.8 546.583 2302.08 547.304 2301.19 547.851C2300.29 548.381 2299.31 548.646 2298.23 548.646Z" fill="#0C0C0C"/>
<path d="M1499.42 516.646C1497.77 516.646 1496.37 516.066 1495.19 514.906C1494.03 513.73 1493.45 512.321 1493.45 510.68C1493.45 509.056 1494.03 507.664 1495.19 506.504C1496.37 505.344 1497.77 504.764 1499.42 504.764C1501.01 504.764 1502.4 505.344 1503.59 506.504C1504.78 507.664 1505.38 509.056 1505.38 510.68C1505.38 511.774 1505.1 512.777 1504.54 513.688C1503.99 514.583 1503.27 515.304 1502.37 515.851C1501.48 516.381 1500.49 516.646 1499.42 516.646ZM1556.47 516.646C1554.83 516.646 1553.42 516.066 1552.25 514.906C1551.09 513.73 1550.51 512.321 1550.51 510.68C1550.51 509.056 1551.09 507.664 1552.25 506.504C1553.42 505.344 1554.83 504.764 1556.47 504.764C1558.06 504.764 1559.46 505.344 1560.65 506.504C1561.84 507.664 1562.44 509.056 1562.44 510.68C1562.44 511.774 1562.16 512.777 1561.59 513.688C1561.05 514.583 1560.33 515.304 1559.43 515.851C1558.54 516.381 1557.55 516.646 1556.47 516.646ZM1613.53 516.646C1611.89 516.646 1610.48 516.066 1609.31 514.906C1608.15 513.73 1607.57 512.321 1607.57 510.68C1607.57 509.056 1608.15 507.664 1609.31 506.504C1610.48 505.344 1611.89 504.764 1613.53 504.764C1615.12 504.764 1616.51 505.344 1617.71 506.504C1618.9 507.664 1619.5 509.056 1619.5 510.68C1619.5 511.774 1619.22 512.777 1618.65 513.688C1618.11 514.583 1617.38 515.304 1616.49 515.851C1615.6 516.381 1614.61 516.646 1613.53 516.646ZM1670.59 516.646C1668.95 516.646 1667.54 516.066 1666.36 514.906C1665.2 513.73 1664.62 512.321 1664.62 510.68C1664.62 509.056 1665.2 507.664 1666.36 506.504C1667.54 505.344 1668.95 504.764 1670.59 504.764C1672.18 504.764 1673.57 505.344 1674.77 506.504C1675.96 507.664 1676.56 509.056 1676.56 510.68C1676.56 511.774 1676.27 512.777 1675.71 513.688C1675.16 514.583 1674.44 515.304 1673.55 515.851C1672.65 516.381 1671.67 516.646 1670.59 516.646ZM1727.65 516.646C1726.01 516.646 1724.6 516.066 1723.42 514.906C1722.26 513.73 1721.68 512.321 1721.68 510.68C1721.68 509.056 1722.26 507.664 1723.42 506.504C1724.6 505.344 1726.01 504.764 1727.65 504.764C1729.24 504.764 1730.63 505.344 1731.82 506.504C1733.02 507.664 1733.61 509.056 1733.61 510.68C1733.61 511.774 1733.33 512.777 1732.77 513.688C1732.22 514.583 1731.5 515.304 1730.61 515.851C1729.71 516.381 1728.73 516.646 1727.65 516.646ZM1784.71 516.646C1783.07 516.646 1781.66 516.066 1780.48 514.906C1779.32 513.73 1778.74 512.321 1778.74 510.68C1778.74 509.056 1779.32 507.664 1780.48 506.504C1781.66 505.344 1783.07 504.764 1784.71 504.764C1786.3 504.764 1787.69 505.344 1788.88 506.504C1790.08 507.664 1790.67 509.056 1790.67 510.68C1790.67 511.774 1790.39 512.777 1789.83 513.688C1789.28 514.583 1788.56 515.304 1787.66 515.851C1786.77 516.381 1785.78 516.646 1784.71 516.646ZM1841.76 516.646C1840.12 516.646 1838.72 516.066 1837.54 514.906C1836.38 513.73 1835.8 512.321 1835.8 510.68C1835.8 509.056 1836.38 507.664 1837.54 506.504C1838.72 505.344 1840.12 504.764 1841.76 504.764C1843.36 504.764 1844.75 505.344 1845.94 506.504C1847.13 507.664 1847.73 509.056 1847.73 510.68C1847.73 511.774 1847.45 512.777 1846.89 513.688C1846.34 514.583 1845.62 515.304 1844.72 515.851C1843.83 516.381 1842.84 516.646 1841.76 516.646ZM1898.82 516.646C1897.18 516.646 1895.77 516.066 1894.6 514.906C1893.44 513.73 1892.86 512.321 1892.86 510.68C1892.86 509.056 1893.44 507.664 1894.6 506.504C1895.77 505.344 1897.18 504.764 1898.82 504.764C1900.41 504.764 1901.81 505.344 1903 506.504C1904.19 507.664 1904.79 509.056 1904.79 510.68C1904.79 511.774 1904.51 512.777 1903.94 513.688C1903.4 514.583 1902.68 515.304 1901.78 515.851C1900.89 516.381 1899.9 516.646 1898.82 516.646ZM1955.88 516.646C1954.24 516.646 1952.83 516.066 1951.66 514.906C1950.5 513.73 1949.92 512.321 1949.92 510.68C1949.92 509.056 1950.5 507.664 1951.66 506.504C1952.83 505.344 1954.24 504.764 1955.88 504.764C1957.47 504.764 1958.86 505.344 1960.06 506.504C1961.25 507.664 1961.85 509.056 1961.85 510.68C1961.85 511.774 1961.57 512.777 1961 513.688C1960.45 514.583 1959.73 515.304 1958.84 515.851C1957.94 516.381 1956.96 516.646 1955.88 516.646ZM2012.94 516.646C2011.3 516.646 2009.89 516.066 2008.71 514.906C2007.55 513.73 2006.97 512.321 2006.97 510.68C2006.97 509.056 2007.55 507.664 2008.71 506.504C2009.89 505.344 2011.3 504.764 2012.94 504.764C2014.53 504.764 2015.92 505.344 2017.12 506.504C2018.31 507.664 2018.91 509.056 2018.91 510.68C2018.91 511.774 2018.62 512.777 2018.06 513.688C2017.51 514.583 2016.79 515.304 2015.9 515.851C2015 516.381 2014.02 516.646 2012.94 516.646ZM2070 516.646C2068.36 516.646 2066.95 516.066 2065.77 514.906C2064.61 513.73 2064.03 512.321 2064.03 510.68C2064.03 509.056 2064.61 507.664 2065.77 506.504C2066.95 505.344 2068.36 504.764 2070 504.764C2071.59 504.764 2072.98 505.344 2074.17 506.504C2075.37 507.664 2075.96 509.056 2075.96 510.68C2075.96 511.774 2075.68 512.777 2075.12 513.688C2074.57 514.583 2073.85 515.304 2072.96 515.851C2072.06 516.381 2071.07 516.646 2070 516.646ZM2127.06 516.646C2125.42 516.646 2124.01 516.066 2122.83 514.906C2121.67 513.73 2121.09 512.321 2121.09 510.68C2121.09 509.056 2121.67 507.664 2122.83 506.504C2124.01 505.344 2125.42 504.764 2127.06 504.764C2128.65 504.764 2130.04 505.344 2131.23 506.504C2132.43 507.664 2133.02 509.056 2133.02 510.68C2133.02 511.774 2132.74 512.777 2132.18 513.688C2131.63 514.583 2130.91 515.304 2130.01 515.851C2129.12 516.381 2128.13 516.646 2127.06 516.646ZM2184.11 516.646C2182.47 516.646 2181.06 516.066 2179.89 514.906C2178.73 513.73 2178.15 512.321 2178.15 510.68C2178.15 509.056 2178.73 507.664 2179.89 506.504C2181.06 505.344 2182.47 504.764 2184.11 504.764C2185.7 504.764 2187.1 505.344 2188.29 506.504C2189.48 507.664 2190.08 509.056 2190.08 510.68C2190.08 511.774 2189.8 512.777 2189.23 513.688C2188.69 514.583 2187.97 515.304 2187.07 515.851C2186.18 516.381 2185.19 516.646 2184.11 516.646ZM2241.17 516.646C2239.53 516.646 2238.12 516.066 2236.95 514.906C2235.79 513.73 2235.21 512.321 2235.21 510.68C2235.21 509.056 2235.79 507.664 2236.95 506.504C2238.12 505.344 2239.53 504.764 2241.17 504.764C2242.76 504.764 2244.16 505.344 2245.35 506.504C2246.54 507.664 2247.14 509.056 2247.14 510.68C2247.14 511.774 2246.86 512.777 2246.29 513.688C2245.75 514.583 2245.03 515.304 2244.13 515.851C2243.24 516.381 2242.25 516.646 2241.17 516.646ZM2298.23 516.646C2296.59 516.646 2295.18 516.066 2294 514.906C2292.84 513.73 2292.26 512.321 2292.26 510.68C2292.26 509.056 2292.84 507.664 2294 506.504C2295.18 505.344 2296.59 504.764 2298.23 504.764C2299.82 504.764 2301.21 505.344 2302.41 506.504C2303.6 507.664 2304.2 509.056 2304.2 510.68C2304.2 511.774 2303.91 512.777 2303.35 513.688C2302.8 514.583 2302.08 515.304 2301.19 515.851C2300.29 516.381 2299.31 516.646 2298.23 516.646Z" fill="#0C0C0C"/>
<path d="M1499.42 484.646C1497.77 484.646 1496.37 484.066 1495.19 482.906C1494.03 481.73 1493.45 480.321 1493.45 478.68C1493.45 477.056 1494.03 475.664 1495.19 474.504C1496.37 473.344 1497.77 472.764 1499.42 472.764C1501.01 472.764 1502.4 473.344 1503.59 474.504C1504.78 475.664 1505.38 477.056 1505.38 478.68C1505.38 479.774 1505.1 480.777 1504.54 481.688C1503.99 482.583 1503.27 483.304 1502.37 483.851C1501.48 484.381 1500.49 484.646 1499.42 484.646ZM1556.47 484.646C1554.83 484.646 1553.42 484.066 1552.25 482.906C1551.09 481.73 1550.51 480.321 1550.51 478.68C1550.51 477.056 1551.09 475.664 1552.25 474.504C1553.42 473.344 1554.83 472.764 1556.47 472.764C1558.06 472.764 1559.46 473.344 1560.65 474.504C1561.84 475.664 1562.44 477.056 1562.44 478.68C1562.44 479.774 1562.16 480.777 1561.59 481.688C1561.05 482.583 1560.33 483.304 1559.43 483.851C1558.54 484.381 1557.55 484.646 1556.47 484.646ZM1613.53 484.646C1611.89 484.646 1610.48 484.066 1609.31 482.906C1608.15 481.73 1607.57 480.321 1607.57 478.68C1607.57 477.056 1608.15 475.664 1609.31 474.504C1610.48 473.344 1611.89 472.764 1613.53 472.764C1615.12 472.764 1616.51 473.344 1617.71 474.504C1618.9 475.664 1619.5 477.056 1619.5 478.68C1619.5 479.774 1619.22 480.777 1618.65 481.688C1618.11 482.583 1617.38 483.304 1616.49 483.851C1615.6 484.381 1614.61 484.646 1613.53 484.646ZM1670.59 484.646C1668.95 484.646 1667.54 484.066 1666.36 482.906C1665.2 481.73 1664.62 480.321 1664.62 478.68C1664.62 477.056 1665.2 475.664 1666.36 474.504C1667.54 473.344 1668.95 472.764 1670.59 472.764C1672.18 472.764 1673.57 473.344 1674.77 474.504C1675.96 475.664 1676.56 477.056 1676.56 478.68C1676.56 479.774 1676.27 480.777 1675.71 481.688C1675.16 482.583 1674.44 483.304 1673.55 483.851C1672.65 484.381 1671.67 484.646 1670.59 484.646ZM1727.65 484.646C1726.01 484.646 1724.6 484.066 1723.42 482.906C1722.26 481.73 1721.68 480.321 1721.68 478.68C1721.68 477.056 1722.26 475.664 1723.42 474.504C1724.6 473.344 1726.01 472.764 1727.65 472.764C1729.24 472.764 1730.63 473.344 1731.82 474.504C1733.02 475.664 1733.61 477.056 1733.61 478.68C1733.61 479.774 1733.33 480.777 1732.77 481.688C1732.22 482.583 1731.5 483.304 1730.61 483.851C1729.71 484.381 1728.73 484.646 1727.65 484.646ZM1784.71 484.646C1783.07 484.646 1781.66 484.066 1780.48 482.906C1779.32 481.73 1778.74 480.321 1778.74 478.68C1778.74 477.056 1779.32 475.664 1780.48 474.504C1781.66 473.344 1783.07 472.764 1784.71 472.764C1786.3 472.764 1787.69 473.344 1788.88 474.504C1790.08 475.664 1790.67 477.056 1790.67 478.68C1790.67 479.774 1790.39 480.777 1789.83 481.688C1789.28 482.583 1788.56 483.304 1787.66 483.851C1786.77 484.381 1785.78 484.646 1784.71 484.646ZM1841.76 484.646C1840.12 484.646 1838.72 484.066 1837.54 482.906C1836.38 481.73 1835.8 480.321 1835.8 478.68C1835.8 477.056 1836.38 475.664 1837.54 474.504C1838.72 473.344 1840.12 472.764 1841.76 472.764C1843.36 472.764 1844.75 473.344 1845.94 474.504C1847.13 475.664 1847.73 477.056 1847.73 478.68C1847.73 479.774 1847.45 480.777 1846.89 481.688C1846.34 482.583 1845.62 483.304 1844.72 483.851C1843.83 484.381 1842.84 484.646 1841.76 484.646ZM1898.82 484.646C1897.18 484.646 1895.77 484.066 1894.6 482.906C1893.44 481.73 1892.86 480.321 1892.86 478.68C1892.86 477.056 1893.44 475.664 1894.6 474.504C1895.77 473.344 1897.18 472.764 1898.82 472.764C1900.41 472.764 1901.81 473.344 1903 474.504C1904.19 475.664 1904.79 477.056 1904.79 478.68C1904.79 479.774 1904.51 480.777 1903.94 481.688C1903.4 482.583 1902.68 483.304 1901.78 483.851C1900.89 484.381 1899.9 484.646 1898.82 484.646ZM1955.88 484.646C1954.24 484.646 1952.83 484.066 1951.66 482.906C1950.5 481.73 1949.92 480.321 1949.92 478.68C1949.92 477.056 1950.5 475.664 1951.66 474.504C1952.83 473.344 1954.24 472.764 1955.88 472.764C1957.47 472.764 1958.86 473.344 1960.06 474.504C1961.25 475.664 1961.85 477.056 1961.85 478.68C1961.85 479.774 1961.57 480.777 1961 481.688C1960.45 482.583 1959.73 483.304 1958.84 483.851C1957.94 484.381 1956.96 484.646 1955.88 484.646ZM2012.94 484.646C2011.3 484.646 2009.89 484.066 2008.71 482.906C2007.55 481.73 2006.97 480.321 2006.97 478.68C2006.97 477.056 2007.55 475.664 2008.71 474.504C2009.89 473.344 2011.3 472.764 2012.94 472.764C2014.53 472.764 2015.92 473.344 2017.12 474.504C2018.31 475.664 2018.91 477.056 2018.91 478.68C2018.91 479.774 2018.62 480.777 2018.06 481.688C2017.51 482.583 2016.79 483.304 2015.9 483.851C2015 484.381 2014.02 484.646 2012.94 484.646ZM2070 484.646C2068.36 484.646 2066.95 484.066 2065.77 482.906C2064.61 481.73 2064.03 480.321 2064.03 478.68C2064.03 477.056 2064.61 475.664 2065.77 474.504C2066.95 473.344 2068.36 472.764 2070 472.764C2071.59 472.764 2072.98 473.344 2074.17 474.504C2075.37 475.664 2075.96 477.056 2075.96 478.68C2075.96 479.774 2075.68 480.777 2075.12 481.688C2074.57 482.583 2073.85 483.304 2072.96 483.851C2072.06 484.381 2071.07 484.646 2070 484.646ZM2127.06 484.646C2125.42 484.646 2124.01 484.066 2122.83 482.906C2121.67 481.73 2121.09 480.321 2121.09 478.68C2121.09 477.056 2121.67 475.664 2122.83 474.504C2124.01 473.344 2125.42 472.764 2127.06 472.764C2128.65 472.764 2130.04 473.344 2131.23 474.504C2132.43 475.664 2133.02 477.056 2133.02 478.68C2133.02 479.774 2132.74 480.777 2132.18 481.688C2131.63 482.583 2130.91 483.304 2130.01 483.851C2129.12 484.381 2128.13 484.646 2127.06 484.646ZM2184.11 484.646C2182.47 484.646 2181.06 484.066 2179.89 482.906C2178.73 481.73 2178.15 480.321 2178.15 478.68C2178.15 477.056 2178.73 475.664 2179.89 474.504C2181.06 473.344 2182.47 472.764 2184.11 472.764C2185.7 472.764 2187.1 473.344 2188.29 474.504C2189.48 475.664 2190.08 477.056 2190.08 478.68C2190.08 479.774 2189.8 480.777 2189.23 481.688C2188.69 482.583 2187.97 483.304 2187.07 483.851C2186.18 484.381 2185.19 484.646 2184.11 484.646ZM2241.17 484.646C2239.53 484.646 2238.12 484.066 2236.95 482.906C2235.79 481.73 2235.21 480.321 2235.21 478.68C2235.21 477.056 2235.79 475.664 2236.95 474.504C2238.12 473.344 2239.53 472.764 2241.17 472.764C2242.76 472.764 2244.16 473.344 2245.35 474.504C2246.54 475.664 2247.14 477.056 2247.14 478.68C2247.14 479.774 2246.86 480.777 2246.29 481.688C2245.75 482.583 2245.03 483.304 2244.13 483.851C2243.24 484.381 2242.25 484.646 2241.17 484.646ZM2298.23 484.646C2296.59 484.646 2295.18 484.066 2294 482.906C2292.84 481.73 2292.26 480.321 2292.26 478.68C2292.26 477.056 2292.84 475.664 2294 474.504C2295.18 473.344 2296.59 472.764 2298.23 472.764C2299.82 472.764 2301.21 473.344 2302.41 474.504C2303.6 475.664 2304.2 477.056 2304.2 478.68C2304.2 479.774 2303.91 480.777 2303.35 481.688C2302.8 482.583 2302.08 483.304 2301.19 483.851C2300.29 484.381 2299.31 484.646 2298.23 484.646Z" fill="#0C0C0C"/>
<path d="M1499.42 453.646C1497.77 453.646 1496.37 453.066 1495.19 451.906C1494.03 450.73 1493.45 449.321 1493.45 447.68C1493.45 446.056 1494.03 444.664 1495.19 443.504C1496.37 442.344 1497.77 441.764 1499.42 441.764C1501.01 441.764 1502.4 442.344 1503.59 443.504C1504.78 444.664 1505.38 446.056 1505.38 447.68C1505.38 448.774 1505.1 449.777 1504.54 450.688C1503.99 451.583 1503.27 452.304 1502.37 452.851C1501.48 453.381 1500.49 453.646 1499.42 453.646ZM1556.47 453.646C1554.83 453.646 1553.42 453.066 1552.25 451.906C1551.09 450.73 1550.51 449.321 1550.51 447.68C1550.51 446.056 1551.09 444.664 1552.25 443.504C1553.42 442.344 1554.83 441.764 1556.47 441.764C1558.06 441.764 1559.46 442.344 1560.65 443.504C1561.84 444.664 1562.44 446.056 1562.44 447.68C1562.44 448.774 1562.16 449.777 1561.59 450.688C1561.05 451.583 1560.33 452.304 1559.43 452.851C1558.54 453.381 1557.55 453.646 1556.47 453.646ZM1613.53 453.646C1611.89 453.646 1610.48 453.066 1609.31 451.906C1608.15 450.73 1607.57 449.321 1607.57 447.68C1607.57 446.056 1608.15 444.664 1609.31 443.504C1610.48 442.344 1611.89 441.764 1613.53 441.764C1615.12 441.764 1616.51 442.344 1617.71 443.504C1618.9 444.664 1619.5 446.056 1619.5 447.68C1619.5 448.774 1619.22 449.777 1618.65 450.688C1618.11 451.583 1617.38 452.304 1616.49 452.851C1615.6 453.381 1614.61 453.646 1613.53 453.646ZM1670.59 453.646C1668.95 453.646 1667.54 453.066 1666.36 451.906C1665.2 450.73 1664.62 449.321 1664.62 447.68C1664.62 446.056 1665.2 444.664 1666.36 443.504C1667.54 442.344 1668.95 441.764 1670.59 441.764C1672.18 441.764 1673.57 442.344 1674.77 443.504C1675.96 444.664 1676.56 446.056 1676.56 447.68C1676.56 448.774 1676.27 449.777 1675.71 450.688C1675.16 451.583 1674.44 452.304 1673.55 452.851C1672.65 453.381 1671.67 453.646 1670.59 453.646ZM1727.65 453.646C1726.01 453.646 1724.6 453.066 1723.42 451.906C1722.26 450.73 1721.68 449.321 1721.68 447.68C1721.68 446.056 1722.26 444.664 1723.42 443.504C1724.6 442.344 1726.01 441.764 1727.65 441.764C1729.24 441.764 1730.63 442.344 1731.82 443.504C1733.02 444.664 1733.61 446.056 1733.61 447.68C1733.61 448.774 1733.33 449.777 1732.77 450.688C1732.22 451.583 1731.5 452.304 1730.61 452.851C1729.71 453.381 1728.73 453.646 1727.65 453.646ZM1784.71 453.646C1783.07 453.646 1781.66 453.066 1780.48 451.906C1779.32 450.73 1778.74 449.321 1778.74 447.68C1778.74 446.056 1779.32 444.664 1780.48 443.504C1781.66 442.344 1783.07 441.764 1784.71 441.764C1786.3 441.764 1787.69 442.344 1788.88 443.504C1790.08 444.664 1790.67 446.056 1790.67 447.68C1790.67 448.774 1790.39 449.777 1789.83 450.688C1789.28 451.583 1788.56 452.304 1787.66 452.851C1786.77 453.381 1785.78 453.646 1784.71 453.646ZM1841.76 453.646C1840.12 453.646 1838.72 453.066 1837.54 451.906C1836.38 450.73 1835.8 449.321 1835.8 447.68C1835.8 446.056 1836.38 444.664 1837.54 443.504C1838.72 442.344 1840.12 441.764 1841.76 441.764C1843.36 441.764 1844.75 442.344 1845.94 443.504C1847.13 444.664 1847.73 446.056 1847.73 447.68C1847.73 448.774 1847.45 449.777 1846.89 450.688C1846.34 451.583 1845.62 452.304 1844.72 452.851C1843.83 453.381 1842.84 453.646 1841.76 453.646ZM1898.82 453.646C1897.18 453.646 1895.77 453.066 1894.6 451.906C1893.44 450.73 1892.86 449.321 1892.86 447.68C1892.86 446.056 1893.44 444.664 1894.6 443.504C1895.77 442.344 1897.18 441.764 1898.82 441.764C1900.41 441.764 1901.81 442.344 1903 443.504C1904.19 444.664 1904.79 446.056 1904.79 447.68C1904.79 448.774 1904.51 449.777 1903.94 450.688C1903.4 451.583 1902.68 452.304 1901.78 452.851C1900.89 453.381 1899.9 453.646 1898.82 453.646ZM1955.88 453.646C1954.24 453.646 1952.83 453.066 1951.66 451.906C1950.5 450.73 1949.92 449.321 1949.92 447.68C1949.92 446.056 1950.5 444.664 1951.66 443.504C1952.83 442.344 1954.24 441.764 1955.88 441.764C1957.47 441.764 1958.86 442.344 1960.06 443.504C1961.25 444.664 1961.85 446.056 1961.85 447.68C1961.85 448.774 1961.57 449.777 1961 450.688C1960.45 451.583 1959.73 452.304 1958.84 452.851C1957.94 453.381 1956.96 453.646 1955.88 453.646ZM2012.94 453.646C2011.3 453.646 2009.89 453.066 2008.71 451.906C2007.55 450.73 2006.97 449.321 2006.97 447.68C2006.97 446.056 2007.55 444.664 2008.71 443.504C2009.89 442.344 2011.3 441.764 2012.94 441.764C2014.53 441.764 2015.92 442.344 2017.12 443.504C2018.31 444.664 2018.91 446.056 2018.91 447.68C2018.91 448.774 2018.62 449.777 2018.06 450.688C2017.51 451.583 2016.79 452.304 2015.9 452.851C2015 453.381 2014.02 453.646 2012.94 453.646ZM2070 453.646C2068.36 453.646 2066.95 453.066 2065.77 451.906C2064.61 450.73 2064.03 449.321 2064.03 447.68C2064.03 446.056 2064.61 444.664 2065.77 443.504C2066.95 442.344 2068.36 441.764 2070 441.764C2071.59 441.764 2072.98 442.344 2074.17 443.504C2075.37 444.664 2075.96 446.056 2075.96 447.68C2075.96 448.774 2075.68 449.777 2075.12 450.688C2074.57 451.583 2073.85 452.304 2072.96 452.851C2072.06 453.381 2071.07 453.646 2070 453.646ZM2127.06 453.646C2125.42 453.646 2124.01 453.066 2122.83 451.906C2121.67 450.73 2121.09 449.321 2121.09 447.68C2121.09 446.056 2121.67 444.664 2122.83 443.504C2124.01 442.344 2125.42 441.764 2127.06 441.764C2128.65 441.764 2130.04 442.344 2131.23 443.504C2132.43 444.664 2133.02 446.056 2133.02 447.68C2133.02 448.774 2132.74 449.777 2132.18 450.688C2131.63 451.583 2130.91 452.304 2130.01 452.851C2129.12 453.381 2128.13 453.646 2127.06 453.646ZM2184.11 453.646C2182.47 453.646 2181.06 453.066 2179.89 451.906C2178.73 450.73 2178.15 449.321 2178.15 447.68C2178.15 446.056 2178.73 444.664 2179.89 443.504C2181.06 442.344 2182.47 441.764 2184.11 441.764C2185.7 441.764 2187.1 442.344 2188.29 443.504C2189.48 444.664 2190.08 446.056 2190.08 447.68C2190.08 448.774 2189.8 449.777 2189.23 450.688C2188.69 451.583 2187.97 452.304 2187.07 452.851C2186.18 453.381 2185.19 453.646 2184.11 453.646ZM2241.17 453.646C2239.53 453.646 2238.12 453.066 2236.95 451.906C2235.79 450.73 2235.21 449.321 2235.21 447.68C2235.21 446.056 2235.79 444.664 2236.95 443.504C2238.12 442.344 2239.53 441.764 2241.17 441.764C2242.76 441.764 2244.16 442.344 2245.35 443.504C2246.54 444.664 2247.14 446.056 2247.14 447.68C2247.14 448.774 2246.86 449.777 2246.29 450.688C2245.75 451.583 2245.03 452.304 2244.13 452.851C2243.24 453.381 2242.25 453.646 2241.17 453.646ZM2298.23 453.646C2296.59 453.646 2295.18 453.066 2294 451.906C2292.84 450.73 2292.26 449.321 2292.26 447.68C2292.26 446.056 2292.84 444.664 2294 443.504C2295.18 442.344 2296.59 441.764 2298.23 441.764C2299.82 441.764 2301.21 442.344 2302.41 443.504C2303.6 444.664 2304.2 446.056 2304.2 447.68C2304.2 448.774 2303.91 449.777 2303.35 450.688C2302.8 451.583 2302.08 452.304 2301.19 452.851C2300.29 453.381 2299.31 453.646 2298.23 453.646Z" fill="#0C0C0C"/>
<path d="M1499.42 421.646C1497.77 421.646 1496.37 421.066 1495.19 419.906C1494.03 418.73 1493.45 417.321 1493.45 415.68C1493.45 414.056 1494.03 412.664 1495.19 411.504C1496.37 410.344 1497.77 409.764 1499.42 409.764C1501.01 409.764 1502.4 410.344 1503.59 411.504C1504.78 412.664 1505.38 414.056 1505.38 415.68C1505.38 416.774 1505.1 417.777 1504.54 418.688C1503.99 419.583 1503.27 420.304 1502.37 420.851C1501.48 421.381 1500.49 421.646 1499.42 421.646ZM1556.47 421.646C1554.83 421.646 1553.42 421.066 1552.25 419.906C1551.09 418.73 1550.51 417.321 1550.51 415.68C1550.51 414.056 1551.09 412.664 1552.25 411.504C1553.42 410.344 1554.83 409.764 1556.47 409.764C1558.06 409.764 1559.46 410.344 1560.65 411.504C1561.84 412.664 1562.44 414.056 1562.44 415.68C1562.44 416.774 1562.16 417.777 1561.59 418.688C1561.05 419.583 1560.33 420.304 1559.43 420.851C1558.54 421.381 1557.55 421.646 1556.47 421.646ZM1613.53 421.646C1611.89 421.646 1610.48 421.066 1609.31 419.906C1608.15 418.73 1607.57 417.321 1607.57 415.68C1607.57 414.056 1608.15 412.664 1609.31 411.504C1610.48 410.344 1611.89 409.764 1613.53 409.764C1615.12 409.764 1616.51 410.344 1617.71 411.504C1618.9 412.664 1619.5 414.056 1619.5 415.68C1619.5 416.774 1619.22 417.777 1618.65 418.688C1618.11 419.583 1617.38 420.304 1616.49 420.851C1615.6 421.381 1614.61 421.646 1613.53 421.646ZM1670.59 421.646C1668.95 421.646 1667.54 421.066 1666.36 419.906C1665.2 418.73 1664.62 417.321 1664.62 415.68C1664.62 414.056 1665.2 412.664 1666.36 411.504C1667.54 410.344 1668.95 409.764 1670.59 409.764C1672.18 409.764 1673.57 410.344 1674.77 411.504C1675.96 412.664 1676.56 414.056 1676.56 415.68C1676.56 416.774 1676.27 417.777 1675.71 418.688C1675.16 419.583 1674.44 420.304 1673.55 420.851C1672.65 421.381 1671.67 421.646 1670.59 421.646ZM1727.65 421.646C1726.01 421.646 1724.6 421.066 1723.42 419.906C1722.26 418.73 1721.68 417.321 1721.68 415.68C1721.68 414.056 1722.26 412.664 1723.42 411.504C1724.6 410.344 1726.01 409.764 1727.65 409.764C1729.24 409.764 1730.63 410.344 1731.82 411.504C1733.02 412.664 1733.61 414.056 1733.61 415.68C1733.61 416.774 1733.33 417.777 1732.77 418.688C1732.22 419.583 1731.5 420.304 1730.61 420.851C1729.71 421.381 1728.73 421.646 1727.65 421.646ZM1784.71 421.646C1783.07 421.646 1781.66 421.066 1780.48 419.906C1779.32 418.73 1778.74 417.321 1778.74 415.68C1778.74 414.056 1779.32 412.664 1780.48 411.504C1781.66 410.344 1783.07 409.764 1784.71 409.764C1786.3 409.764 1787.69 410.344 1788.88 411.504C1790.08 412.664 1790.67 414.056 1790.67 415.68C1790.67 416.774 1790.39 417.777 1789.83 418.688C1789.28 419.583 1788.56 420.304 1787.66 420.851C1786.77 421.381 1785.78 421.646 1784.71 421.646ZM1841.76 421.646C1840.12 421.646 1838.72 421.066 1837.54 419.906C1836.38 418.73 1835.8 417.321 1835.8 415.68C1835.8 414.056 1836.38 412.664 1837.54 411.504C1838.72 410.344 1840.12 409.764 1841.76 409.764C1843.36 409.764 1844.75 410.344 1845.94 411.504C1847.13 412.664 1847.73 414.056 1847.73 415.68C1847.73 416.774 1847.45 417.777 1846.89 418.688C1846.34 419.583 1845.62 420.304 1844.72 420.851C1843.83 421.381 1842.84 421.646 1841.76 421.646ZM1898.82 421.646C1897.18 421.646 1895.77 421.066 1894.6 419.906C1893.44 418.73 1892.86 417.321 1892.86 415.68C1892.86 414.056 1893.44 412.664 1894.6 411.504C1895.77 410.344 1897.18 409.764 1898.82 409.764C1900.41 409.764 1901.81 410.344 1903 411.504C1904.19 412.664 1904.79 414.056 1904.79 415.68C1904.79 416.774 1904.51 417.777 1903.94 418.688C1903.4 419.583 1902.68 420.304 1901.78 420.851C1900.89 421.381 1899.9 421.646 1898.82 421.646ZM1955.88 421.646C1954.24 421.646 1952.83 421.066 1951.66 419.906C1950.5 418.73 1949.92 417.321 1949.92 415.68C1949.92 414.056 1950.5 412.664 1951.66 411.504C1952.83 410.344 1954.24 409.764 1955.88 409.764C1957.47 409.764 1958.86 410.344 1960.06 411.504C1961.25 412.664 1961.85 414.056 1961.85 415.68C1961.85 416.774 1961.57 417.777 1961 418.688C1960.45 419.583 1959.73 420.304 1958.84 420.851C1957.94 421.381 1956.96 421.646 1955.88 421.646ZM2012.94 421.646C2011.3 421.646 2009.89 421.066 2008.71 419.906C2007.55 418.73 2006.97 417.321 2006.97 415.68C2006.97 414.056 2007.55 412.664 2008.71 411.504C2009.89 410.344 2011.3 409.764 2012.94 409.764C2014.53 409.764 2015.92 410.344 2017.12 411.504C2018.31 412.664 2018.91 414.056 2018.91 415.68C2018.91 416.774 2018.62 417.777 2018.06 418.688C2017.51 419.583 2016.79 420.304 2015.9 420.851C2015 421.381 2014.02 421.646 2012.94 421.646ZM2070 421.646C2068.36 421.646 2066.95 421.066 2065.77 419.906C2064.61 418.73 2064.03 417.321 2064.03 415.68C2064.03 414.056 2064.61 412.664 2065.77 411.504C2066.95 410.344 2068.36 409.764 2070 409.764C2071.59 409.764 2072.98 410.344 2074.17 411.504C2075.37 412.664 2075.96 414.056 2075.96 415.68C2075.96 416.774 2075.68 417.777 2075.12 418.688C2074.57 419.583 2073.85 420.304 2072.96 420.851C2072.06 421.381 2071.07 421.646 2070 421.646ZM2127.06 421.646C2125.42 421.646 2124.01 421.066 2122.83 419.906C2121.67 418.73 2121.09 417.321 2121.09 415.68C2121.09 414.056 2121.67 412.664 2122.83 411.504C2124.01 410.344 2125.42 409.764 2127.06 409.764C2128.65 409.764 2130.04 410.344 2131.23 411.504C2132.43 412.664 2133.02 414.056 2133.02 415.68C2133.02 416.774 2132.74 417.777 2132.18 418.688C2131.63 419.583 2130.91 420.304 2130.01 420.851C2129.12 421.381 2128.13 421.646 2127.06 421.646ZM2184.11 421.646C2182.47 421.646 2181.06 421.066 2179.89 419.906C2178.73 418.73 2178.15 417.321 2178.15 415.68C2178.15 414.056 2178.73 412.664 2179.89 411.504C2181.06 410.344 2182.47 409.764 2184.11 409.764C2185.7 409.764 2187.1 410.344 2188.29 411.504C2189.48 412.664 2190.08 414.056 2190.08 415.68C2190.08 416.774 2189.8 417.777 2189.23 418.688C2188.69 419.583 2187.97 420.304 2187.07 420.851C2186.18 421.381 2185.19 421.646 2184.11 421.646ZM2241.17 421.646C2239.53 421.646 2238.12 421.066 2236.95 419.906C2235.79 418.73 2235.21 417.321 2235.21 415.68C2235.21 414.056 2235.79 412.664 2236.95 411.504C2238.12 410.344 2239.53 409.764 2241.17 409.764C2242.76 409.764 2244.16 410.344 2245.35 411.504C2246.54 412.664 2247.14 414.056 2247.14 415.68C2247.14 416.774 2246.86 417.777 2246.29 418.688C2245.75 419.583 2245.03 420.304 2244.13 420.851C2243.24 421.381 2242.25 421.646 2241.17 421.646ZM2298.23 421.646C2296.59 421.646 2295.18 421.066 2294 419.906C2292.84 418.73 2292.26 417.321 2292.26 415.68C2292.26 414.056 2292.84 412.664 2294 411.504C2295.18 410.344 2296.59 409.764 2298.23 409.764C2299.82 409.764 2301.21 410.344 2302.41 411.504C2303.6 412.664 2304.2 414.056 2304.2 415.68C2304.2 416.774 2303.91 417.777 2303.35 418.688C2302.8 419.583 2302.08 420.304 2301.19 420.851C2300.29 421.381 2299.31 421.646 2298.23 421.646Z" fill="#0C0C0C"/>
<path d="M1499.42 386.646C1497.77 386.646 1496.37 386.066 1495.19 384.906C1494.03 383.73 1493.45 382.321 1493.45 380.68C1493.45 379.056 1494.03 377.664 1495.19 376.504C1496.37 375.344 1497.77 374.764 1499.42 374.764C1501.01 374.764 1502.4 375.344 1503.59 376.504C1504.78 377.664 1505.38 379.056 1505.38 380.68C1505.38 381.774 1505.1 382.777 1504.54 383.688C1503.99 384.583 1503.27 385.304 1502.37 385.851C1501.48 386.381 1500.49 386.646 1499.42 386.646ZM1556.47 386.646C1554.83 386.646 1553.42 386.066 1552.25 384.906C1551.09 383.73 1550.51 382.321 1550.51 380.68C1550.51 379.056 1551.09 377.664 1552.25 376.504C1553.42 375.344 1554.83 374.764 1556.47 374.764C1558.06 374.764 1559.46 375.344 1560.65 376.504C1561.84 377.664 1562.44 379.056 1562.44 380.68C1562.44 381.774 1562.16 382.777 1561.59 383.688C1561.05 384.583 1560.33 385.304 1559.43 385.851C1558.54 386.381 1557.55 386.646 1556.47 386.646ZM1613.53 386.646C1611.89 386.646 1610.48 386.066 1609.31 384.906C1608.15 383.73 1607.57 382.321 1607.57 380.68C1607.57 379.056 1608.15 377.664 1609.31 376.504C1610.48 375.344 1611.89 374.764 1613.53 374.764C1615.12 374.764 1616.51 375.344 1617.71 376.504C1618.9 377.664 1619.5 379.056 1619.5 380.68C1619.5 381.774 1619.22 382.777 1618.65 383.688C1618.11 384.583 1617.38 385.304 1616.49 385.851C1615.6 386.381 1614.61 386.646 1613.53 386.646ZM1670.59 386.646C1668.95 386.646 1667.54 386.066 1666.36 384.906C1665.2 383.73 1664.62 382.321 1664.62 380.68C1664.62 379.056 1665.2 377.664 1666.36 376.504C1667.54 375.344 1668.95 374.764 1670.59 374.764C1672.18 374.764 1673.57 375.344 1674.77 376.504C1675.96 377.664 1676.56 379.056 1676.56 380.68C1676.56 381.774 1676.27 382.777 1675.71 383.688C1675.16 384.583 1674.44 385.304 1673.55 385.851C1672.65 386.381 1671.67 386.646 1670.59 386.646ZM1727.65 386.646C1726.01 386.646 1724.6 386.066 1723.42 384.906C1722.26 383.73 1721.68 382.321 1721.68 380.68C1721.68 379.056 1722.26 377.664 1723.42 376.504C1724.6 375.344 1726.01 374.764 1727.65 374.764C1729.24 374.764 1730.63 375.344 1731.82 376.504C1733.02 377.664 1733.61 379.056 1733.61 380.68C1733.61 381.774 1733.33 382.777 1732.77 383.688C1732.22 384.583 1731.5 385.304 1730.61 385.851C1729.71 386.381 1728.73 386.646 1727.65 386.646ZM1784.71 386.646C1783.07 386.646 1781.66 386.066 1780.48 384.906C1779.32 383.73 1778.74 382.321 1778.74 380.68C1778.74 379.056 1779.32 377.664 1780.48 376.504C1781.66 375.344 1783.07 374.764 1784.71 374.764C1786.3 374.764 1787.69 375.344 1788.88 376.504C1790.08 377.664 1790.67 379.056 1790.67 380.68C1790.67 381.774 1790.39 382.777 1789.83 383.688C1789.28 384.583 1788.56 385.304 1787.66 385.851C1786.77 386.381 1785.78 386.646 1784.71 386.646ZM1841.76 386.646C1840.12 386.646 1838.72 386.066 1837.54 384.906C1836.38 383.73 1835.8 382.321 1835.8 380.68C1835.8 379.056 1836.38 377.664 1837.54 376.504C1838.72 375.344 1840.12 374.764 1841.76 374.764C1843.36 374.764 1844.75 375.344 1845.94 376.504C1847.13 377.664 1847.73 379.056 1847.73 380.68C1847.73 381.774 1847.45 382.777 1846.89 383.688C1846.34 384.583 1845.62 385.304 1844.72 385.851C1843.83 386.381 1842.84 386.646 1841.76 386.646ZM1898.82 386.646C1897.18 386.646 1895.77 386.066 1894.6 384.906C1893.44 383.73 1892.86 382.321 1892.86 380.68C1892.86 379.056 1893.44 377.664 1894.6 376.504C1895.77 375.344 1897.18 374.764 1898.82 374.764C1900.41 374.764 1901.81 375.344 1903 376.504C1904.19 377.664 1904.79 379.056 1904.79 380.68C1904.79 381.774 1904.51 382.777 1903.94 383.688C1903.4 384.583 1902.68 385.304 1901.78 385.851C1900.89 386.381 1899.9 386.646 1898.82 386.646ZM1955.88 386.646C1954.24 386.646 1952.83 386.066 1951.66 384.906C1950.5 383.73 1949.92 382.321 1949.92 380.68C1949.92 379.056 1950.5 377.664 1951.66 376.504C1952.83 375.344 1954.24 374.764 1955.88 374.764C1957.47 374.764 1958.86 375.344 1960.06 376.504C1961.25 377.664 1961.85 379.056 1961.85 380.68C1961.85 381.774 1961.57 382.777 1961 383.688C1960.45 384.583 1959.73 385.304 1958.84 385.851C1957.94 386.381 1956.96 386.646 1955.88 386.646ZM2012.94 386.646C2011.3 386.646 2009.89 386.066 2008.71 384.906C2007.55 383.73 2006.97 382.321 2006.97 380.68C2006.97 379.056 2007.55 377.664 2008.71 376.504C2009.89 375.344 2011.3 374.764 2012.94 374.764C2014.53 374.764 2015.92 375.344 2017.12 376.504C2018.31 377.664 2018.91 379.056 2018.91 380.68C2018.91 381.774 2018.62 382.777 2018.06 383.688C2017.51 384.583 2016.79 385.304 2015.9 385.851C2015 386.381 2014.02 386.646 2012.94 386.646ZM2070 386.646C2068.36 386.646 2066.95 386.066 2065.77 384.906C2064.61 383.73 2064.03 382.321 2064.03 380.68C2064.03 379.056 2064.61 377.664 2065.77 376.504C2066.95 375.344 2068.36 374.764 2070 374.764C2071.59 374.764 2072.98 375.344 2074.17 376.504C2075.37 377.664 2075.96 379.056 2075.96 380.68C2075.96 381.774 2075.68 382.777 2075.12 383.688C2074.57 384.583 2073.85 385.304 2072.96 385.851C2072.06 386.381 2071.07 386.646 2070 386.646ZM2127.06 386.646C2125.42 386.646 2124.01 386.066 2122.83 384.906C2121.67 383.73 2121.09 382.321 2121.09 380.68C2121.09 379.056 2121.67 377.664 2122.83 376.504C2124.01 375.344 2125.42 374.764 2127.06 374.764C2128.65 374.764 2130.04 375.344 2131.23 376.504C2132.43 377.664 2133.02 379.056 2133.02 380.68C2133.02 381.774 2132.74 382.777 2132.18 383.688C2131.63 384.583 2130.91 385.304 2130.01 385.851C2129.12 386.381 2128.13 386.646 2127.06 386.646ZM2184.11 386.646C2182.47 386.646 2181.06 386.066 2179.89 384.906C2178.73 383.73 2178.15 382.321 2178.15 380.68C2178.15 379.056 2178.73 377.664 2179.89 376.504C2181.06 375.344 2182.47 374.764 2184.11 374.764C2185.7 374.764 2187.1 375.344 2188.29 376.504C2189.48 377.664 2190.08 379.056 2190.08 380.68C2190.08 381.774 2189.8 382.777 2189.23 383.688C2188.69 384.583 2187.97 385.304 2187.07 385.851C2186.18 386.381 2185.19 386.646 2184.11 386.646ZM2241.17 386.646C2239.53 386.646 2238.12 386.066 2236.95 384.906C2235.79 383.73 2235.21 382.321 2235.21 380.68C2235.21 379.056 2235.79 377.664 2236.95 376.504C2238.12 375.344 2239.53 374.764 2241.17 374.764C2242.76 374.764 2244.16 375.344 2245.35 376.504C2246.54 377.664 2247.14 379.056 2247.14 380.68C2247.14 381.774 2246.86 382.777 2246.29 383.688C2245.75 384.583 2245.03 385.304 2244.13 385.851C2243.24 386.381 2242.25 386.646 2241.17 386.646ZM2298.23 386.646C2296.59 386.646 2295.18 386.066 2294 384.906C2292.84 383.73 2292.26 382.321 2292.26 380.68C2292.26 379.056 2292.84 377.664 2294 376.504C2295.18 375.344 2296.59 374.764 2298.23 374.764C2299.82 374.764 2301.21 375.344 2302.41 376.504C2303.6 377.664 2304.2 379.056 2304.2 380.68C2304.2 381.774 2303.91 382.777 2303.35 383.688C2302.8 384.583 2302.08 385.304 2301.19 385.851C2300.29 386.381 2299.31 386.646 2298.23 386.646Z" fill="#0C0C0C"/>
</svg>
